<?xml version="1.0" encoding="UTF-8"?>
<svg width="215px" height="42px" viewBox="0 0 215 42" version="1.1" xmlns="http://www.w3.org/2000/svg" xmlns:xlink="http://www.w3.org/1999/xlink">
    <!-- Generator: Sketch 41.2 (35397) - http://www.bohemiancoding.com/sketch -->
    <title>logo</title>
    <desc>Created with Sketch.</desc>
    <defs></defs>
    <g id="Symbols" stroke="none" stroke-width="1" fill="none" fill-rule="evenodd">
        <g id="logo">
            <path d="M48.1777344,15.0395508 L48.1777344,31.2138672 L45.3334961,31.2138672 L45.3334961,15.0395508 L41,15.0395508 L41,12.3662109 L52.4990234,12.3662109 L52.4990234,15.0395508 L48.1777344,15.0395508 Z M54.9119468,25.1835938 C54.9119468,23.4664628 55.5263612,22.0057026 56.7552085,20.8012695 C57.9840558,19.5968364 59.4814366,18.9946289 61.247396,18.9946289 C63.0214934,18.9946289 64.5270122,19.6009054 65.7639976,20.8134766 C66.9847068,22.0260477 67.5950522,23.5152906 67.5950522,25.28125 C67.5950522,27.0634855 66.9806378,28.5567974 65.7517905,29.7612305 C64.5148052,30.9575255 62.9970795,31.5556641 61.1985679,31.5556641 C59.4163324,31.5556641 57.9230205,30.9453186 56.7185874,29.7246094 C55.5141543,28.5201763 54.9119468,27.0065195 54.9119468,25.1835938 Z M57.719564,25.2324219 C57.719564,26.4205789 58.0369436,27.3605109 58.6717124,28.0522461 C59.3227573,28.7521194 60.1813099,29.1020508 61.247396,29.1020508 C62.3216201,29.1020508 63.1801727,28.7561884 63.8230796,28.0644531 C64.4659864,27.3727179 64.7874351,26.4490618 64.7874351,25.293457 C64.7874351,24.1378523 64.4659864,23.2141962 63.8230796,22.5224609 C63.1720347,21.8225876 62.3134821,21.4726562 61.247396,21.4726562 C60.1975861,21.4726562 59.3471714,21.8225876 58.6961265,22.5224609 C58.0450815,23.2223342 57.719564,24.1256455 57.719564,25.2324219 Z M72.5836592,19.3242188 L75.3424482,19.3242188 L75.3424482,20.4228516 C76.3027395,19.4706984 77.3850854,18.9946289 78.5895185,18.9946289 C79.972989,18.9946289 81.051266,19.4300087 81.8243818,20.3007812 C82.4917029,21.0413448 82.8253584,22.2498289 82.8253584,23.9262695 L82.8253584,31.2138672 L80.0665693,31.2138672 L80.0665693,24.5732422 C80.0665693,23.4013613 79.9038105,22.5916364 79.5782881,22.144043 C79.2609037,21.6883115 78.68311,21.4604492 77.8448896,21.4604492 C76.9334268,21.4604492 76.2864606,21.761553 75.9039717,22.3637695 C75.5296208,22.957848 75.3424482,23.9954353 75.3424482,25.4765625 L75.3424482,31.2138672 L72.5836592,31.2138672 L72.5836592,19.3242188 Z M88.3754888,19.3242188 L91.1342778,19.3242188 L91.1342778,20.4228516 C92.0945691,19.4706984 93.176915,18.9946289 94.3813481,18.9946289 C95.7648186,18.9946289 96.8430956,19.4300087 97.6162114,20.3007812 C98.2835325,21.0413448 98.617188,22.2498289 98.617188,23.9262695 L98.617188,31.2138672 L95.8583989,31.2138672 L95.8583989,24.5732422 C95.8583989,23.4013613 95.6956401,22.5916364 95.3701177,22.144043 C95.0527333,21.6883115 94.4749396,21.4604492 93.6367192,21.4604492 C92.7252563,21.4604492 92.0782901,21.761553 91.6958013,22.3637695 C91.3214504,22.957848 91.1342778,23.9954353 91.1342778,25.4765625 L91.1342778,31.2138672 L88.3754888,31.2138672 L88.3754888,19.3242188 Z M107.512045,29.0043945 L102.165365,19.3242188 L105.3514,19.3242188 L108.989096,26.1601562 L112.38265,19.3242188 L115.483236,19.3242188 L106.01058,37.6835938 L102.873373,37.6835938 L107.512045,29.0043945 Z M127.368816,20.7280273 L130.762371,24.8295898 L130.872234,24.7075195 C131.238447,24.3087545 131.584309,23.9181334 131.909832,23.5356445 C132.235354,23.1531556 132.548665,22.7666035 132.849773,22.3759766 L134.705242,24.2802734 C134.477376,24.6057959 134.178307,24.9842101 133.808025,25.4155273 C133.437743,25.8468446 132.99626,26.3432589 132.483562,26.9047852 L135.974773,31.2138672 L132.434734,31.2138672 L130.554851,28.9067383 C128.829582,30.6889738 127.035166,31.5800781 125.17155,31.5800781 C123.503248,31.5800781 122.087246,31.0470431 120.923503,29.980957 C119.784175,28.9067329 119.214519,27.5802488 119.214519,26.0014648 C119.214519,24.1215726 120.11783,22.5590883 121.92448,21.3139648 L123.15739,20.4716797 C123.173666,20.4635416 123.202149,20.4431968 123.242839,20.4106445 C123.28353,20.3780923 123.340495,20.3333336 123.413738,20.2763672 C122.168614,18.9498632 121.546062,17.6437239 121.546062,16.3579102 C121.546062,15.0883726 121.961097,14.0548542 122.791179,13.2573242 C123.637538,12.4597942 124.728021,12.0610352 126.062664,12.0610352 C127.356615,12.0610352 128.426754,12.4475873 129.273113,13.2207031 C130.119471,13.993819 130.542644,14.9703717 130.542644,16.1503906 C130.542644,16.9641968 130.310713,17.7006803 129.846843,18.3598633 C129.391112,19.0190463 128.565111,19.8084264 127.368816,20.7280273 Z M125.110515,22.3271484 L124.951824,22.4370117 C123.788081,23.2426798 122.994632,23.889646 122.571453,24.3779297 C122.156411,24.8662134 121.948894,25.3829725 121.948894,25.9282227 C121.948894,26.7094766 122.262205,27.4256152 122.888835,28.0766602 C123.53988,28.7032909 124.256019,29.0166016 125.037273,29.0166016 C126.135911,29.0166016 127.401361,28.2963939 128.83366,26.855957 L125.110515,22.3271484 Z M125.720867,18.7260742 L125.9528,18.5551758 C126.351565,18.2540675 126.681152,17.991619 126.94157,17.7678223 C127.201988,17.5440256 127.38916,17.3548185 127.503093,17.2001953 C127.747235,16.899087 127.869304,16.5288108 127.869304,16.0893555 C127.869304,15.5929337 127.702476,15.1901057 127.368816,14.8808594 C127.035155,14.571613 126.587569,14.4169922 126.026042,14.4169922 C125.513345,14.4169922 125.082034,14.575682 124.732097,14.8930664 C124.382161,15.1941747 124.207195,15.5807268 124.207195,16.0527344 C124.207195,16.6061226 124.426919,17.1513645 124.866374,17.6884766 L125.574382,18.5429688 C125.598796,18.5836591 125.647624,18.6446936 125.720867,18.7260742 Z M150.973145,15.1738281 L148.666017,16.5410156 C148.234699,15.792314 147.823733,15.3040376 147.433106,15.0761719 C147.026203,14.8157539 146.501306,14.6855469 145.858399,14.6855469 C145.069007,14.6855469 144.413903,14.9093402 143.893067,15.3569336 C143.372231,15.7963889 143.111817,16.3497688 143.111817,17.0170898 C143.111817,17.9366908 143.795404,18.6772433 145.162599,19.2387695 L147.042481,20.0078125 C148.572437,20.6263052 149.691404,21.3810991 150.399415,22.2722168 C151.107426,23.1633345 151.461427,24.2558529 151.461427,25.5498047 C151.461427,27.2832118 150.883633,28.7154891 149.728028,29.8466797 C148.564285,30.9860083 147.119801,31.5556641 145.394532,31.5556641 C143.758782,31.5556641 142.407884,31.0714567 141.341798,30.1030273 C140.291988,29.134598 139.636884,27.7714932 139.376466,26.0136719 L142.257325,25.3789062 C142.387534,26.4856826 142.615396,27.2506489 142.940919,27.6738281 C143.526859,28.4876343 144.381343,28.8945312 145.504395,28.8945312 C146.391444,28.8945312 147.127928,28.5974965 147.713868,28.003418 C148.299809,27.4093395 148.592774,26.6565801 148.592774,25.7451172 C148.592774,25.3789044 148.541912,25.0432144 148.440187,24.7380371 C148.338461,24.4328598 148.179771,24.1521009 147.964112,23.895752 C147.748454,23.639403 147.469729,23.3993338 147.127931,23.1755371 C146.786132,22.9517404 146.379235,22.7381195 145.907228,22.534668 L144.08838,21.777832 C141.508614,20.6873318 140.218751,19.0922957 140.218751,16.9926758 C140.218751,15.5766531 140.759924,14.3925829 141.842286,13.4404297 C142.924648,12.4801384 144.271477,12 145.882813,12 C148.055676,12 149.752436,13.0579321 150.973145,15.1738281 Z M159.196616,19.3242188 L159.196616,26.1479492 C159.196616,28.1173601 159.973789,29.1020508 161.528159,29.1020508 C163.082528,29.1020508 163.859702,28.1173601 163.859702,26.1479492 L163.859702,19.3242188 L166.606284,19.3242188 L166.606284,26.2089844 C166.606284,27.1611376 166.488284,27.9830695 166.25228,28.6748047 C166.024414,29.2932974 165.629724,29.8507462 165.068198,30.347168 C164.140459,31.1528361 162.960457,31.5556641 161.528159,31.5556641 C160.103998,31.5556641 158.928066,31.1528361 158.000327,30.347168 C157.430662,29.8507462 157.027834,29.2932974 156.791831,28.6748047 C156.563965,28.1214165 156.450034,27.2994846 156.450034,26.2089844 L156.450034,19.3242188 L159.196616,19.3242188 Z M172.156414,19.3242188 L174.915203,19.3242188 L174.915203,20.4228516 C175.875494,19.4706984 176.95784,18.9946289 178.162273,18.9946289 C179.545744,18.9946289 180.624021,19.4300087 181.397137,20.3007812 C182.064458,21.0413448 182.398113,22.2498289 182.398113,23.9262695 L182.398113,31.2138672 L179.639324,31.2138672 L179.639324,24.5732422 C179.639324,23.4013613 179.476565,22.5916364 179.151043,22.144043 C178.833659,21.6883115 178.255865,21.4604492 177.417645,21.4604492 C176.506182,21.4604492 175.859215,21.761553 175.476727,22.3637695 C175.102376,22.957848 174.915203,23.9954353 174.915203,25.4765625 L174.915203,31.2138672 L172.156414,31.2138672 L172.156414,19.3242188 Z M187.948244,19.3242188 L190.694826,19.3242188 L190.694826,20.4228516 C191.2238,19.8694634 191.675455,19.4951182 192.049806,19.2998047 C192.448571,19.0963531 192.949054,18.9946289 193.551271,18.9946289 C194.894051,18.9946289 195.956052,19.5805605 196.737306,20.7524414 C197.599941,19.5805605 198.767735,18.9946289 200.240724,18.9946289 C202.918146,18.9946289 204.256837,20.6181478 204.256837,23.8652344 L204.256837,31.2138672 L201.498048,31.2138672 L201.498048,24.6098633 C201.498048,23.4705347 201.359703,22.6648787 201.083009,22.1928711 C200.798177,21.7127255 200.330246,21.4726562 199.679201,21.4726562 C198.922361,21.4726562 198.371016,21.7574841 198.025148,22.3271484 C197.67928,22.8968127 197.506349,23.8123309 197.506349,25.0737305 L197.506349,31.2138672 L194.74756,31.2138672 L194.74756,24.6464844 C194.74756,22.5305884 194.137215,21.4726562 192.916505,21.4726562 C192.143389,21.4726562 191.579837,21.7615531 191.225832,22.3393555 C190.871826,22.9171578 190.694826,23.8286071 190.694826,25.0737305 L190.694826,31.2138672 L187.948244,31.2138672 L187.948244,19.3242188 Z" id="Tonny&amp;Sunm" fill="#4A4A4A"></path>
            <g id="slowslab" transform="translate(6.000000, 6.000000)">
                <path d="M3.75,27.75 C3.75,27.75 8.43302885,29.2531731 9,29.25 C9.56697115,29.2467548 9.23077644,19.2639663 9.23077644,19.2639663 C9.23077644,19.2639663 6.17306971,20.6446875 3.75,27.75 Z" id="Fill-1" fill="#C27E15"></path>
                <path d="M15.6490385,21.4274279 C14.7535096,22.3561298 12.589399,27.1649279 12.6923077,30.9466587 C12.6923077,30.9466587 8.80903846,30.3901442 5.12019231,29.5764663 C5.12019231,29.5764663 5.04144231,23.8982452 9.15865385,19.4803125 C9.15865385,19.4803125 14.9027163,20.99625 15.6490385,21.4274279" id="Fill-3" fill="#ECBF37"></path>
                <path d="M28.0240385,13.8553197 C28.0240385,13.8553197 22.3557692,14.7928197 18.6057692,16.2351274 C21.1298077,17.100512 26.0035096,18.1374519 29.25,18" id="Fill-5" fill="#2572AC"></path>
                <path d="M28.4134615,8.08608173 C28.4134615,8.08608173 29.4420433,12.9852404 30,15.7303125 C30,15.7303125 23.8331971,17.0700721 18.4615385,16.1630048 L17.4519231,9.45627404 C17.4519231,9.45627404 22.6996875,9.55882212 28.4134615,8.08608173" id="Fill-7" fill="#5EB7F1"></path>
                <path d="M8.13461538,2.88461538e-05 C8.13461538,2.88461538e-05 11.6169952,7.33394712 10.9615385,10.3216875 L3.75,2.67745673 L8.13461538,2.88461538e-05 Z" id="Fill-9" fill="#8B181A"></path>
                <path d="M0,5.27358173 L5.40865385,0.153389423 C5.40865385,0.153389423 8.76858173,3.09490385 11.0336538,9.09569712 C7.78161058,10.9473317 5.98557692,13.0620433 5.98557692,13.0620433 C5.98557692,13.0620433 4.93903846,9.40867788 0,5.27358173" id="Fill-11" fill="#DF242B"></path>
                <path d="M13.125,15.3697356 C13.3231731,14.6496635 11.6014904,9.15 11.1057692,8.80723558 C10.9661538,8.80997596 10.9071635,8.77197115 10.6730769,8.80723558 C9.52427885,8.98024038 7.63096154,10.1825481 5.76923077,12.9178125 C5.76923077,12.9178125 8.15408654,19.7247115 8.58173077,19.768774 C9.51425481,18.4228846 11.2833173,16.2970673 12.5480769,15.5139663 C12.7716346,15.3755769 12.8936538,15.3251683 13.125,15.3697356" id="Fill-13" fill="#5EB7F1"></path>
                <path d="M11.1057692,8.73512019 C11.4076442,9.10608173 12.8617788,13.1721635 13.125,14.9370433 C13.1577404,15.1566346 13.1418029,15.3483173 13.0528846,15.441851 C13.6757452,15.8859375 15.9917308,16.3171154 19.0384615,16.5235817 C19.1338702,16.4001923 19.2535817,16.2111779 19.3047115,15.9734135 C19.461274,15.2447596 19.1589663,12.5369712 17.6682692,9.23992788 C17.6682692,9.23992788 13.7202404,8.37302885 11.1057692,8.73512019" id="Fill-15" fill="#EDBF36"></path>
                <path d="M19.1826923,16.5235817 C18.3326683,18.1161779 17.0692067,20.0839183 15.5048077,21.8601202 C12.4492067,21.4812981 9.81742788,20.937476 9.01442308,20.2014663 C8.78697115,19.9929808 8.74384615,19.8938221 8.58173077,19.6966587 C8.58173077,19.6966587 8.66682692,18.9009375 10.0961538,17.3889663 C10.6794952,16.771875 11.635601,15.9618029 12.7644231,15.2255048 C13.0279327,15.0536538 12.9266106,15.3765865 13.125,15.5139663 C13.3233894,15.6513462 15.1191346,16.2328125 19.1826923,16.5235817" id="Fill-17" fill="#DE242B"></path>
            </g>
        </g>
    </g>
</svg>