<?xml version="1.0" encoding="UTF-8"?>
<svg width="553px" height="472px" viewBox="0 0 553 472" version="1.1" xmlns="http://www.w3.org/2000/svg" xmlns:xlink="http://www.w3.org/1999/xlink">
    <!-- Generator: Sketch 41.2 (35397) - http://www.bohemiancoding.com/sketch -->
    <title>introduction</title>
    <desc>Created with Sketch.</desc>
    <defs>
        <path d="M28,16 L36,16 L36,0 L20,0 L20,2 L7.99865244,2 C4.13681838,2 1,5.13400675 1,9 L1,16 L28,16 Z" id="path-1"></path>
        <path d="M28,16 L36,16 L36,0 L20,0 L20,2 L7.99865244,2 C4.13681838,2 1,5.13400675 1,9 L1,16 L28,16 Z" id="path-3"></path>
        <path d="M103.30989,0.989638645 C111.031937,7.89976898 115.807921,18.0142011 115.622021,29.2856801 L115,67 L98.2080259,67 L98.2080259,174 L18.0479573,174 L18.0479573,67 L2,67 L1.00560691,29.2718687 C0.720419584,18.4516156 5.02335839,8.69601172 12.146322,1.82060339 C25.3192288,6.62371783 40.4850721,9.35944607 56.6249903,9.35944607 C73.6737773,9.35944607 89.6356966,6.30693489 103.30989,0.989638645 Z" id="path-5"></path>
    </defs>
    <g id="Symbols" stroke="none" stroke-width="1" fill="none" fill-rule="evenodd">
        <g id="introduction">
            <g id="1" transform="translate(-1.000000, 0.000000)">
                <g id="avatar/Tonny2" transform="translate(142.000000, 0.000000)">
                    <g id="Tonny">
                        <g id="body" transform="translate(0.000000, 135.000000)">
                            <rect id="leg_l" fill="#F2CA99" x="38" y="301" width="14" height="19"></rect>
                            <rect id="leg_r" fill="#F2CA99" x="96" y="301" width="14" height="19"></rect>
                            <g id="shoes_l" transform="translate(17.000000, 316.000000)">
                                <rect id="sole" fill="#321503" x="0" y="16" width="37" height="3" rx="1.5"></rect>
                                <mask id="mask-2" fill="white">
                                    <use xlink:href="#path-1"></use>
                                </mask>
                                <use id="Mask" fill="#A86934" xlink:href="#path-1"></use>
                                <path d="M40,29 C46.0751322,29 51,24.0751322 51,18 C51,11.9248678 46.0751322,7 40,7 C33.9248678,7 29,11.9248678 29,18 C29,24.0751322 33.9248678,29 40,29 Z M40,27 C44.9705627,27 49,22.9705627 49,18 C49,13.0294373 44.9705627,9 40,9 C35.0294373,9 31,13.0294373 31,18 C31,22.9705627 35.0294373,27 40,27 Z" id="Combined-Shape" fill="#331604" mask="url(#mask-2)"></path>
                                <path d="M-1,39 C8.38884075,39 16,31.3888407 16,22 C16,12.6111593 8.38884075,5 -1,5 C-10.3888407,5 -18,12.6111593 -18,22 C-18,31.3888407 -10.3888407,39 -1,39 Z M-1,37 C7.28427125,37 14,30.2842712 14,22 C14,13.7157288 7.28427125,7 -1,7 C-9.28427125,7 -16,13.7157288 -16,22 C-16,30.2842712 -9.28427125,37 -1,37 Z" id="Combined-Shape-Copy" fill="#331604" mask="url(#mask-2)"></path>
                                <path d="M11.6823751,11.986555 C20.7548671,11.6284106 28,4.16030105 28,-5 C28,-14.3888407 20.3888407,-22 11,-22 C1.61115925,-22 -6,-14.3888407 -6,-5 C-6,-1.22078054 -4.76680689,2.27041124 -2.68087101,5.09312501 C-2.12906748,5.03159533 -1.56822348,5 -1,5 C-0.718042945,5 -0.437902884,5.00777948 -0.159782752,5.0231355 C-2.54731808,2.36660138 -4,-1.14705329 -4,-5 C-4,-13.2842712 2.71572875,-20 11,-20 C19.2842712,-20 26,-13.2842712 26,-5 C26,3.28427125 19.2842712,10 11,10 C10.7180429,10 10.4379029,9.99222052 10.1597828,9.9768645 C10.7212607,10.6016031 11.2310365,11.2737449 11.6823751,11.986555 Z" id="Combined-Shape-Copy-2" fill="#331604" mask="url(#mask-2)"></path>
                            </g>
                            <g id="shoes_r" transform="translate(112.500000, 325.500000) scale(-1, 1) translate(-112.500000, -325.500000) translate(94.000000, 316.000000)">
                                <rect id="sole-copy" fill="#321503" x="0" y="16" width="37" height="3" rx="1.5"></rect>
                                <mask id="mask-4" fill="white">
                                    <use xlink:href="#path-3"></use>
                                </mask>
                                <use id="Mask" fill="#A86934" xlink:href="#path-3"></use>
                                <path d="M40,29 C46.0751322,29 51,24.0751322 51,18 C51,11.9248678 46.0751322,7 40,7 C33.9248678,7 29,11.9248678 29,18 C29,24.0751322 33.9248678,29 40,29 Z M40,27 C44.9705627,27 49,22.9705627 49,18 C49,13.0294373 44.9705627,9 40,9 C35.0294373,9 31,13.0294373 31,18 C31,22.9705627 35.0294373,27 40,27 Z" id="Combined-Shape" fill="#331604" mask="url(#mask-4)"></path>
                                <path d="M-1,39 C8.38884075,39 16,31.3888407 16,22 C16,12.6111593 8.38884075,5 -1,5 C-10.3888407,5 -18,12.6111593 -18,22 C-18,31.3888407 -10.3888407,39 -1,39 Z M-1,37 C7.28427125,37 14,30.2842712 14,22 C14,13.7157288 7.28427125,7 -1,7 C-9.28427125,7 -16,13.7157288 -16,22 C-16,30.2842712 -9.28427125,37 -1,37 Z" id="Combined-Shape-Copy" fill="#331604" mask="url(#mask-4)"></path>
                                <path d="M11.6823751,11.986555 C20.7548671,11.6284106 28,4.16030105 28,-5 C28,-14.3888407 20.3888407,-22 11,-22 C1.61115925,-22 -6,-14.3888407 -6,-5 C-6,-1.22078054 -4.76680689,2.27041124 -2.68087101,5.09312501 C-2.12906748,5.03159533 -1.56822348,5 -1,5 C-0.718042945,5 -0.437902884,5.00777948 -0.159782752,5.0231355 C-2.54731808,2.36660138 -4,-1.14705329 -4,-5 C-4,-13.2842712 2.71572875,-20 11,-20 C19.2842712,-20 26,-13.2842712 26,-5 C26,3.28427125 19.2842712,10 11,10 C10.7180429,10 10.4379029,9.99222052 10.1597828,9.9768645 C10.7212607,10.6016031 11.2310365,11.2737449 11.6823751,11.986555 Z" id="Combined-Shape-Copy-2" fill="#331604" mask="url(#mask-4)"></path>
                            </g>
                            <polygon id="pants" fill="#202737" points="31 139 31 160 31.301 160 34 312 55 312 52.302 160 94.698 160 92 312 113 312 115.698 160 116.001 160 116.001 139"></polygon>
                            <path d="M134.58179,40.7212353 L134.638949,40.7212353 C128.406574,26.7431904 114.394494,17 98.1083561,17 L90.6999766,17 C87.9703105,23.464 81.5744362,28 74.1200791,28 C66.665722,28 60.2698476,23.464 57.5401816,17 L50.131802,17 C36.0134544,17 23.6040719,24.3220502 16.4904408,35.3776114 C15.3904198,36.5597215 14.4640258,37.941019 13.7704858,39.4987355 L1.17126729,67.7970435 C0.721462176,68.8073223 1.17223089,69.9871511 2.17707582,70.4345369 L25.9445742,81.016509 C26.9437888,81.461388 28.1282788,81.0084044 28.577631,79.9991428 L30.9843694,74.5935199 L30.9843694,88 L31.1410827,88 L31.1410827,139 L116.099564,139 L116.099564,95.7212353 L115.994627,95.7212353 L115.994627,72.7315826 L119.230353,79.9991428 C119.679705,81.0084044 120.864195,81.461388 121.86341,81.016509 L145.630908,70.4345369 C146.635753,69.9871511 147.086522,68.8073223 146.636717,67.7970435 L134.58179,40.7212353 Z" id="Combined-Shape" fill="#5EB7F1"></path>
                            <path d="M1.45167115,88.150249 L8.1483167,73.1093368 L20.9379531,78.8036498 L16.6052726,88.5350096 L57.8003401,106.021278 C61.355105,107.530186 63.0199387,111.641527 61.5093748,115.200193 C60.0018846,118.751617 55.8891115,120.419055 52.3301043,118.908346 L4.46508914,98.5908528 C0.910324218,97.0819446 -0.754509464,92.9706038 0.75605444,89.4119383 C0.947902233,88.9599732 1.18194488,88.538521 1.45167115,88.150249 Z" id="Combined-Shape" fill="#FDD9B7"></path>
                            <path d="M86.4516711,88.150249 L93.1483167,73.1093368 L105.937953,78.8036498 L101.605273,88.5350096 L142.80034,106.021278 C146.355105,107.530186 148.019939,111.641527 146.509375,115.200193 C145.001885,118.751617 140.889111,120.419055 137.330104,118.908346 L89.4650891,98.5908528 C85.9103242,97.0819446 84.2454905,92.9706038 85.7560544,89.4119383 C85.9479022,88.9599732 86.1819449,88.538521 86.4516711,88.150249 Z" id="Combined-Shape-Copy-3" fill="#FDD9B7" transform="translate(116.132715, 96.287518) scale(-1, 1) translate(-116.132715, -96.287518) "></path>
                            <path d="M74,96 C83,96 90.0001,95 90.0001,95 C90.0001,95 89.0651,103.487 92.2181,112.22 C95.5591,121.472 105.0001,131 105.0001,131 C105.0001,131 92,133 73,133 C54,133 41.0001,131 41.0001,131 C41.0001,131 49.2291,123.485 53.3381,114.238 C57.2221,105.499 57.0001,95 57.0001,95 C57.0001,95 65,96 74,96 Z" id="pocket" fill="#4C9ACC"></path>
                            <path d="M90,95 C90,95 88,116 105,131" id="pocket_line_r" stroke="#FFFFFF" stroke-width="2"></path>
                            <path d="M42,95 C42,95 40,116 57,131" id="pocket_line_l" stroke="#FFFFFF" stroke-width="2" transform="translate(49.463719, 113.000000) scale(-1, 1) translate(-49.463719, -113.000000) "></path>
                            <path d="M74.2102662,0 C25.6142662,0 37.2102662,19 37.2102662,19 L74.2102662,39 L111.517266,19 C111.517266,19 123.210266,0 74.2102662,0" id="hat" fill="#4C9ACC"></path>
                            <path d="M75.0001,1 L73.0001,1 C68.0291,1 64.0001,5.029 64.0001,10 L64.0001,21 L74.0001,34 L84.0001,21 L84.0001,10 C84.0001,5.029 79.9711,1 75.0001,1" id="neck" fill="#FDD9B7"></path>
                            <path d="M79,33 C79,33 83.3674418,40 82,59" id="string_r" stroke="#FFFFFF" stroke-width="2"></path>
                            <circle id="circle" fill="#FFFFFF" cx="82" cy="59" r="2"></circle>
                            <circle id="circle-copy" fill="#FFFFFF" cx="63" cy="56" r="2"></circle>
                            <path d="M69,32 C69,32 63,38 63,56" id="string_l" stroke="#FFFFFF" stroke-width="2"></path>
                            <path d="M64,18 L64,12 C64,12 84.0249844,10.2426407 84.0249844,12 C81,16 64,18 64,18 Z" id="neck_shadow-copy" fill="#EDC19C"></path>
                        </g>
                        <g id="head" transform="translate(2.000000, 0.000000)">
                            <path d="M132.173,78.673 C133.014,75.422 133.463,72.014 133.463,68.5 C133.463,60.121 130.918,52.338 126.56,45.878 C128.981,46.912 131.268,48.198 133.382,49.711 C132.224,31.264 117.176,16.593 98.573,16.028 C87.939,6.09 73.665,0 57.963,0 C29.717,0 6.086,19.688 0,46.085 C3.084,43.032 6.493,40.312 10.155,37.95 C5.274,46.164 2.463,55.752 2.463,66 C2.463,69.316 2.773,72.559 3.335,75.714 C4.882,72.17 7.022,68.949 9.605,66.144 C8.856,69.812 8.463,73.61 8.463,77.5 C8.463,108.704 33.759,134 64.963,134 C71.959,134 78.647,132.709 84.828,130.382 C78.189,126.643 72.869,120.854 69.694,113.882 C75.898,118.954 83.824,122 92.463,122 C112.345,122 128.463,105.882 128.463,86 C128.463,80.704 127.31,75.681 125.257,71.153 C127.9,73.32 130.236,75.847 132.173,78.673" id="hair" fill="#383D40"></path>
                            <rect id="ear" fill="#EDC19C" x="8" y="96" width="123" height="24" rx="12"></rect>
                            <rect id="ear-hole" fill="#E6A973" x="13" y="103" width="113" height="10" rx="5"></rect>
                            <path d="M114,70.031 C105.043,70.328 93,61.031 93,61.031 C94.036,65.756 103,73.031 103,73.031 C90.771,74.285 74,58.031 74,58.031 C73.845,61.266 78,72.031 78,72.031 C66.614,72.079 50,54.031 50,54.031 C49.122,57.146 50,72.031 50,72.031 C45.785,69.492 40,61.031 40,61.031 C37.088,74.177 26,78.031 26,78.031 C28.969,75.085 28,66.031 28,66.031 L18.03,82.346 C18.021,82.741 18,83.133 18,83.531 L18,98.531 C18,125.869 40.162,148.031 67.5,148.031 L71.5,148.031 C98.838,148.031 121,125.869 121,98.531 L121,84.031 L114,70.031 Z" id="face" fill="#FDD9B7"></path>
                            <path d="M117.732124,104.909127 C116.464124,106.259127 114.623124,107.604127 103.906124,108.771127 C93.1891245,109.939127 83.4971245,108.661127 82.0581245,107.428127 C80.6201245,106.195127 76.8231245,93.8491275 77.9621245,92.4831275 C79.2511245,90.9381275 88.1791245,86.9491275 101.005124,86.9431275 C110.271124,86.9391275 116.689124,87.5251275 118.756124,89.2941275 C120.823124,91.0631275 119.000124,103.559127 117.732124,104.909127 L117.732124,104.909127 Z M121.768124,87.5501275 C119.714124,84.9111275 112.672124,84.0031275 101.050124,84.0681275 C84.5261245,84.1591275 77.1381245,89.4121275 69.7971245,89.6401275 L69.7971245,94.1681275 C69.7971245,94.1681275 72.6101245,93.8251275 73.8351245,94.6901275 C75.0601245,95.5561275 76.9941245,107.367127 80.1561245,109.318127 C83.3171245,111.269127 94.7271245,111.935127 101.401124,111.234127 C108.075124,110.533127 117.411124,108.949127 119.661124,107.403127 C121.912124,105.856127 123.823124,90.1901275 121.768124,87.5501275 L121.768124,87.5501275 Z M57.5871245,107.428127 C56.1491245,108.661127 46.4561245,109.939127 35.7391245,108.771127 C25.0221245,107.604127 23.1821245,106.259127 21.9141245,104.909127 C20.6461245,103.559127 18.8231245,91.0631275 20.8891245,89.2941275 C22.9561245,87.5251275 29.3741245,86.9391275 38.6411245,86.9431275 C51.4661245,86.9491275 60.3941245,90.9381275 61.6841245,92.4831275 C62.8231245,93.8491275 59.0261245,106.195127 57.5871245,107.428127 L57.5871245,107.428127 Z M69.7971245,89.5891275 C62.4631245,89.3611275 55.0811245,84.0951275 38.5741245,84.0031275 C26.9631245,83.9391275 19.9281245,84.8491275 17.8751245,87.4951275 C15.8231245,90.1401275 17.7321245,105.845127 19.9801245,107.396127 C22.2281245,108.946127 31.5551245,110.534127 38.2231245,111.236127 C44.8911245,111.939127 56.2891245,111.272127 59.4471245,109.316127 C62.6061245,107.360127 64.5381245,95.5201275 65.7621245,94.6521275 C66.9861245,93.7841275 69.7971245,94.1281275 69.7971245,94.1281275 L69.7971245,89.5891275 Z" id="glass" fill="#221F20"></path>
                            <circle id="eye_l" fill="#383D40" cx="49" cy="98" r="4"></circle>
                            <circle id="eye_r" fill="#383D40" cx="92" cy="98" r="4"></circle>
                            <circle id="blush_r" fill="#FFB1A4" cx="102" cy="118" r="5"></circle>
                            <circle id="blush_l" fill="#FFB1A4" cx="37" cy="118" r="5"></circle>
                            <path d="M74,116 C74,116 70,120 65,116" id="nose" fill="#773A25"></path>
                            <path d="M68,132 C68,132 79,137 89,127" id="mouse" stroke="#773A25" stroke-width="2" stroke-linecap="round"></path>
                            <path d="M85,78 C85,78 97,77 104,79" id="eyebrow_r" stroke="#773A25" stroke-width="3" stroke-linecap="round"></path>
                            <path d="M35,78 C35,78 47,77 54,79" id="eyebrow_l" stroke="#773A25" stroke-width="3" stroke-linecap="round" transform="translate(44.500000, 78.375000) scale(-1, 1) translate(-44.500000, -78.375000) "></path>
                            <path d="M25,26 C25,26 39,11 59,12" id="Path-2" stroke="#FFFFFF" stroke-width="2" stroke-linecap="round"></path>
                            <path d="M63,12 C63,12 66,12 68,13" id="Path-3" stroke="#FFFFFF" stroke-width="2" stroke-linecap="round"></path>
                        </g>
                    </g>
                </g>
                <g id="avatar/Sunm2" transform="translate(277.000000, 48.000000)">
                    <g id="Sunm-Copy">
                        <g id="body" transform="translate(20.000000, 125.000000)">
                            <path d="M48.7731092,287 L46,177 L34,177 L34.9243697,287 L18.0056458,287 C15.2383594,287 13,289.238576 13,292 L13,297 L49,297 L49,287 L48.7731092,287 Z" id="leg_l" fill="#FFE2C8"></path>
                            <path d="M98.7731092,287 L96,177 L84,177 L84.9243697,287 L68.0056458,287 C65.2383594,287 63,289.238576 63,292 L63,297 L99,297 L99,287 L98.7731092,287 Z" id="leg_r" fill="#FFE2C8" transform="translate(81.000000, 237.000000) scale(-1, 1) translate(-81.000000, -237.000000) "></path>
                            <path d="M22,287 L17.0069123,287 C14.2352052,287 12,289.238576 12,292 L12,296.004602 C12,296.544336 12.4463163,297 12.9968754,297 L49.0031246,297 C49.5467697,297 50,296.554345 50,296.004602 L50,293 L23.991617,293 C22.8916773,293 22,292.10294 22,290.994141 L22,287 Z" id="shoes_l" fill="#202739"></path>
                            <path d="M72,287 L67.0069123,287 C64.2352052,287 62,289.238576 62,292 L62,296.004602 C62,296.544336 62.4463163,297 62.9968754,297 L99.0031246,297 C99.5467697,297 100,296.554345 100,296.004602 L100,293 L73.991617,293 C72.8916773,293 72,292.10294 72,290.994141 L72,287 Z" id="shoes_r" fill="#202739" transform="translate(81.000000, 292.000000) scale(-1, 1) translate(-81.000000, -292.000000) "></path>
                            <path d="M4.4336531,39 C9.90320506,24.395963 23.9898485,14 40.50486,14 L48,14 L48,0 L68,0 L68,14 L75.49514,14 C92.0108932,14 106.098023,24.3940398 111.567059,39 L4.4336531,39 Z" fill="#FFE2C8"></path>
                            <rect id="hand_l" fill="#FFE2C6" transform="translate(17.000000, 118.500000) rotate(-10.000000) translate(-17.000000, -118.500000) " x="10" y="76" width="14" height="85" rx="7"></rect>
                            <rect id="hand_l-copy" fill="#FFE2C6" transform="translate(99.000000, 118.500000) scale(-1, 1) rotate(-10.000000) translate(-99.000000, -118.500000) " x="92" y="76" width="14" height="85" rx="7"></rect>
                            <rect id="sleeve" fill="#EB4E5F" x="0" y="90" width="20" height="8" rx="2"></rect>
                            <rect id="sleeve-copy" fill="#EB4E5F" x="93" y="90" width="24" height="8" rx="2"></rect>
                            <g id="dress" transform="translate(0.000000, 23.000000)">
                                <mask id="mask-6" fill="white">
                                    <use xlink:href="#path-5"></use>
                                </mask>
                                <use id="Mask" fill="#FF9899" xlink:href="#path-5"></use>
                                <path d="M-4,161 L118,161 L118,164 L-4,164 L-4,161 Z M-4,151 L118,151 L118,154 L-4,154 L-4,151 Z M-4,141 L118,141 L118,144 L-4,144 L-4,141 Z M-4,131 L118,131 L118,134 L-4,134 L-4,131 Z M-4,121 L118,121 L118,124 L-4,124 L-4,121 Z M-4,111 L118,111 L118,114 L-4,114 L-4,111 Z M-4,101 L118,101 L118,104 L-4,104 L-4,101 Z M-4,91 L118,91 L118,94 L-4,94 L-4,91 Z M-4,81 L118,81 L118,84 L-4,84 L-4,81 Z M-4,71 L118,71 L118,74 L-4,74 L-4,71 Z M-4,61 L118,61 L118,64 L-4,64 L-4,61 Z M-4,51 L118,51 L118,54 L-4,54 L-4,51 Z M-4,41 L57,42 L118,41 L118,44 L57,45 L-4,44 L-4,41 Z M-4,31 C-4,31 26.5,34 57,34 C87.5,34 118,31 118,31 L118,34 C118,34 87.5,37 57,37 C26.5,37 -4,34 -4,34 L-4,31 Z M-4,21 C-4,21 26.5,25 57,25 C87.5,25 118,21 118,21 L118,24 C118,24 87.5,28 57,28 C26.5,28 -4,24 -4,24 L-4,21 Z M-4,11 C-4,11 26.5,17 57,17 C87.5,17 118,11 118,11 L118,14 C118,14 87.5,20 57,20 C26.5,20 -4,14 -4,14 L-4,11 Z" id="stripe" fill="#FFAEAD" mask="url(#mask-6)"></path>
                            </g>
                            <polygon id="dress_shadow_l" fill="#F9898D" points="18 58 18 90 12 90"></polygon>
                            <polygon id="dress_shadow_r" fill="#F9898D" transform="translate(101.000000, 74.000000) scale(-1, 1) translate(-101.000000, -74.000000) " points="104 58 104 90 98 90"></polygon>
                            <path d="M15.1382963,21.8959403 C12.9288511,23.5390791 10.9197166,25.4366626 9.15425747,27.5453425 C24.7950101,31.9239517 41.2868233,34.2653545 58.3255004,34.2653545 C75.1726841,34.2653545 91.4852269,31.9762848 106.969074,27.6922004 C105.217882,25.5771661 103.222775,23.6715569 101.026878,22.0185073 C87.3598342,25.4455501 73.0551863,27.2653545 58.3255004,27.2653545 C43.4211842,27.2653545 28.952044,25.4021443 15.1382963,21.8959403 Z" id="deep_shoulder" fill="#EB4E5F"></path>
                            <rect id="stripe_l" fill="#E94C5F" x="33" y="14" width="7" height="14" rx="2"></rect>
                            <rect id="stripe_r" fill="#E94C5F" x="75" y="14" width="7" height="14" rx="2"></rect>
                            <path d="M48,14 L48,8 C48,8 68.0249844,6.24264069 68.0249844,8 C65,12 48,14 48,14 Z" id="neck_shadow" fill="#EDC19C"></path>
                        </g>
                        <g id="head">
                            <path d="M121.468481,127.401171 C118.372789,131.206568 114.554428,134.428115 110.215527,136.868799 C111.298558,136.955693 112.39397,137 113.5,137 C135.315248,137 153,119.762963 153,98.5 C153,91.3078328 150.97665,84.5762803 147.454497,78.8166089 C147.481082,78.7524287 147.507355,78.6880868 147.533309,78.6235751 C145.279514,73.6783749 144,68.0164693 144,62 C144,60.6003347 144.069248,59.2198587 144.203902,57.8631316 C144.078417,57.7155061 143.950852,57.5697879 143.821255,57.4260251 C143.939633,55.9666548 144,54.4905127 144,53 C144,23.7289083 120.718807,0 92,0 C82.4271528,0 73.4584737,2.63649666 65.7548178,7.23592623 C61.1643612,5.14406756 56.1922088,4 51,4 C27.8040405,4 9,26.8334778 9,55 C9,56.6692862 9.06604597,58.319841 9.19513792,59.9480216 C9.12941285,60.0312825 9.06422129,60.115001 8.99956854,60.1991718 C8.9692223,67.2022332 7.33920017,73.8276198 4.45604214,79.7287916 C4.45915794,79.7447161 4.46228918,79.760635 4.46543582,79.7765481 C1.61292336,85.3762526 0,91.7449985 0,98.5 C0,114.754723 9.33946446,128.772873 22.8165149,135.220879 C19.3962347,131.229737 16.7294876,126.543072 15.0442012,121.394581 C22.2591082,130.877954 33.6646139,137 46.5,137 C53.0379287,137 59.2048674,135.411603 64.6359649,132.59966 C56.2830212,125.540498 51,115.121588 51,103.5 C51,89.528544 58.6354521,77.2952951 70.0610639,70.5481967 C63.811604,77.392718 60,86.5012351 60,96.5 C60,117.762963 77.2370371,135 98.5,135 C107.108212,135 115.056576,132.174853 121.468481,127.401171 Z" id="hair" fill="#383D40"></path>
                            <rect id="ear" fill="#EDC19C" x="15" y="79" width="119" height="24" rx="12"></rect>
                            <rect id="ear-hole" fill="#E6A973" x="20" y="86" width="109" height="10" rx="5"></rect>
                            <path d="M124,78.9933813 L124,85.5083817 C124,112.841848 101.844106,135 74.5,135 C47.1619049,135 25,112.838953 25,85.5083817 L25,78.9779268 C41.2202027,74.1863736 55.1197661,63.986134 64.6102087,50.4656894 C78.151988,67.8320304 99.2717845,79 123,79 C123.333854,79 123.667192,78.9977892 124,78.9933813 Z" id="Combined-Shape" fill="#FEDFC3"></path>
                            <circle id="eye_l" fill="#383D40" cx="54" cy="89" r="4"></circle>
                            <circle id="eye_r" fill="#383D40" cx="94" cy="89" r="4"></circle>
                            <circle id="blush_r" fill="#FFB1A4" cx="107" cy="102" r="5"></circle>
                            <circle id="blush_l" fill="#FFB1A4" cx="42" cy="102" r="5"></circle>
                            <path d="M78,99 C78,99 74,103 69,99" id="nose" fill="#773A25"></path>
                            <path d="M70,111 C70,111 81,116 91,106" id="mouse" stroke="#773A25" stroke-width="2" stroke-linecap="round" stroke-linejoin="round"></path>
                            <path d="M86,77 C86,77 97.6470588,76 104,80" id="eyebrow_r" stroke="#773A25" stroke-width="2" stroke-linecap="round" stroke-linejoin="round"></path>
                            <path d="M41,77 C41,77 52.6470588,76 59,80" id="eyebrow_l" stroke="#773A25" stroke-width="2" stroke-linecap="round" stroke-linejoin="round" transform="translate(50.000000, 78.444444) scale(-1, 1) translate(-50.000000, -78.444444) "></path>
                            <path d="M47,15 C47,15 31,17 22,40" id="Path-2" stroke="#FFFFFF" stroke-width="2" stroke-linecap="round"></path>
                            <path d="M51,14 L55,14" id="Path-3" stroke="#FFFFFF" stroke-width="2" stroke-linecap="round"></path>
                        </g>
                    </g>
                </g>
                <g id="arrow_tonny" transform="translate(0.000000, 100.000000)">
                    <path d="M56.6171875,0.96484375 C56.7343756,1.1757823 56.7929688,1.38281148 56.7929688,1.5859375 C56.7929688,1.80468859 56.7187507,2.04687367 56.5703125,2.3125 C56.4843746,2.46093824 56.3476572,2.67577984 56.1601562,2.95703125 C56.0585932,3.10546949 55.3945374,3.25390551 54.1679688,3.40234375 C51.7148315,3.69922023 49.7382887,3.84765625 48.2382812,3.84765625 C48.191406,4.38672145 48.1679688,4.97265309 48.1679688,5.60546875 C48.1679688,6.76953707 48.2539054,8.21092891 48.4257812,9.9296875 L48.9179688,14.8515625 C49.0898446,16.5703211 49.1757812,17.9296825 49.1757812,18.9296875 C49.1054684,18.9296875 48.9394544,18.9960931 48.6777344,19.1289062 C48.4160143,19.2617194 48.2382817,19.328125 48.1445312,19.328125 C47.9804679,19.328125 47.8203133,19.2500008 47.6640625,19.09375 C47.4062487,17.7343682 47.1953133,16.17579 47.03125,14.4179688 C46.9062494,13.1288998 46.7773444,11.4453229 46.6445312,9.3671875 L46.3046875,4.1640625 C46.0390612,4.09374965 45.6679711,4.05859375 45.1914062,4.05859375 C44.5429655,4.05859375 43.7265674,4.1132807 42.7421875,4.22265625 L39.7890625,4.55078125 C38.7343697,4.66796934 38.0195331,4.7265625 37.6445312,4.7265625 C37.2226541,4.20312238 37.0117188,3.51953547 37.0117188,2.67578125 C40.7070497,2.05859066 45.1913799,1.5703143 50.4648438,1.2109375 C52.8711058,1.04687418 54.9218665,0.96484375 56.6171875,0.96484375 Z M70.7109375,15.484375 C70.1406221,17.9531373 68.3125154,19.1875 65.2265625,19.1875 C63.2578027,19.1875 61.6835996,19.0156267 60.5039062,18.671875 C59.050774,18.2499979 57.9296914,17.4453184 57.140625,16.2578125 C56.3906213,15.1328069 56.015625,13.7929765 56.015625,12.2382812 C56.015625,11.1289007 56.3203095,10.1484418 56.9296875,9.296875 C58.4062574,7.22655215 60.2499889,6.19140625 62.4609375,6.19140625 C63.7734441,6.19140625 65.3203036,6.57030871 67.1015625,7.328125 C68.3281311,7.85156512 69.2812466,8.7031191 69.9609375,9.8828125 C70.6015657,10.992193 70.921875,12.2421805 70.921875,13.6328125 C70.921875,14.2578156 70.8515632,14.874997 70.7109375,15.484375 Z M68.9648438,14.9335938 C69.1601572,14.5820295 69.2578125,14.1718773 69.2578125,13.703125 C69.2578125,12.8359332 68.9492218,11.9609419 68.3320312,11.078125 C67.8007786,10.3203087 67.1796911,9.72656465 66.46875,9.296875 C65.0703055,8.45312078 63.6875068,8.03125 62.3203125,8.03125 C60.4843658,8.03125 59.2968777,8.7812425 58.7578125,10.28125 C58.3124978,11.5156312 58.0898438,12.4453094 58.0898438,13.0703125 C58.0898438,13.570315 58.1757804,14.0585914 58.3476562,14.5351562 C58.7304707,15.589849 59.6484302,16.2617173 61.1015625,16.5507812 C61.2031255,16.5742189 61.5468721,16.6210934 62.1328125,16.6914062 L62.5078125,16.7382812 C64.0703203,16.9335947 64.9765613,17.03125 65.2265625,17.03125 C66.9453211,17.03125 68.1914024,16.3320382 68.9648438,14.9335938 Z M89.7265625,18.1914062 C89.7734377,18.2851567 89.796875,18.3710934 89.796875,18.4492188 C89.796875,18.8242206 89.4570346,19.0117188 88.7773438,19.0117188 C88.2851538,19.0117188 87.9531259,18.8906262 87.78125,18.6484375 C87.3437478,18.0312469 86.8828149,16.8320402 86.3984375,15.0507812 C85.8828099,13.1523343 85.4101584,11.8359412 84.9804688,11.1015625 C84.230465,9.81249355 83.1679756,9.0781259 81.7929688,8.8984375 C81.6132804,8.87499988 81.4609381,8.86328125 81.3359375,8.86328125 C79.9296805,8.86328125 78.773442,9.6328048 77.8671875,11.171875 C77.1015587,12.476569 76.71875,13.8867112 76.71875,15.4023438 C76.71875,15.8632836 76.7617183,16.3437475 76.8476562,16.84375 C76.5507798,16.9921882 76.1757835,17.0664062 75.7226562,17.0664062 C75.269529,17.0664062 74.9296886,16.9531261 74.703125,16.7265625 C74.703125,16.2968729 74.6875002,15.7500033 74.65625,15.0859375 C74.5859371,13.5937425 74.5507812,12.6562519 74.5507812,12.2734375 C74.5507812,10.1171767 74.9179651,8.47656813 75.6523438,7.3515625 C75.8320321,7.3515625 76.0839828,7.42578051 76.4082031,7.57421875 C76.7324235,7.72265699 76.9296871,7.8671868 77,8.0078125 C77.0390627,8.07031281 77.0585938,8.14062461 77.0585938,8.21875 C77.0585938,8.28906285 77.0000006,8.48827961 76.8828125,8.81640625 C76.8203122,8.99609465 76.7890625,9.13671824 76.7890625,9.23828125 C76.7890625,9.43359473 76.8593743,9.62109285 77,9.80078125 C77.390627,8.91796434 77.9882772,8.23047121 78.7929688,7.73828125 C79.5976603,7.24609129 80.4921826,7 81.4765625,7 C82.2187537,7 82.9218717,7.13281117 83.5859375,7.3984375 C85.3437588,8.10156602 86.9257742,10.3085752 88.3320312,14.0195312 C88.6523454,14.871098 89.1171845,16.2617091 89.7265625,18.1914062 Z M107.300781,18.1914062 C107.347656,18.2851567 107.371094,18.3710934 107.371094,18.4492188 C107.371094,18.8242206 107.031253,19.0117188 106.351562,19.0117188 C105.859373,19.0117188 105.527345,18.8906262 105.355469,18.6484375 C104.917967,18.0312469 104.457034,16.8320402 103.972656,15.0507812 C103.457029,13.1523343 102.984377,11.8359412 102.554688,11.1015625 C101.804684,9.81249355 100.742194,9.0781259 99.3671875,8.8984375 C99.1874991,8.87499988 99.0351569,8.86328125 98.9101562,8.86328125 C97.5038992,8.86328125 96.3476608,9.6328048 95.4414062,11.171875 C94.6757774,12.476569 94.2929688,13.8867112 94.2929688,15.4023438 C94.2929688,15.8632836 94.3359371,16.3437475 94.421875,16.84375 C94.1249985,16.9921882 93.7500023,17.0664062 93.296875,17.0664062 C92.8437477,17.0664062 92.5039074,16.9531261 92.2773438,16.7265625 C92.2773438,16.2968729 92.2617189,15.7500033 92.2304688,15.0859375 C92.1601559,13.5937425 92.125,12.6562519 92.125,12.2734375 C92.125,10.1171767 92.4921838,8.47656813 93.2265625,7.3515625 C93.4062509,7.3515625 93.6582015,7.42578051 93.9824219,7.57421875 C94.3066422,7.72265699 94.5039059,7.8671868 94.5742188,8.0078125 C94.6132814,8.07031281 94.6328125,8.14062461 94.6328125,8.21875 C94.6328125,8.28906285 94.5742193,8.48827961 94.4570312,8.81640625 C94.3945309,8.99609465 94.3632812,9.13671824 94.3632812,9.23828125 C94.3632812,9.43359473 94.433593,9.62109285 94.5742188,9.80078125 C94.9648457,8.91796434 95.562496,8.23047121 96.3671875,7.73828125 C97.171879,7.24609129 98.0664013,7 99.0507812,7 C99.7929725,7 100.49609,7.13281117 101.160156,7.3984375 C102.917978,8.10156602 104.499993,10.3085752 105.90625,14.0195312 C106.226564,14.871098 106.691403,16.2617091 107.300781,18.1914062 Z M117.714844,12.3554688 L117.421875,15.0976562 C117.320312,16.050786 117.269531,16.7617164 117.269531,17.2304688 C117.269531,18.0039101 116.925785,18.9531194 116.238281,20.078125 C115.621091,21.0859425 114.925785,21.9296841 114.152344,22.609375 C113.847655,22.8750013 112.917977,23.1914044 111.363281,23.5585938 C110.535152,23.5507812 110.121094,23.3671893 110.121094,23.0078125 C110.121094,22.8359366 110.210937,22.6132826 110.390625,22.3398438 C110.531251,22.199218 110.726561,22.0976566 110.976562,22.0351562 L111.703125,21.8476562 C111.882813,21.800781 112.003906,21.7578127 112.066406,21.71875 C112.894535,21.1953099 113.589841,20.4843795 114.152344,19.5859375 C114.738284,18.6562454 115.050781,17.7187547 115.089844,16.7734375 C113.769525,16.2421848 112.617192,15.2539135 111.632812,13.8085938 C111.414061,13.4882796 111.019534,12.8164114 110.449219,11.7929688 C109.816403,10.6601506 109.5,10.0078134 109.5,9.8359375 C109.5,9.3749977 109.886715,9.14453125 110.660156,9.14453125 C111.066408,9.14453125 111.36328,9.26953 111.550781,9.51953125 C111.652344,9.65234441 112.187495,10.5507729 113.15625,12.2148438 C113.781253,13.2851616 114.472652,14.0507789 115.230469,14.5117188 C115.425782,13.6992147 115.539062,12.9375036 115.570312,12.2265625 C115.617188,11.1406196 115.714843,9.51954203 115.863281,7.36328125 C116.472659,6.83984113 116.945311,6.26953434 117.28125,5.65234375 C117.664064,7.0429757 117.855469,8.41796195 117.855469,9.77734375 C117.855469,10.621098 117.808594,11.4804644 117.714844,12.3554688 Z" id="Tonny" fill="#4A4A4A"></path>
                    <path d="M136.527344,35.4481027 C136.550781,35.7059165 136.566406,35.955914 136.574219,36.1981027 L136.585938,36.7020089 C136.640625,39.0848333 135.88282,41.4168413 134.3125,43.6981027 C134.070311,43.8777911 133.820314,43.9676339 133.5625,43.9676339 C133.109373,43.9676339 132.882812,43.6824805 132.882812,43.1121652 C133.562503,41.5809075 133.98828,40.5731051 134.160156,40.0887277 C134.558596,38.948097 134.757812,37.873889 134.757812,36.8660714 C134.757812,34.2098081 133.304702,31.670771 130.398438,29.2488839 C130.234374,29.1160708 129.101573,28.2606106 127,26.6824777 C126.828124,26.4793517 126.742188,26.2762287 126.742188,26.0731027 C126.742188,25.8152889 126.859374,25.6082597 127.09375,25.4520089 C127.304689,25.3113832 127.546874,25.2410714 127.820312,25.2410714 C129.093756,26.0067003 130.343744,26.928566 131.570312,28.0066964 C134.648453,30.7098349 136.30078,33.1902789 136.527344,35.4481027 Z" id=")" fill="#4A4A4A" transform="translate(131.665443, 34.604353) rotate(-402.000000) translate(-131.665443, -34.604353) "></path>
                    <path d="M146.433594,46.1204241 C145.371088,46.8469902 143.87501,47.6282324 141.945312,48.4641741 C137.929667,50.1985578 134.523451,51.2962031 131.726562,51.7571429 C130.906246,51.5930795 130.496094,51.3274572 130.496094,50.9602679 C130.496094,50.7024541 130.687498,50.4368317 131.070312,50.1633929 L135.371094,49.0032366 C137.019539,48.5579219 138.406244,48.11652 139.53125,47.6790179 C140.984382,47.1087025 142.281244,46.432928 143.421875,45.6516741 C142.593746,45.0032334 141.539069,44.3313651 140.257812,43.6360491 L136.566406,41.6438616 C135.136712,40.8704202 133.992192,40.1829271 133.132812,39.5813616 C133.226563,38.9485459 133.730464,38.6321429 134.644531,38.6321429 L134.820312,38.6321429 C134.898438,38.6399554 134.957031,38.6438616 134.996094,38.6438616 C136.042974,39.3235525 137.425773,40.1594816 139.144531,41.1516741 C141.175791,42.323555 142.511716,43.120422 143.152344,43.5422991 C144.519538,44.4407411 145.613277,45.3001075 146.433594,46.1204241 Z" id="&gt;" fill="#4A4A4A" transform="translate(138.464844, 45.194643) rotate(58.000000) translate(-138.464844, -45.194643) "></path>
                    <path d="M14.4277344,37.7939174 C13.0996027,39.6819477 11.068373,40.9449559 8.33398438,41.5829799 C7.21418711,41.8433979 6.06185488,41.9736049 4.87695312,41.9736049 C4.60351426,41.9736049 4.40169336,41.957329 4.27148438,41.9247768 C4.03059775,41.8661827 3.78320439,41.7392309 3.52929688,41.5439174 C3.37304609,40.5282873 3.29492188,39.4345483 3.29492188,38.2626674 C3.29492188,36.4267207 3.48372207,34.3010909 3.86132812,31.8857143 C3.92643262,31.4625351 4.10221211,30.3915823 4.38867188,28.6728237 C4.05012852,28.5230833 3.5146521,28.4384488 2.78222656,28.4189174 C2.04980103,28.3993861 1.51757979,28.3180067 1.18554688,28.1747768 C0.944660254,28.1161827 0.82421875,27.9045963 0.82421875,27.5400112 C0.82421875,27.1558947 0.993487891,26.866184 1.33203125,26.6708705 C6.01955469,26.6708705 10.1210762,28.5002793 13.6367188,32.1591518 C14.6393279,33.2008237 15.140625,34.3401352 15.140625,35.5771205 C15.140625,36.3779058 14.9029972,37.1168307 14.4277344,37.7939174 Z M13.0898438,36.7685268 C13.3372408,36.423473 13.4609375,36.0556381 13.4609375,35.6650112 C13.4609375,35.040008 13.1093785,34.2913176 12.40625,33.4189174 C12.3085933,33.2952189 11.9960964,32.9469151 11.46875,32.3739955 C9.97785713,30.7463832 8.21680703,29.7112373 6.18554688,29.2685268 C5.84049307,30.2125419 5.57356865,31.3681293 5.38476562,32.7353237 C5.15038945,34.4345509 5.03320312,36.8238499 5.03320312,39.9032924 C5.15690166,40.1116268 5.4075502,40.2157924 5.78515625,40.2157924 L5.94140625,40.2157924 C5.98697939,40.2157924 6.03580703,40.2125372 6.08789062,40.2060268 C7.46810586,40.2060268 8.77343135,39.9098058 10.0039062,39.3173549 C11.2799543,38.7053727 12.3085898,37.8557718 13.0898438,36.7685268 Z M29.4928385,40.8017299 C29.499349,40.8863658 29.0208381,41.0491245 28.0572916,41.2900112 C26.6445241,41.6415754 24.9453224,41.8173549 22.9596354,41.8173549 L21.9440104,41.8173549 C20.7395773,41.8173549 19.6165416,41.2411888 18.5748698,40.0888393 C18.1191383,39.4768571 17.891276,38.6956149 17.891276,37.7450893 C17.891276,35.2906499 18.9980358,33.5686619 21.2115885,32.5790737 C22.3509171,32.0712586 23.5130149,31.8173549 24.6979166,31.8173549 C25.4921914,31.8173549 26.2083301,32.1428725 26.8463541,32.7939174 C27.3020856,33.2561593 27.6568997,33.806284 27.9108073,34.444308 C27.9173177,34.4898812 27.9368488,34.561495 27.969401,34.6591518 C27.969401,34.7047249 27.9759114,34.7763388 27.9889323,34.8739955 C27.9694009,34.9000373 27.9238284,34.9423546 27.8522135,35.0009487 C25.293607,36.426737 22.5071765,37.4390967 19.4928385,38.038058 C19.4667967,38.0575894 19.453776,38.0966515 19.453776,38.1552455 C19.453776,38.4026426 19.5595692,38.7118843 19.7711588,39.0829799 C19.9827484,39.4540755 20.1959624,39.685193 20.4108073,39.7763393 C21.2571657,40.1213931 22.1621045,40.2939174 23.125651,40.2939174 C23.6985705,40.2939174 24.3528609,40.2255587 25.0885416,40.0888393 L27.2955729,39.678683 C28.1744835,39.5159218 28.7994773,39.4345424 29.1705729,39.4345424 C29.2942714,39.4345424 29.3691405,39.4736045 29.3951823,39.5517299 C29.3951823,39.5582404 29.4016926,39.6526405 29.4147135,39.834933 L29.4928385,40.8017299 Z M25.5084635,34.366183 C25.3782545,33.6305023 24.8671919,33.2626674 23.9752604,33.2626674 C23.7408842,33.2626674 23.4348977,33.3082399 23.0572916,33.3993862 C21.8658794,33.6858459 20.8828163,34.2815431 20.1080729,35.1864955 C19.7890609,35.5575911 19.6295573,35.9026398 19.6295573,36.2216518 C19.6295573,36.3909235 19.6881504,36.5211305 19.8053385,36.6122768 C20.3977894,36.4885783 21.039059,36.2769918 21.7291666,35.9775112 C22.0742204,35.8212604 22.7675729,35.5152739 23.8092448,35.0595424 C24.0110687,34.9749066 24.4179657,34.8023823 25.0299479,34.5419643 C25.0559897,34.5224329 25.2154933,34.4638398 25.5084635,34.366183 Z M41.9993489,32.4325893 C41.406898,34.2359837 40.5410212,36.2672134 39.4016926,38.5263393 C39.030597,39.2555096 38.5195344,40.2320623 37.8684895,41.4560268 C37.5104148,41.7424866 37.2955732,41.8857143 37.2239583,41.8857143 C36.3906208,41.4169619 35.6191441,40.7724371 34.9095051,39.9521205 C34.3496065,39.3075861 33.747399,38.4514748 33.1028645,37.3837612 L31.3548176,34.4931362 C31.3548176,34.4410526 31.3466797,34.3613008 31.3304036,34.2538783 C31.3141274,34.1464559 31.3059895,34.0667041 31.3059895,34.0146205 C31.3059895,33.5263368 31.5761691,33.2529021 32.1165364,33.194308 C32.6243514,33.6239977 33.1712209,34.2913087 33.7571614,35.1962612 C34.5644571,36.4462674 35.062499,37.1851923 35.251302,37.413058 C35.889326,38.1943119 36.5826785,38.7411815 37.3313801,39.053683 C37.9173206,38.5653993 38.4023417,37.83624 38.7864583,36.866183 C38.8190105,36.7815472 39.1282522,35.889629 39.7141926,34.1904018 C40.0722673,33.1552404 40.436847,32.4228258 40.8079426,31.9931362 C40.8535158,31.9215212 40.9544262,31.8857143 41.110677,31.8857143 C41.2539069,31.8857143 41.4361967,31.9280316 41.657552,32.0126674 C41.91797,32.1103241 42.048177,32.2177449 42.048177,32.334933 C42.048177,32.3674853 42.0319011,32.400037 41.9993489,32.4325893 Z M55.5605468,40.8017299 C55.5670572,40.8863658 55.0885464,41.0491245 54.1249999,41.2900112 C52.7122324,41.6415754 51.0130306,41.8173549 49.0273436,41.8173549 L48.0117186,41.8173549 C46.8072855,41.8173549 45.6842499,41.2411888 44.642578,40.0888393 C44.1868466,39.4768571 43.9589843,38.6956149 43.9589843,37.7450893 C43.9589843,35.2906499 45.065744,33.5686619 47.2792968,32.5790737 C48.4186254,32.0712586 49.5807231,31.8173549 50.7656249,31.8173549 C51.5598997,31.8173549 52.2760384,32.1428725 52.9140624,32.7939174 C53.3697938,33.2561593 53.724608,33.806284 53.9785155,34.444308 C53.985026,34.4898812 54.004557,34.561495 54.0371093,34.6591518 C54.0371093,34.7047249 54.0436196,34.7763388 54.0566405,34.8739955 C54.0371092,34.9000373 53.9915367,34.9423546 53.9199218,35.0009487 C51.3613152,36.426737 48.5748847,37.4390967 45.5605468,38.038058 C45.534505,38.0575894 45.5214843,38.0966515 45.5214843,38.1552455 C45.5214843,38.4026426 45.6272775,38.7118843 45.8388671,39.0829799 C46.0504567,39.4540755 46.2636707,39.685193 46.4785155,39.7763393 C47.3248739,40.1213931 48.2298128,40.2939174 49.1933593,40.2939174 C49.7662788,40.2939174 50.4205691,40.2255587 51.1562499,40.0888393 L53.3632811,39.678683 C54.2421918,39.5159218 54.8671855,39.4345424 55.2382811,39.4345424 C55.3619797,39.4345424 55.4368487,39.4736045 55.4628905,39.5517299 C55.4628905,39.5582404 55.4694009,39.6526405 55.4824218,39.834933 L55.5605468,40.8017299 Z M51.5761718,34.366183 C51.4459628,33.6305023 50.9349002,33.2626674 50.0429686,33.2626674 C49.8085925,33.2626674 49.5026059,33.3082399 49.1249999,33.3993862 C47.9335877,33.6858459 46.9505246,34.2815431 46.1757811,35.1864955 C45.8567691,35.5575911 45.6972655,35.9026398 45.6972655,36.2216518 C45.6972655,36.3909235 45.7558587,36.5211305 45.8730468,36.6122768 C46.4654976,36.4885783 47.1067673,36.2769918 47.7968749,35.9775112 C48.1419287,35.8212604 48.8352811,35.5152739 49.876953,35.0595424 C50.0787769,34.9749066 50.4856739,34.8023823 51.0976561,34.5419643 C51.1236979,34.5224329 51.2832015,34.4638398 51.5761718,34.366183 Z M59.8834634,32.1493862 L59.6686196,35.6357143 C59.5970047,36.7945742 59.5611978,37.7678718 59.5611978,38.5556362 C59.5611978,39.8056424 59.6328116,40.9058918 59.7760415,41.8564174 C59.3789041,41.9996473 59.1315107,42.0907922 59.033854,42.1298549 C58.773436,42.247043 58.5585944,42.3935259 58.3893228,42.569308 C58.1744779,41.4885735 58.0670571,40.0660616 58.0670571,38.3017299 C58.0670571,36.1207294 58.2591125,32.9013606 58.643229,28.6435268 C58.7929693,28.6370163 58.9003901,28.6370163 58.9654946,28.6435268 C59.3496111,28.6825895 59.6881494,28.8453483 59.9811196,29.131808 C59.9811196,30.0888441 59.9485679,31.0946934 59.8834634,32.1493862 Z M75.8763019,38.9560268 C75.4010391,41.0133287 73.8776168,42.0419643 71.3059894,42.0419643 C69.6653562,42.0419643 68.3535203,41.8987366 67.3704425,41.6122768 C66.159499,41.2607125 65.2252635,40.5901463 64.5677081,39.600558 C63.942705,38.6630533 63.6302081,37.5465281 63.6302081,36.2509487 C63.6302081,35.3264649 63.8841118,34.5094158 64.3919269,33.7997768 C65.6224018,32.0745077 67.1588448,31.2118862 69.0013019,31.2118862 C70.0950574,31.2118862 71.384107,31.5276382 72.8684894,32.1591518 C73.8906299,32.5953519 74.6848928,33.3049802 75.2513019,34.288058 C75.7851587,35.2125418 76.0520831,36.2541981 76.0520831,37.413058 C76.0520831,37.933894 75.99349,38.4482117 75.8763019,38.9560268 Z M74.4212238,38.4970424 C74.583985,38.2040722 74.6653644,37.8622787 74.6653644,37.4716518 C74.6653644,36.7489919 74.4082055,36.0198325 73.89388,35.2841518 C73.4511695,34.6526382 72.9335965,34.1578515 72.3411456,33.7997768 C71.1757752,33.0966483 70.023443,32.7450893 68.8841144,32.7450893 C67.3541588,32.7450893 66.3645854,33.370083 65.9153644,34.6200893 C65.5442688,35.6487403 65.3587238,36.4234721 65.3587238,36.944308 C65.3587238,37.3609768 65.4303376,37.7678738 65.5735675,38.1650112 C65.8925795,39.0439218 66.6575458,39.603812 67.8684894,39.8446987 C67.9531252,39.86423 68.2395807,39.9032921 68.7278644,39.9618862 L69.0403644,40.0009487 C70.3424542,40.1637099 71.097655,40.2450893 71.3059894,40.2450893 C72.7382882,40.2450893 73.7766893,39.6624128 74.4212238,38.4970424 Z M86.7519529,36.6708705 C86.667317,37.1721751 86.5436204,37.5139686 86.3808591,37.6962612 C85.5084589,38.6598076 84.2780025,39.2001668 82.6894529,39.3173549 C82.2532528,39.3499072 81.7714868,39.3336313 81.2441404,39.2685268 C81.2701822,39.5354552 81.4394513,41.0653878 81.7519529,43.8583705 C81.550129,44.0601945 81.2864597,44.1708704 80.9609373,44.1904018 C80.8502596,44.1969122 80.5963559,44.2066778 80.1992185,44.2196987 C79.7955707,42.3707311 79.4830738,39.9000527 79.2617185,36.8075893 C79.1249991,34.8674754 79.1022128,33.28546 79.1933591,32.0614955 C80.3717504,31.748994 81.4166619,31.5927455 82.3281248,31.5927455 C84.0924565,31.5927455 85.417313,32.0972978 86.3027341,33.1064174 C86.6087252,33.4579817 86.7910151,34.0504237 86.8496091,34.8837612 C86.8886718,35.4501702 86.8561201,36.0458674 86.7519529,36.6708705 Z M84.6816404,33.8486049 C83.6334581,33.2952167 82.7285192,33.0445682 81.9667966,33.0966518 C81.7128891,33.1161831 81.322268,33.1910522 80.7949216,33.3212612 C80.8014321,33.7444404 80.8209631,34.1969098 80.8535154,34.678683 C80.8795572,35.1018622 80.9641918,36.0653943 81.1074216,37.569308 C81.9342487,37.6344125 82.4908837,37.6571988 82.7773435,37.6376674 C83.552087,37.5855838 84.2389291,37.2730869 84.8378904,36.7001674 C85.0592457,36.491833 85.1373699,35.9449635 85.0722654,35.0595424 C85.0266922,34.3629243 84.8964852,33.9592825 84.6816404,33.8486049 Z M101.338541,40.8017299 C101.345052,40.8863658 100.866541,41.0491245 99.9029945,41.2900112 C98.490227,41.6415754 96.7910253,41.8173549 94.8053383,41.8173549 L93.7897133,41.8173549 C92.5852802,41.8173549 91.4622445,41.2411888 90.4205726,40.0888393 C89.9648412,39.4768571 89.7369789,38.6956149 89.7369789,37.7450893 C89.7369789,35.2906499 90.8437387,33.5686619 93.0572914,32.5790737 C94.19662,32.0712586 95.3587178,31.8173549 96.5436195,31.8173549 C97.3378943,31.8173549 98.054033,32.1428725 98.692057,32.7939174 C99.1477885,33.2561593 99.5026026,33.806284 99.7565101,34.444308 C99.7630206,34.4898812 99.7825516,34.561495 99.8151039,34.6591518 C99.8151039,34.7047249 99.8216142,34.7763388 99.8346351,34.8739955 C99.8151038,34.9000373 99.7695313,34.9423546 99.6979164,35.0009487 C97.1393098,36.426737 94.3528794,37.4390967 91.3385414,38.038058 C91.3124996,38.0575894 91.2994789,38.0966515 91.2994789,38.1552455 C91.2994789,38.4026426 91.4052721,38.7118843 91.6168617,39.0829799 C91.8284513,39.4540755 92.0416653,39.685193 92.2565101,39.7763393 C93.1028685,40.1213931 94.0078074,40.2939174 94.9713539,40.2939174 C95.5442734,40.2939174 96.1985638,40.2255587 96.9342445,40.0888393 L99.1412758,39.678683 C100.020186,39.5159218 100.64518,39.4345424 101.016276,39.4345424 C101.139974,39.4345424 101.214843,39.4736045 101.240885,39.5517299 C101.240885,39.5582404 101.247395,39.6526405 101.260416,39.834933 L101.338541,40.8017299 Z M97.3541664,34.366183 C97.2239574,33.6305023 96.7128948,33.2626674 95.8209633,33.2626674 C95.5865871,33.2626674 95.2806006,33.3082399 94.9029945,33.3993862 C93.7115823,33.6858459 92.7285192,34.2815431 91.9537758,35.1864955 C91.6347638,35.5575911 91.4752601,35.9026398 91.4752601,36.2216518 C91.4752601,36.3909235 91.5338533,36.5211305 91.6510414,36.6122768 C92.2434923,36.4885783 92.8847619,36.2769918 93.5748695,35.9775112 C93.9199233,35.8212604 94.6132758,35.5152739 95.6549476,35.0595424 C95.8567716,34.9749066 96.2636685,34.8023823 96.8756508,34.5419643 C96.9016926,34.5224329 97.0611962,34.4638398 97.3541664,34.366183 Z M113.630208,33.7314174 C113.22005,33.3538114 112.695966,33.1226939 112.057942,33.038058 C111.166011,32.9208699 110.401045,32.9859735 109.763021,33.2333705 C109.196611,33.4482154 108.545576,33.8778986 107.809896,34.522433 C106.820307,35.3883228 106.113934,36.244434 105.690755,37.0907924 C105.61914,37.6441806 105.609374,38.2854502 105.661458,39.0146205 C105.6875,39.3922266 105.77539,40.1734688 105.92513,41.3583705 C106.003255,41.9703528 106.055338,42.4358429 106.08138,42.7548549 L104.782552,42.8427455 C104.723958,42.1331066 104.629558,41.3062919 104.499349,40.3622768 L104.069661,37.3154018 C103.822264,35.5640909 103.701823,34.1187929 103.708333,32.9794643 L103.942708,32.9696987 L104.098958,32.9404018 C104.372397,32.7776406 104.567707,32.693006 104.684896,32.6864955 C104.815104,32.6799851 104.922525,32.7190472 105.007161,32.803683 L105.153646,34.8056362 C106.618497,32.6051043 108.467436,31.4267307 110.700521,31.2704799 C111.091147,31.2444381 111.660803,31.2672243 112.409505,31.3388393 C113.268884,31.4234751 113.786457,31.5471718 113.962239,31.709933 C114.027344,32.0484764 114.059896,32.3772491 114.059896,32.6962612 C114.059896,33.3538165 113.916668,33.6988652 113.630208,33.7314174 Z" id="Developer" fill="#5EB7F1"></path>
                </g>
                <g id="arrow_Sunm" transform="translate(409.000000, 165.000000)">
                    <path d="M55.8632812,17.2304688 C55.0664023,18.1914111 53.6796974,18.7773427 51.703125,18.9882812 C50.9687463,19.0664066 50.0625054,19.1054688 48.984375,19.1054688 C48.6171857,19.1054688 47.9960981,19.0976563 47.1210938,19.0820312 L45.8085938,19.0585938 C44.9335894,19.0429687 43.9023497,18.8281271 42.7148438,18.4140625 L39.4921875,17.2890625 C38.6406207,17.1015616 38.2148438,16.8242206 38.2148438,16.4570312 C38.2148438,16.2226551 38.3710922,15.98047 38.6835938,15.7304688 C38.9414075,15.5195302 39.2031237,15.3710942 39.46875,15.2851562 C39.5859381,15.2460936 39.695312,15.2265625 39.796875,15.2265625 C40.1250016,15.2265625 40.6640588,15.402342 41.4140625,15.7539063 C42.5937559,16.3085965 43.3007801,16.632812 43.5351562,16.7265625 C44.4257857,17.0859393 45.1835906,17.265625 45.8085938,17.265625 C46.2226583,17.265625 46.7421844,17.2812498 47.3671875,17.3125 C48.7734445,17.3828129 49.6328109,17.4179688 49.9453125,17.4179688 C51.1484435,17.4179688 52.0585907,17.2734389 52.6757812,16.984375 C53.4648477,16.6171857 53.9414054,15.9726609 54.1054688,15.0507812 C54.1210938,14.9648433 54.1289062,14.8906253 54.1289062,14.828125 C54.1289062,14.0624962 53.1328225,13.1914111 51.140625,12.2148438 C50.3515586,11.8398419 49.1679766,11.267582 47.5898438,10.4980469 C46.0117109,9.72851178 44.7382861,8.97265996 43.7695312,8.23046875 C42.519525,7.26952645 41.7539077,6.31250477 41.4726562,5.359375 C41.4570312,5.24999945 41.4492188,5.17187523 41.4492188,5.125 C41.4492188,4.43749656 42.027338,3.75390965 43.1835938,3.07421875 C44.128911,2.51952848 45.2695246,2.09375148 46.6054688,1.796875 C47.2226593,1.66406184 47.8437469,1.53125066 48.46875,1.3984375 C50.570323,0.960935312 52.1835881,0.7421875 53.3085938,0.7421875 C54.0351599,0.7421875 54.3984375,1.08984027 54.3984375,1.78515625 C53.7187466,2.24609605 52.449228,2.64452957 50.5898438,2.98046875 L46.265625,3.765625 C44.8984307,4.01562625 44.2148438,4.49999641 44.2148438,5.21875 L44.2148438,5.359375 C44.2148438,5.3984377 44.2304686,5.46484328 44.2617188,5.55859375 C44.3945319,6.18359687 45.1601493,6.87890242 46.5585938,7.64453125 C46.7460947,7.74609426 48.2304548,8.54296129 51.0117188,10.0351562 C52.9492284,11.0742239 54.3515582,11.9726525 55.21875,12.7304688 C55.5859393,12.9648449 55.8828114,13.3867157 56.109375,13.9960938 C56.312501,14.5273464 56.4140625,15.0468725 56.4140625,15.5546875 C56.4140625,16.2265659 56.2304706,16.785154 55.8632812,17.2304688 Z M71.421875,18.859375 C71.0234355,18.453123 70.7226573,18.121095 70.5195312,17.8632812 C70.1445294,17.3867164 69.8476573,16.8671903 69.6289062,16.3046875 C69.3945301,16.4375007 68.8242233,16.8007783 67.9179688,17.3945312 C67.2070277,17.8554711 66.5937526,18.1953114 66.078125,18.4140625 C65.3359338,18.7265641 64.6015661,18.8828125 63.875,18.8828125 L63.5,18.8828125 C63.4140621,18.8671874 63.3476565,18.859375 63.3007812,18.859375 C61.2382709,18.859375 60.2070312,15.8633112 60.2070312,9.87109375 L60.2070312,8.79296875 C60.2070312,8.05077754 60.7929629,7.67187508 61.9648438,7.65625 C62.1914074,8.25000297 62.3242186,9.24608676 62.3632812,10.6445312 C62.417969,12.4257902 62.472656,13.5117168 62.5273438,13.9023438 C62.7070321,15.1210998 63.1171843,16.0078097 63.7578125,16.5625 C63.9140633,16.664063 64.1015614,16.7148438 64.3203125,16.7148438 C65.3828178,16.7148438 66.6015556,16.0546941 67.9765625,14.734375 C69.1015681,13.6562446 69.6640625,12.0664168 69.6640625,9.96484375 C69.6640625,9.27734031 69.6523439,8.8437509 69.6289062,8.6640625 C69.5976561,8.45312395 69.5703126,8.16797055 69.546875,7.80859375 C69.5312499,7.62890535 69.6679673,7.46484449 69.9570312,7.31640625 C70.2070325,7.18359309 70.4296865,7.1171875 70.625,7.1171875 C70.8203135,7.1171875 71.0078116,7.15624961 71.1875,7.234375 C71.5234392,7.45312609 71.6914062,8.07030742 71.6914062,9.0859375 C71.6914062,9.57031492 71.6445317,10.2109335 71.5507812,11.0078125 C71.3476552,12.7421962 71.2460938,13.6914054 71.2460938,13.8554688 C71.2460938,13.9726568 71.25,14.0546873 71.2578125,14.1015625 C71.2968752,14.9687543 71.3984367,15.5781232 71.5625,15.9296875 C71.7031257,16.2421891 71.9804667,16.593748 72.3945312,16.984375 C72.8945337,17.4609399 73.2539052,17.8476548 73.4726562,18.1445312 C73.1054669,18.6132836 72.42188,18.8515625 71.421875,18.859375 Z M90.9765625,18.1914062 C91.0234377,18.2851567 91.046875,18.3710934 91.046875,18.4492188 C91.046875,18.8242206 90.7070346,19.0117188 90.0273438,19.0117188 C89.5351538,19.0117188 89.2031259,18.8906262 89.03125,18.6484375 C88.5937478,18.0312469 88.1328149,16.8320402 87.6484375,15.0507812 C87.1328099,13.1523343 86.6601584,11.8359412 86.2304688,11.1015625 C85.480465,9.81249355 84.4179756,9.0781259 83.0429688,8.8984375 C82.8632804,8.87499988 82.7109381,8.86328125 82.5859375,8.86328125 C81.1796805,8.86328125 80.023442,9.6328048 79.1171875,11.171875 C78.3515587,12.476569 77.96875,13.8867112 77.96875,15.4023438 C77.96875,15.8632836 78.0117183,16.3437475 78.0976562,16.84375 C77.8007798,16.9921882 77.4257835,17.0664062 76.9726562,17.0664062 C76.519529,17.0664062 76.1796886,16.9531261 75.953125,16.7265625 C75.953125,16.2968729 75.9375002,15.7500033 75.90625,15.0859375 C75.8359371,13.5937425 75.8007812,12.6562519 75.8007812,12.2734375 C75.8007812,10.1171767 76.1679651,8.47656813 76.9023438,7.3515625 C77.0820321,7.3515625 77.3339828,7.42578051 77.6582031,7.57421875 C77.9824235,7.72265699 78.1796871,7.8671868 78.25,8.0078125 C78.2890627,8.07031281 78.3085938,8.14062461 78.3085938,8.21875 C78.3085938,8.28906285 78.2500006,8.48827961 78.1328125,8.81640625 C78.0703122,8.99609465 78.0390625,9.13671824 78.0390625,9.23828125 C78.0390625,9.43359473 78.1093743,9.62109285 78.25,9.80078125 C78.640627,8.91796434 79.2382772,8.23047121 80.0429688,7.73828125 C80.8476603,7.24609129 81.7421826,7 82.7265625,7 C83.4687537,7 84.1718717,7.13281117 84.8359375,7.3984375 C86.5937588,8.10156602 88.1757742,10.3085752 89.5820312,14.0195312 C89.9023454,14.871098 90.3671845,16.2617091 90.9765625,18.1914062 Z M112.3125,19.8085938 C112.124999,20.0898452 111.761721,20.2304688 111.222656,20.2304688 L110.976562,20.2304688 C110.929687,20.2304688 110.847657,20.2265625 110.730469,20.21875 C110.691406,19.8671857 110.671875,19.5039081 110.671875,19.1289062 C110.671875,18.7304668 110.691406,18.1367227 110.730469,17.3476562 C110.769531,16.5585898 110.789062,15.9648457 110.789062,15.5664062 C110.789062,14.2929624 110.664064,13.3476593 110.414062,12.7304688 C110.015623,11.7539014 109.289068,11.265625 108.234375,11.265625 C107.195307,11.265625 106.359378,11.76562 105.726562,12.765625 C105.65625,12.8750005 105.179692,13.9218651 104.296875,15.90625 C103.710935,17.2187566 103.031254,18.1210913 102.257812,18.6132812 C102.132812,18.6210938 101.800784,18.6640621 101.261719,18.7421875 C100.949217,18.7421875 100.648439,18.5195335 100.359375,18.0742188 L99.609375,14.6054688 C99.2499982,12.9257729 98.8984392,11.6718791 98.5546875,10.84375 C98.0703101,9.6640566 97.5429716,9.07421875 96.9726562,9.07421875 L96.7851562,9.07421875 C96.7695312,9.07421875 96.7265629,9.08984359 96.65625,9.12109375 C95.6484325,9.5117207 95.1445312,10.7656144 95.1445312,12.8828125 C95.1445312,13.3515648 95.1640623,13.9218716 95.203125,14.59375 C95.2968755,16.2187581 95.34375,17.2382792 95.34375,17.6523438 C95.34375,18.4492227 95.289063,19.1679655 95.1796875,19.8085938 L93.6914062,19.8085938 C93.5039053,18.4413994 93.4140625,16.1523598 93.421875,12.9414062 L93.4335938,8.23046875 C93.9414088,8.20703113 94.3945293,8.00000195 94.7929688,7.609375 C94.9882822,7.41406152 95.3828095,7.02734664 95.9765625,6.44921875 C96.3984396,6.04296672 96.8085918,5.83984375 97.2070312,5.83984375 C97.3242193,5.83984375 97.4570305,5.86328102 97.6054688,5.91015625 C98.8007872,6.28515813 99.8437455,7.99607852 100.734375,11.0429688 L101.789062,14.6640625 C102.171877,14.2421854 102.781246,13.4687556 103.617188,12.34375 C104.375004,11.3203074 105.023435,10.5585963 105.5625,10.0585938 C106.64063,9.05077621 107.718745,8.546875 108.796875,8.546875 C110.22657,8.546875 111.343746,9.44920973 112.148438,11.2539062 C112.773441,12.6523507 113.085938,14.1679606 113.085938,15.8007812 C113.085938,17.2695386 112.828128,18.6054627 112.3125,19.8085938 Z" id="Sunm" fill="#4A4A4A"></path>
                    <path d="M24.2851562,19.9557505 C24.035155,20.4791906 23.6328153,21.2252769 23.078125,22.1940318 C22.4218717,23.3346625 21.9804699,24.1432481 21.7539062,24.619813 C20.9804649,26.2604462 20.59375,27.9323045 20.59375,29.635438 C20.59375,32.0417 21.3398363,34.2604279 22.8320312,36.291688 C22.8789065,36.3541883 22.9023438,36.4284063 22.9023438,36.5143443 C22.9023438,36.8893461 22.5312537,37.3463728 21.7890625,37.885438 C21.4843735,37.5885615 21.1132834,37.0651293 20.6757812,36.3151255 C19.3710872,34.0807393 18.71875,32.0495097 18.71875,30.2213755 L18.71875,29.9518443 C18.71875,29.9362192 18.7265624,29.8424701 18.7421875,29.6705943 C18.8750007,28.0924614 18.9804684,27.0846589 19.0585938,26.6471568 C19.3398452,25.0221486 20.2890544,22.9987314 21.90625,20.5768443 C22.1953139,20.2565302 22.4062493,20.0416886 22.5390625,19.932313 C22.8906268,19.6432491 23.2070298,19.4987193 23.4882812,19.4987193 C23.7851577,19.4987193 24.0507801,19.6510615 24.2851562,19.9557505 Z" id="(" fill="#4A4A4A" transform="translate(21.501953, 28.692079) rotate(56.000000) translate(-21.501953, -28.692079) "></path>
                    <path d="M18.4335938,32.4780353 C17.3710884,33.2046015 15.8750096,33.9858437 13.9453125,34.8217853 C9.92966742,36.556169 6.52345148,37.6538143 3.7265625,38.1147541 C2.9062459,37.9506908 2.49609375,37.6850684 2.49609375,37.3178791 C2.49609375,37.0600653 2.68749809,36.794443 3.0703125,36.5210041 L7.37109375,35.3608478 C9.01953949,34.9155331 10.4062444,34.4741313 11.53125,34.0366291 C12.9843823,33.4663137 14.2812443,32.7905393 15.421875,32.0092853 C14.5937459,31.3608446 13.5390689,30.6889763 12.2578125,29.9936603 L8.56640625,28.0014728 C7.1367116,27.2280315 5.9921918,26.5405384 5.1328125,25.9389728 C5.22656297,25.3061572 5.73046418,24.9897541 6.64453125,24.9897541 L6.8203125,24.9897541 C6.89843789,24.9975666 6.95703105,25.0014728 6.99609375,25.0014728 C8.04297398,25.6811637 9.42577266,26.5170929 11.1445312,27.5092853 C13.1757914,28.6811662 14.5117155,29.4780332 15.1523438,29.8999103 C16.5195381,30.7983523 17.6132771,31.6577187 18.4335938,32.4780353 Z" id="&gt;" fill="#4A4A4A" transform="translate(10.464844, 31.552254) rotate(137.000000) translate(-10.464844, -31.552254) "></path>
                    <path d="M52.4277344,37.7114818 C51.0996027,39.5995121 49.068373,40.8625203 46.3339844,41.5005443 C45.2141871,41.7609623 44.0618549,41.8911693 42.8769531,41.8911693 C42.6035143,41.8911693 42.4016934,41.8748934 42.2714844,41.8423412 C42.0305978,41.7837471 41.7832044,41.6567953 41.5292969,41.4614818 C41.3730461,40.4458517 41.2949219,39.3521127 41.2949219,38.1802318 C41.2949219,36.3442851 41.4837221,34.2186553 41.8613281,31.8032787 C41.9264326,31.3800995 42.1022121,30.3091467 42.3886719,28.5903881 C42.0501285,28.4406477 41.5146521,28.3560132 40.7822266,28.3364818 C40.049801,28.3169505 39.5175798,28.2355711 39.1855469,28.0923412 C38.9446603,28.0337471 38.8242188,27.8221607 38.8242188,27.4575756 C38.8242188,27.0734591 38.9934879,26.7837484 39.3320312,26.5884349 C44.0195547,26.5884349 48.1210762,28.4178437 51.6367188,32.0767162 C52.6393279,33.1183881 53.140625,34.2576996 53.140625,35.4946849 C53.140625,36.2954702 52.9029972,37.0343951 52.4277344,37.7114818 Z M51.0898438,36.6860912 C51.3372408,36.3410374 51.4609375,35.9732025 51.4609375,35.5825756 C51.4609375,34.9575724 51.1093785,34.208882 50.40625,33.3364818 C50.3085933,33.2127833 49.9960964,32.8644795 49.46875,32.2915599 C47.9778571,30.6639476 46.216807,29.6288017 44.1855469,29.1860912 C43.8404931,30.1301063 43.5735687,31.2856937 43.3847656,32.6528881 C43.1503895,34.3521153 43.0332031,36.7414143 43.0332031,39.8208568 C43.1569017,40.0291912 43.4075502,40.1333568 43.7851562,40.1333568 L43.9414062,40.1333568 C43.9869794,40.1333568 44.035807,40.1301016 44.0878906,40.1235912 C45.4681059,40.1235912 46.7734313,39.8273702 48.0039062,39.2349193 C49.2799543,38.6229371 50.3085898,37.7733362 51.0898438,36.6860912 Z M67.4928385,40.7192943 C67.499349,40.8039302 67.0208381,40.9666889 66.0572916,41.2075756 C64.6445241,41.5591398 62.9453224,41.7349193 60.9596354,41.7349193 L59.9440104,41.7349193 C58.7395773,41.7349193 57.6165416,41.1587532 56.5748698,40.0064037 C56.1191383,39.3944215 55.891276,38.6131793 55.891276,37.6626537 C55.891276,35.2082143 56.9980358,33.4862263 59.2115885,32.4966381 C60.3509171,31.988823 61.5130149,31.7349193 62.6979166,31.7349193 C63.4921914,31.7349193 64.2083301,32.0604369 64.8463541,32.7114818 C65.3020856,33.1737237 65.6568997,33.7238484 65.9108073,34.3618724 C65.9173177,34.4074456 65.9368488,34.4790595 65.969401,34.5767162 C65.969401,34.6222893 65.9759114,34.6939032 65.9889323,34.7915599 C65.9694009,34.8176017 65.9238284,34.859919 65.8522135,34.9185131 C63.293607,36.3443014 60.5071765,37.3566611 57.4928385,37.9556224 C57.4667967,37.9751538 57.453776,38.0142159 57.453776,38.0728099 C57.453776,38.320207 57.5595692,38.6294487 57.7711588,39.0005443 C57.9827484,39.3716399 58.1959624,39.6027574 58.4108073,39.6939037 C59.2571657,40.0389575 60.1621045,40.2114818 61.125651,40.2114818 C61.6985705,40.2114818 62.3528609,40.1431231 63.0885416,40.0064037 L65.2955729,39.5962474 C66.1744835,39.4334862 66.7994773,39.3521068 67.1705729,39.3521068 C67.2942714,39.3521068 67.3691405,39.3911689 67.3951823,39.4692943 C67.3951823,39.4758048 67.4016926,39.5702049 67.4147135,39.7524974 L67.4928385,40.7192943 Z M63.5084635,34.2837474 C63.3782545,33.5480667 62.8671919,33.1802318 61.9752604,33.1802318 C61.7408842,33.1802318 61.4348977,33.2258043 61.0572916,33.3169506 C59.8658794,33.6034103 58.8828163,34.1991075 58.1080729,35.1040599 C57.7890609,35.4751555 57.6295573,35.8202042 57.6295573,36.1392162 C57.6295573,36.3084879 57.6881504,36.4386949 57.8053385,36.5298412 C58.3977894,36.4061427 59.039059,36.1945562 59.7291666,35.8950756 C60.0742204,35.7388248 60.7675729,35.4328383 61.8092448,34.9771068 C62.0110687,34.892471 62.4179657,34.7199467 63.0299479,34.4595287 C63.0559897,34.4399973 63.2154933,34.3814042 63.5084635,34.2837474 Z M78.4759114,40.0357006 C77.9876277,41.0122679 76.9134197,41.5981996 75.2532551,41.7935131 C74.6998669,41.8586176 74.01628,41.8911693 73.2024739,41.8911693 L72.6360676,41.8911693 L72.313802,41.8814037 L70.516927,41.8814037 C70.0416642,41.5168185 69.8040364,41.0741146 69.8040364,40.5532787 C69.8040364,40.4946846 69.8170571,40.3937742 69.8430989,40.2505443 C69.8756511,40.2179921 69.9277339,40.2017162 69.9993489,40.2017162 L70.673177,40.3286693 C70.7773442,40.3482007 71.3209585,40.3807524 72.3040364,40.4263256 C72.863935,40.4523674 73.2578113,40.4653881 73.485677,40.4653881 C75.5559999,40.4653881 76.6497389,39.9771117 76.766927,39.0005443 C76.8190106,38.5708547 75.7089957,37.9588816 73.4368489,37.1646068 C73.1568996,37.0669501 72.3431056,36.7935153 70.9954426,36.3442943 C70.7610665,36.2661689 70.5364593,36.1099205 70.3216145,35.8755443 C70.0416652,35.5695532 69.9016926,35.2310149 69.9016926,34.8599193 C69.9016926,34.768773 69.9179685,34.6515867 69.9505208,34.5083568 C70.243491,33.6815298 71.5911337,32.8937772 73.9934895,32.1450756 C74.957036,31.8455949 75.8229127,31.6502844 76.5911458,31.5591381 L76.7473958,32.6138256 C76.51953,32.8156495 76.0084674,33.0304911 75.2141926,33.2583568 C74.2897088,33.5187748 73.680991,33.7238509 73.3880208,33.8735912 C72.7955699,34.1730719 72.4993489,34.5571826 72.4993489,35.0259349 C72.4993489,35.3709887 73.1634047,35.6867408 74.4915364,35.9732006 C75.3378948,36.1554931 75.8912747,36.2987209 76.1516926,36.4028881 C76.7376331,36.5786702 77.2812474,36.9237188 77.782552,37.4380443 C78.361982,38.0304952 78.6516926,38.6359579 78.6516926,39.2544506 C78.6516926,39.5409103 78.5930995,39.8013244 78.4759114,40.0357006 Z M83.0429686,29.0298412 C82.3919237,29.0298412 81.8743508,28.8442962 81.4902343,28.4732006 C81.4511716,28.4341379 81.4316405,28.3657792 81.4316405,28.2681224 C81.4316405,27.9881731 81.5341785,27.7586832 81.7392577,27.5796459 C81.9443368,27.4006085 82.1901026,27.3110912 82.4765624,27.3110912 C82.658855,27.3110912 82.9518208,27.5584845 83.3554686,28.0532787 C83.5833344,28.333228 83.6809896,28.5578351 83.6484374,28.7271068 C83.6093747,28.9289307 83.4075538,29.0298412 83.0429686,29.0298412 Z M84.3320311,41.7935131 C84.1888012,42.0083579 83.8925803,42.1157787 83.4433593,42.1157787 C83.2285144,42.1157787 82.997397,42.0897373 82.7499999,42.0376537 C82.5611969,40.2993637 82.3854174,38.4764653 82.2226561,36.5689037 C82.1249994,35.442596 82.0761718,34.4595329 82.0761718,33.6196849 C82.0761718,32.6821803 82.1347649,31.9530209 82.251953,31.4321849 C82.5058605,31.171767 82.736978,31.0415599 82.9453124,31.0415599 C83.1536468,31.0415599 83.3880194,31.1685118 83.6484374,31.4224193 L83.9218749,33.9419506 C84.2408869,36.8846736 84.4003905,39.0526207 84.4003905,40.4458568 C84.4003905,41.0122659 84.3776043,41.4614802 84.3320311,41.7935131 Z M100.402995,39.7915599 C100.402995,39.9478107 100.411133,40.183811 100.427409,40.4995678 C100.443685,40.8153245 100.451823,41.0513248 100.451823,41.2075756 C100.451823,41.7284115 100.389974,42.1678602 100.266276,42.5259349 C100.123046,42.8254156 99.9635424,42.9751537 99.7877603,42.9751537 C99.4882796,42.9295805 99.2473966,42.73427 99.065104,42.3892162 C98.9934891,42.2524968 98.8795579,41.9465102 98.7233071,41.4712474 C98.0266891,41.2303608 97.0891984,41.1099193 95.9108071,41.1099193 C95.6503892,41.1099193 95.2613957,41.1180573 94.7438149,41.1343334 C94.2262342,41.1506095 93.8372407,41.1587474 93.5768228,41.1587474 C91.3958223,41.1587474 89.7324274,40.6151331 88.5865884,39.5278881 C88.378254,39.0721566 88.2740884,38.5773699 88.2740884,38.0435131 C88.2740884,36.6958501 88.8372338,35.3351866 89.9635415,33.9614818 C91.2721418,32.3664218 92.9811091,31.5689037 95.0904946,31.5689037 C95.5462261,31.9660411 95.7740884,32.2817931 95.7740884,32.5161693 C95.7740884,32.6789305 95.6731779,32.8579652 95.471354,33.0532787 C95.3541659,33.0207264 95.2760417,33.0044506 95.236979,33.0044506 C95.0546864,33.0370028 94.7747413,33.0728097 94.3971353,33.1118724 C92.5351468,33.6327084 91.1191453,34.7882958 90.1490884,36.5786693 C90.0058585,37.0344008 89.9342446,37.3957253 89.9342446,37.6626537 C89.9342446,38.1900001 90.1132793,38.5838763 90.471354,38.8442943 C91.4349005,39.5474228 92.6718673,39.8989818 94.1822915,39.8989818 C95.2434947,39.8989818 96.7148342,39.6776299 98.596354,39.2349193 C99.0130228,39.0070536 99.221354,38.6522394 99.221354,38.1704662 C99.221354,38.0532781 99.2050781,37.9426021 99.1725259,37.8384349 C98.2936152,37.6496319 97.3040418,37.5552318 96.2037759,37.5552318 C95.4485638,37.5552318 94.5143283,37.6073146 93.4010415,37.7114818 C93.2382803,37.555231 93.1569009,37.3957274 93.1569009,37.2329662 C93.1569009,37.0506736 93.2610665,36.7739837 93.4694009,36.4028881 C94.1074249,36.0903865 94.9016878,35.9341381 95.8522134,35.9341381 C96.2037776,35.9341381 97.0175716,35.9862209 98.2936196,36.0903881 C98.7688824,36.1294508 99.149738,36.1489818 99.4361978,36.1489818 C100.074222,36.3638266 100.422526,36.8553582 100.48112,37.6235912 C100.48763,37.6691643 100.503906,38.0239785 100.529948,38.6880443 C100.445312,39.0135668 100.402995,39.3814016 100.402995,39.7915599 Z M116.298177,41.1294506 C116.33724,41.207576 116.356771,41.2791898 116.356771,41.3442943 C116.356771,41.6567959 116.07357,41.8130443 115.507161,41.8130443 C115.097003,41.8130443 114.820313,41.7121339 114.677083,41.5103099 C114.312498,40.9959845 113.928387,39.9966455 113.524739,38.5122631 C113.09505,36.9302239 112.701173,35.8332297 112.343099,35.2212474 C111.718096,34.1470233 110.832688,33.5350503 109.686849,33.3853099 C109.537108,33.3657786 109.410157,33.3560131 109.305989,33.3560131 C108.134109,33.3560131 107.170576,33.9972827 106.415364,35.2798412 C105.77734,36.3670862 105.458333,37.5422047 105.458333,38.8052318 C105.458333,39.1893483 105.49414,39.5897349 105.565755,40.0064037 C105.318358,40.1301022 105.005861,40.1919506 104.628255,40.1919506 C104.250649,40.1919506 103.967449,40.0975505 103.778646,39.9087474 C103.778646,39.5506727 103.765625,39.0949481 103.739583,38.5415599 C103.680989,37.2980641 103.651693,36.516822 103.651693,36.1978099 C103.651693,34.400926 103.957679,33.0337521 104.569661,32.0962474 C104.719402,32.0962474 104.92936,32.1580958 105.199544,32.2817943 C105.469728,32.4054928 105.634114,32.5259344 105.692708,32.6431224 C105.72526,32.695206 105.741536,32.7537992 105.741536,32.8189037 C105.741536,32.8774977 105.692709,33.0435117 105.595052,33.3169506 C105.542968,33.4666909 105.516927,33.5838772 105.516927,33.6685131 C105.516927,33.8312743 105.57552,33.9875227 105.692708,34.1372631 C106.018231,33.4015823 106.516272,32.8286714 107.186849,32.4185131 C107.857425,32.0083548 108.60286,31.8032787 109.423177,31.8032787 C110.04167,31.8032787 110.627601,31.9139547 111.180989,32.1353099 C112.64584,32.7212504 113.964187,34.5604247 115.136068,37.6528881 C115.402996,38.362527 115.790362,39.5213696 116.298177,41.1294506 Z M129.625,40.7192943 C129.63151,40.8039302 129.152999,40.9666889 128.189453,41.2075756 C126.776685,41.5591398 125.077484,41.7349193 123.091797,41.7349193 L122.076172,41.7349193 C120.871739,41.7349193 119.748703,41.1587532 118.707031,40.0064037 C118.2513,39.3944215 118.023437,38.6131793 118.023437,37.6626537 C118.023437,35.2082143 119.130197,33.4862263 121.34375,32.4966381 C122.483078,31.988823 123.645176,31.7349193 124.830078,31.7349193 C125.624353,31.7349193 126.340491,32.0604369 126.978515,32.7114818 C127.434247,33.1737237 127.789061,33.7238484 128.042969,34.3618724 C128.049479,34.4074456 128.06901,34.4790595 128.101562,34.5767162 C128.101562,34.6222893 128.108073,34.6939032 128.121094,34.7915599 C128.101562,34.8176017 128.05599,34.859919 127.984375,34.9185131 C125.425768,36.3443014 122.639338,37.3566611 119.625,37.9556224 C119.598958,37.9751538 119.585937,38.0142159 119.585937,38.0728099 C119.585937,38.320207 119.69173,38.6294487 119.90332,39.0005443 C120.11491,39.3716399 120.328124,39.6027574 120.542969,39.6939037 C121.389327,40.0389575 122.294266,40.2114818 123.257812,40.2114818 C123.830732,40.2114818 124.485022,40.1431231 125.220703,40.0064037 L127.427734,39.5962474 C128.306645,39.4334862 128.931639,39.3521068 129.302734,39.3521068 C129.426433,39.3521068 129.501302,39.3911689 129.527344,39.4692943 C129.527344,39.4758048 129.533854,39.5702049 129.546875,39.7524974 L129.625,40.7192943 Z M125.640625,34.2837474 C125.510416,33.5480667 124.999353,33.1802318 124.107422,33.1802318 C123.873045,33.1802318 123.567059,33.2258043 123.189453,33.3169506 C121.998041,33.6034103 121.014978,34.1991075 120.240234,35.1040599 C119.921222,35.4751555 119.761719,35.8202042 119.761719,36.1392162 C119.761719,36.3084879 119.820312,36.4386949 119.9375,36.5298412 C120.529951,36.4061427 121.17122,36.1945562 121.861328,35.8950756 C122.206382,35.7388248 122.899734,35.4328383 123.941406,34.9771068 C124.14323,34.892471 124.550127,34.7199467 125.162109,34.4595287 C125.188151,34.4399973 125.347655,34.3814042 125.640625,34.2837474 Z M141.916666,33.6489818 C141.506508,33.2713758 140.982425,33.0402583 140.344401,32.9556224 C139.452469,32.8384344 138.687503,32.9035379 138.049479,33.1509349 C137.48307,33.3657798 136.832035,33.795463 136.096354,34.4399974 C135.106766,35.3058872 134.400392,36.1619984 133.977213,37.0083568 C133.905598,37.561745 133.895833,38.2030146 133.947916,38.9321849 C133.973958,39.309791 134.061848,40.0910332 134.211588,41.2759349 C134.289714,41.8879172 134.341796,42.3534073 134.367838,42.6724193 L133.06901,42.7603099 C133.010416,42.050671 132.916016,41.2238563 132.785807,40.2798412 L132.35612,37.2329662 C132.108722,35.4816553 131.988281,34.0363573 131.994791,32.8970287 L132.229166,32.8872631 L132.385416,32.8579662 C132.658855,32.695205 132.854166,32.6105704 132.971354,32.6040599 C133.101563,32.5975495 133.208984,32.6366116 133.29362,32.7212474 L133.440104,34.7232006 C134.904955,32.5226687 136.753895,31.3442951 138.986979,31.1880443 C139.377606,31.1620025 139.947262,31.1847887 140.695963,31.2564037 C141.555343,31.3410395 142.072916,31.4647362 142.248698,31.6274974 C142.313802,31.9660408 142.346354,32.2948136 142.346354,32.6138256 C142.346354,33.2713809 142.203126,33.6164296 141.916666,33.6489818 Z" id="Designer" fill="#EB4E5F"></path>
                </g>
                <path d="M144,470.5 L285.002058,470.5" id="Path" stroke="#363F51" stroke-width="3" stroke-linecap="round" stroke-linejoin="round"></path>
                <path d="M116,470.5 L134.002058,470.5" id="Path-Copy-2" stroke="#363F51" stroke-width="3" stroke-linecap="round" stroke-linejoin="round"></path>
                <path d="M101,470.5 L106.002058,470.5" id="Path-Copy-4" stroke="#363F51" stroke-width="3" stroke-linecap="round" stroke-linejoin="round"></path>
                <path d="M295,470.5 L418.002058,470.5" id="Path-Copy" stroke="#363F51" stroke-width="3" stroke-linecap="round" stroke-linejoin="round"></path>
                <path d="M428,470.5 L439.002058,470.5" id="Path-Copy-3" stroke="#363F51" stroke-width="3" stroke-linecap="round" stroke-linejoin="round"></path>
            </g>
        </g>
    </g>
</svg>