<?xml version="1.0" encoding="UTF-8"?>
<svg width="563px" height="490px" viewBox="0 0 563 490" version="1.1" xmlns="http://www.w3.org/2000/svg" xmlns:xlink="http://www.w3.org/1999/xlink">
    <!-- Generator: Sketch 41.2 (35397) - http://www.bohemiancoding.com/sketch -->
    <title>NZ</title>
    <desc>Created with Sketch.</desc>
    <defs>
        <path d="M55.38297,13.8163667 L55.38297,83.1667327 L13.7927123,83.1667327 L13.7927123,15.5908599 L9.20964692,21.8989083 L0.0938613357,15.2759024 L8.40209593,3.84059847 C8.9088703,3.14308339 9.54580494,2.59598387 10.2552913,2.20816932 C10.3730466,2.08714285 10.4924371,1.9677108 10.6134293,1.84990737 C10.6878819,1.87743709 10.7624581,1.90483837 10.8371571,1.93211077 C12.5830504,1.22292208 14.6438164,1.40369834 16.275265,2.58901514 C16.8123612,2.97923838 17.2602034,3.44667998 17.6146392,3.96510757 C22.6691073,5.17421581 28.1220634,5.83344663 33.8080238,5.83344663 C39.5930602,5.83344663 45.1369015,5.15104191 50.2652618,3.90140238 C50.4796344,3.45131527 50.7577008,3.02268783 51.1003093,2.62856185 C52.8888145,0.571121976 55.8459336,0.128763853 58.1269679,1.42073005 C58.1345403,1.41774769 58.1421113,1.41476397 58.149681,1.4117789 C58.1722615,1.43213124 58.1947925,1.4525372 58.2172738,1.47299661 C58.5071596,1.6444001 58.7855482,1.84429336 59.0485613,2.07292711 L68.1194345,9.95811689 L60.7271381,18.4619812 L55.38297,13.8163667 Z" id="path-1"></path>
    </defs>
    <g id="Symbols" stroke="none" stroke-width="1" fill="none" fill-rule="evenodd">
        <g id="NZ">
            <g id="Group-3">
                <g id="Path-4-Copy" transform="translate(154.000000, 100.000000)">
                    <rect id="Mask" fill="#585D6A" x="57" y="43" width="73" height="147" rx="36.5"></rect>
                    <rect id="Mask" fill="#7B7F8B" x="0" y="0" width="73" height="147" rx="36.5"></rect>
                </g>
                <circle id="Oval-5-Copy-2" fill="#68A02A" cx="294" cy="264" r="59"></circle>
                <circle id="Oval-5" fill="#82CD31" cx="165" cy="246" r="74"></circle>
                <circle id="Oval-5-Copy" fill="#74B42F" cx="232" cy="254" r="44"></circle>
                <g id="Group-2" transform="translate(70.000000, 236.000000)">
                    <path d="M425,11 L425,44.0070272 C425,159.982944 330.972624,254 215,254 C99.0202025,254 5,159.973498 5,44.0070272 L5,11 L425,11 Z" id="Combined-Shape" fill="#C18053"></path>
                    <path d="M282.979335,242.752579 C261.657925,250.043503 238.790721,254 215,254 C99.0202025,254 5,159.973498 5,44.0070272 L5,11 L96,11 L96,34.0070272 C96,142.194783 177.829996,231.287201 282.979335,242.752579 Z" id="Combined-Shape-Copy-3" fill="#B16F42"></path>
                    <path d="M229.999935,253.472501 C225.045413,253.822191 220.043458,254 215,254 C99.0202025,254 5,159.973498 5,44.0070272 L5,11 L35,11 L35,44.0070272 C35,154.930557 121.020837,245.7808 229.999944,253.472502 Z" id="Combined-Shape-Copy-4" fill="#925A33"></path>
                    <path d="M79.0549469,32.9998358 C79.0366442,32.9999452 79.0183285,33 79,33 L79,51.9948435 C79,60.2819626 72.2860927,67 64,67 C55.7157288,67 49,60.286901 49,51.9948435 L49,33.2491035 L49,30.5043855 C49,25.2453581 44.7467051,21 39.5,21 C34.2521413,21 30,25.2552583 30,30.5043855 L30,31.1840259 L30,31.5900767 L30,31.9961276 C30,40.2825375 23.2860927,47 15,47 C6.71572875,47 0,40.2934149 0,31.9961276 L0,21.5019362 L0,10.0064223 C0,4.48002787 4.48456584,0 9.996105,0 L420.003895,0 C425.524591,0 430,4.46949899 430,10.0064223 L430,24.0002196 L430,72.9995608 C430,81.2840746 423.286093,88 415,88 C406.715729,88 400,81.2825551 400,72.9995608 L400,59.7491923 L400,47.5042079 C400,42.258317 395.746705,38 390.5,38 C385.252141,38 381,42.2551788 381,47.5042079 L381,48.1840259 C380.839541,48.0405082 380.682192,47.893586 380.528067,47.7433724 C378.863976,54.2166491 372.991662,59 366,59 C357.715729,59 351,52.2836461 351,43.9938568 L351,35.2491035 L351,32.5043855 C351,27.2453581 346.746705,23 341.5,23 C336.252141,23 332,27.2552583 332,32.5043855 L332,33.1840259 C331.999636,33.1837001 331.999272,33.1833744 331.998908,33.1830487 C331.900932,41.3829627 325.225012,48 317,48 C308.715729,48 302,41.2752683 302,33.0001055 L302,26.7478072 L302,24.5043855 C302,19.2453581 297.746705,15 292.5,15 C287.252141,15 283,19.2552583 283,24.5043855 L283,26.7478072 L283,48.9995946 C283,57.2840898 276.286093,64 268,64 C259.715729,64 253,57.2828148 253,48.9995946 L253,32.7769836 C252.97158,32.7705348 252.943212,32.7639515 252.914895,32.7572345 C252.405097,29.0662871 249.657122,26.0900855 246.085105,25.2427655 C246.073975,25.1621795 246.063911,25.0812527 246.054929,25 L87.9450712,25 C83.3373662,25.0277109 79.5504974,28.5177682 79.0549469,32.9998358 Z M415,125 C423.284271,125 430,118.284271 430,110 C430,101.715729 423.284271,95 415,95 C406.715729,95 400,101.715729 400,110 C400,118.284271 406.715729,125 415,125 Z" id="Combined-Shape-Copy-6" fill="#82CD30"></path>
                    <path d="M307.042858,137.77528 C308.308716,137.70794 308.643716,137.532108 308.927361,136.499219 C309.398742,134.783067 309.722178,133.025422 310.213285,131.315392 C311.274742,127.617808 312.74398,124.108641 315.28964,121.147377 C315.69198,120.679397 316.138874,120.248828 316.577264,119.813158 C316.769082,119.623042 316.991848,119.463874 317.307122,119.202336 C318.044803,124.690554 317.249985,129.882204 315.350858,135.190169 C316.200092,134.911965 316.923488,134.749397 317.564239,134.42392 C317.780884,134.313727 317.843462,133.797113 317.882234,133.455651 C318.156356,131.037869 318.675011,128.680285 319.538528,126.401945 C320.525503,123.799148 321.947468,121.475235 323.958148,119.531894 C324.218325,119.280219 324.499249,119.050311 324.875402,118.717351 C325.20462,123.362458 324.674402,127.79228 323.447655,132.155443 C323.492209,132.202717 323.537102,132.249991 323.581655,132.297265 C323.946924,132.115991 324.294508,131.864996 324.680523,131.767727 C325.553904,131.548361 325.668178,130.948082 325.779051,130.165849 C326.336478,126.233935 327.806396,122.635321 329.958219,119.310828 C330.480275,118.504108 330.801671,118.30991 331.4363,118.255153 C331.727427,120.099864 331.361138,124.417113 330.527549,128.670762 C331.13531,128.384397 331.614173,128.122519 332.119564,127.930021 C332.813711,127.665762 332.901117,127.252879 332.824935,126.51962 C332.434498,122.749935 333.565336,119.442788 336.117797,116.494108 C337.36699,119.096224 337.490107,121.784727 337.39896,124.499757 C338.297508,124.500778 338.752904,124.046742 338.790995,123.047864 C338.831808,121.972803 338.77297,120.894341 338.801198,119.8186 C338.84065,118.319432 339.10899,116.855976 339.788173,115.509174 C340.056853,114.976235 340.485381,114.523899 340.939757,113.899473 C342.109026,116.251955 342.582787,118.570087 342.788209,120.960661 C343.853066,120.703544 344.177523,120.198834 343.983325,119.253351 C343.357879,116.205361 344.001691,113.373336 345.411072,110.641641 C346.47661,111.462306 346.651082,111.914641 347.659483,116.365889 C348.617889,116.236991 349.083488,115.579915 348.860041,114.706874 C348.348528,112.707077 347.910478,110.695717 348.146848,108.609874 C348.195483,108.181006 348.279488,107.751118 348.397843,107.336194 C348.68761,106.322011 349.013087,106.21896 349.655198,107.080778 C350.3303,107.987488 350.879224,108.99657 351.409102,109.999869 C351.754645,110.654224 351.967889,111.378301 352.23861,112.067006 C353.004518,111.863285 353.206198,111.386463 353.151782,110.783123 C353.11097,110.329768 352.930036,109.881854 352.934117,109.43258 C352.9433,108.415676 352.957584,107.38925 353.103828,106.38595 C353.230686,105.516651 353.541539,104.673879 353.769747,103.824306 C355.114168,104.052854 355.460051,104.566407 356.467432,107.850087 C358.087676,105.11261 359.545691,102.362209 362.072305,100.339965 C362.842975,102.041493 362.917117,103.749143 362.178077,105.350001 C361.455361,106.914808 360.48233,108.367722 359.569158,109.839001 C359.103559,110.589265 358.528447,111.271849 357.987346,112.005788 C359.313402,112.41663 360.560894,112.802986 361.860762,113.205666 C361.41999,114.387519 360.521442,114.633412 359.582082,114.755509 C358.812092,114.855498 358.030198,114.891209 357.252726,114.906514 C355.393391,114.943245 353.992513,115.704732 353.1443,117.530397 C354.290782,117.719493 355.450528,117.91063 356.791549,118.132037 C355.396792,119.38225 353.953742,120.05191 352.348803,120.396773 C351.925376,120.48792 351.485965,120.608656 351.062879,120.581108 C349.657919,120.48996 348.916498,121.39157 348.222011,122.383306 C348.041757,122.640422 347.897894,122.923387 347.672747,123.30396 C349.310676,123.20125 350.839772,123.105341 352.368869,123.009092 C352.399138,123.075752 352.429407,123.142072 352.459336,123.208732 C351.90633,124.079052 351.273402,124.938148 350.302412,125.34593 C349.351488,125.745549 348.314178,125.972397 347.293874,126.162854 C346.353833,126.338346 345.379102,126.319641 344.43328,126.472006 C343.742874,126.583219 343.139534,126.918559 342.808275,127.737184 C345.066209,127.896351 347.127224,128.56159 349.092671,129.725417 C348.212828,130.60628 347.11532,130.97291 345.988564,131.256214 C344.171402,131.712971 342.325671,131.771468 340.463955,131.603458 C340.014001,131.562986 339.551462,131.608219 339.099468,131.656174 C338.394777,131.730656 337.943122,132.144219 337.643493,132.897544 C338.486605,133.140717 339.312711,133.354641 340.122493,133.618219 C341.335975,134.013757 342.561021,134.389229 343.737772,134.877955 C344.627478,135.247646 345.37128,135.86663 345.947072,136.863128 C344.616935,137.019915 343.384066,137.173981 342.149158,137.309001 C339.177011,137.633798 336.265742,137.374641 333.402427,136.473712 C332.879011,136.309103 332.259686,136.450245 331.684574,136.450245 C331.664848,136.512483 331.645462,136.574382 331.626077,136.63662 C332.084534,136.913123 332.551833,137.176361 333.000087,137.468849 C334.473066,138.429295 335.974615,139.352331 337.395899,140.384879 C338.344782,141.073925 339.029066,142.035732 339.552823,143.164189 C337.989036,143.700529 336.418447,143.76957 334.856021,143.573671 C331.963797,143.211123 329.328011,142.200341 327.083681,140.268224 C326.255534,139.555031 325.765787,139.533945 324.863498,140.077768 C325.510031,140.610707 326.098407,141.141605 326.733716,141.609585 C328.037665,142.569691 329.530371,143.314854 330.442183,144.724235 C331.295158,146.042808 332.083513,147.403214 332.950772,148.82858 C326.898665,149.869971 322.136564,147.084539 317.480914,143.952204 C317.417655,144.028727 317.354396,144.10559 317.291138,144.182113 C317.661848,144.626285 317.971681,145.147321 318.414833,145.500346 C319.900056,146.68424 321.444457,147.793311 322.944305,148.958839 C324.513874,150.178443 325.879381,151.583742 326.754122,153.403285 C326.833026,153.567894 326.905468,153.735905 326.972127,153.905955 C327.004437,153.98792 327.016341,154.077707 327.04729,154.204905 C323.043275,154.669823 319.290935,153.976696 315.916447,151.817732 C313.88128,150.515483 311.996777,148.974483 310.072823,147.504224 C309.387518,146.980468 309.033473,146.884899 308.235935,147.402874 C308.714117,147.904184 309.131082,148.440524 309.644975,148.857828 C310.585696,149.621016 311.57029,150.333189 312.560665,151.032097 C314.095544,152.114301 315.397452,153.409747 316.409254,154.999042 C317.374462,156.515554 318.364158,158.016422 319.371539,159.568306 C317.23128,159.737676 315.170264,159.452331 313.149041,158.827564 C309.832371,157.802498 307.024833,155.887047 304.331909,153.771615 C303.089518,152.795864 301.851209,151.814671 300.586371,150.868849 C300.270417,150.632138 299.871478,150.47195 299.485803,150.377402 C299.283442,150.327747 298.970209,150.439641 298.819544,150.590306 C298.743021,150.667169 298.850153,151.057945 298.986874,151.193306 C299.453833,151.655504 299.94562,152.100696 300.472777,152.491813 C301.977726,153.609047 303.570082,154.617448 305.009051,155.812564 C307.907396,158.219463 310.348305,161.021559 311.913792,164.502498 C312.044731,164.793965 312.160366,165.092575 312.279061,165.389483 C312.311371,165.470087 312.329396,165.556473 312.371909,165.701356 C309.648376,165.449681 307.053402,164.855524 304.53563,163.935209 C299.423564,162.067031 295.296092,158.873478 292.052544,154.528341 C291.70462,154.062062 291.36962,153.935544 290.860488,154.099473 C290.512564,154.211366 290.160219,154.309996 289.816376,154.432092 C289.409955,154.576636 289.010336,154.739884 288.468554,154.948366 C294.731863,158.857834 300.471077,163.16828 304.1003,169.896849 C303.239163,169.843453 302.501823,169.812163 301.766863,169.749585 C297.66898,169.401661 293.738767,168.465361 290.142534,166.38428 C286.863955,164.487194 284.371011,161.829981 282.623909,158.483722 C282.331762,157.923915 281.9903,157.818823 281.480828,157.995336 C280.706417,158.263336 279.942549,158.562285 279.031417,158.901366 C285.479742,163.037341 290.353737,168.588818 294.584259,175.041905 C285.237589,173.591372 276.844564,170.699488 270.777833,163.037341 C270.381615,163.295478 269.990158,163.567899 269.581696,163.811072 C269.172894,164.054245 268.746747,164.268509 268.25564,164.534808 C268.460721,164.680031 268.652879,164.824235 268.852518,164.956194 C272.847351,167.594021 276.820077,170.260417 280.310539,173.569265 C282.363391,175.515666 284.184975,177.654905 285.715092,180.037316 C285.850792,180.248859 285.974249,180.468224 286.097026,180.68725 C286.115391,180.72024 286.099747,180.771935 286.099747,180.948448 C284.667239,180.864443 283.234051,180.842676 281.815488,180.68725 C273.662574,179.794483 266.745589,176.155057 260.553021,170.974971 C259.918051,170.443732 259.44633,170.405981 258.821564,170.819884 C258.446432,171.068498 258.056336,171.294326 257.604681,171.572529 C260.145579,173.155021 262.603833,174.653849 265.029097,176.204372 C268.571935,178.469448 271.932478,180.960011 274.589691,184.277021 C276.131711,186.202336 277.360838,188.306544 278.197148,190.632839 C278.249523,190.779422 278.285574,190.931788 278.360737,191.189925 C277.764879,191.189925 277.229219,191.20659 276.694919,191.187204 C269.231051,190.919204 262.25931,189.037422 255.958929,184.90927 C253.18132,183.089387 250.952975,180.716158 248.885838,178.156894 C248.066534,177.142372 247.146559,176.209473 246.306168,175.211275 C245.901447,174.731052 245.492305,174.713026 245.080102,175.104823 C244.16931,175.970382 243.248655,176.830839 242.405204,177.759996 C237.717244,182.925118 234.673336,189.052047 232.112711,195.458199 C231.987214,195.772453 231.850153,196.081945 231.556985,196.413544 C231.147843,195.104493 230.66864,193.812448 230.345884,192.482651 C229.861579,190.487615 229.457879,188.471153 229.075264,186.453331 C228.781077,184.904169 229.367072,183.721976 230.537701,182.635011 C233.875117,179.536346 237.128869,176.346874 240.393503,173.170326 C241.081188,172.501686 241.702214,171.757544 242.29263,171.000478 C242.46098,170.784854 242.535803,170.360747 242.448737,170.10125 C240.488731,164.27463 239.81363,158.294965 240.218011,152.174839 C240.500295,147.897042 241.300554,143.743382 243.145605,139.842077 C244.23427,137.53993 245.667457,135.490818 247.797173,133.881118 C251.40497,143.03325 254.005726,152.352372 253.948929,162.421077 C254.379158,162.204092 254.673006,162.064311 254.958691,161.909564 C255.236214,161.758899 255.505234,161.59327 255.820848,161.409275 C255.664742,160.046488 255.418508,158.64493 255.361711,157.236229 C255.262402,154.770834 255.134183,152.292174 255.280427,149.83494 C255.508975,145.995194 256.19564,142.209864 257.298929,138.515681 C258.545402,134.342976 260.251351,130.392696 263.074193,127.009366 C263.484016,126.51792 263.944173,126.067965 264.385285,125.603047 C264.460447,125.523803 264.558056,125.466326 264.720965,125.340488 C266.923462,134.886458 267.681889,144.457595 266.673488,154.220209 C268.039336,154.363392 268.819869,153.093113 270.044574,152.973057 C269.984036,152.002407 269.909554,151.070189 269.870442,150.13661 C269.533402,142.080625 270.585336,134.297062 274.433584,127.069564 C275.611016,124.858224 277.054747,122.835301 278.911701,120.875976 C280.523782,130.182854 280.070427,139.299615 278.428077,148.645605 C279.189564,148.270473 279.837117,147.99057 280.433315,147.627001 C280.566295,147.545717 280.55099,147.168884 280.54963,146.928773 C280.522422,142.072463 281.043797,137.296077 282.573234,132.659813 C283.995879,128.348006 286.209259,124.482412 289.105904,120.997052 C289.177665,120.910666 289.202833,120.785509 289.341935,120.732113 C290.925447,128.620087 289.96262,136.347874 288.445087,144.268498 C289.56062,143.944722 290.560858,143.654615 291.649863,143.338321 C291.649863,141.639174 291.583884,139.943768 291.663127,138.255163 C291.854945,134.163742 292.50896,130.160067 294.280549,126.416229 C295.268544,124.328006 296.587117,122.479554 298.480462,120.895021 C300.18131,127.696712 299.660615,134.394331 298.491346,141.253839 C299.14366,140.987199 299.71027,140.79028 300.236747,140.516158 C300.372107,140.445757 300.427884,140.134564 300.439787,139.929143 C300.681599,135.844524 301.362823,131.84527 302.790569,127.997702 C303.941132,124.896316 305.501518,122.043884 308.000924,119.794113 C308.198523,119.615899 308.410407,119.454011 308.752209,119.171727 C308.951848,125.537747 308.148869,131.641549 307.042858,137.77528" id="Fill-4" fill="#FFF0BC"></path>
                </g>
                <circle id="Oval-5-Copy-4" fill="#68A02A" cx="54" cy="349" r="29"></circle>
                <circle id="Oval-5-Copy-3" fill="#74B42F" cx="28" cy="351" r="19"></circle>
                <g id="Group" transform="translate(0.000000, 338.000000)">
                    <path d="M175.506631,13.2671577 L175.506631,25.1375108 C175.506631,72.0057694 137.509846,110 90.6449104,110 C43.7770763,110 5.78318989,72.0100966 5.78318989,25.1375108 L5.78318989,13.2671577 L175.506631,13.2671577 Z" id="Combined-Shape-Copy-2" fill="#C18053"></path>
                    <path d="M105.502062,108.703673 C100.677965,109.555613 95.7132995,110 90.6449104,110 C43.7770763,110 5.78318989,72.0100966 5.78318989,25.1375108 L5.78318989,13.2671577 L27.7831899,13.2671577 L27.7831899,24.1375108 C27.7831899,68.6042114 61.9768593,105.076692 105.502062,108.703673 Z" id="Combined-Shape-Copy-8" fill="#B16F42"></path>
                    <path d="M115.547725,25.0205434 L115.547725,39.2363858 C115.547725,44.4282527 111.337675,48.6370925 106.141764,48.6370925 C100.946995,48.6370925 96.7358035,44.4183334 96.7358035,39.2363858 L96.7358035,32.319436 C96.7049882,32.3431579 96.6740215,32.3666932 96.6429051,32.3900401 L96.6429051,31.3399928 C96.6429051,28.040551 93.9758168,25.3789417 90.6857968,25.3789417 C87.4024712,25.3789417 84.7286884,28.0477952 84.7286884,31.3399928 L84.7286884,31.8724527 C84.643397,31.796129 84.5595069,31.7182754 84.4770615,31.6389355 C84.1634057,36.5464134 80.081824,40.4297167 75.0904819,40.4297167 C69.8957134,40.4297167 65.6845214,36.216816 65.6845214,31.0305765 L65.6845214,29.1610472 L65.6845214,27.295097 C65.6845214,23.9956552 63.0174332,21.334046 59.7274131,21.334046 C56.4440875,21.334046 53.7703047,24.0028994 53.7703047,27.295097 L53.7703047,27.8275569 C53.6916876,27.7572057 53.6142609,27.6855546 53.5380588,27.6126378 L53.5380588,32.0431343 C53.5380588,37.2333994 49.328009,41.4409407 44.1320983,41.4409407 C38.9373297,41.4409407 34.7261377,37.2205679 34.7261377,32.0431343 L34.7261377,29.1598467 L34.7261377,27.295097 C34.7261377,23.9956552 32.0590495,21.334046 28.7690294,21.334046 C25.4857038,21.334046 22.8119211,24.0028994 22.8119211,27.295097 L22.8119211,28.9033891 L22.8119211,42.5923343 C22.8119211,47.7880446 18.6018713,52 13.4059605,52 C8.21119197,52 4,47.7904595 4,42.5923343 L4,21.5931968 L4,15.9369321 C4,11.5534856 7.54909099,8 11.929339,8 L168.838415,8 C173.217668,8 176.767754,11.562405 176.767754,15.9369321 L176.767754,18.4975853 C176.919755,19.1700625 177,19.8701208 177,20.5893473 L177,36.0477452 C177,41.2472711 172.78995,45.4623196 167.594039,45.4623196 C162.399271,45.4623196 158.188079,41.2579934 158.188079,36.0477452 L158.188079,30.4297559 L158.188079,28.5650062 C158.188079,25.2655644 155.520991,22.6039551 152.230971,22.6039551 C148.947645,22.6039551 146.273862,25.2728086 146.273862,28.5650062 L146.273862,29.0997318 C146.26085,34.2813219 142.055784,38.4778193 136.867902,38.4778193 C131.673133,38.4778193 127.461941,34.2668967 127.461941,29.0756477 L127.461941,25.0205434 L127.461941,23.4853696 C127.461941,20.1859278 124.794853,17.5243185 121.504833,17.5243185 C118.221507,17.5243185 115.547725,20.193172 115.547725,23.4853696 L115.547725,25.0205434 Z M136.5,62 C141.746705,62 146,57.7467051 146,52.5 C146,47.2532949 141.746705,43 136.5,43 C131.253295,43 127,47.2532949 127,52.5 C127,57.7467051 131.253295,62 136.5,62 Z" id="Combined-Shape-Copy-7" fill="#82CD30"></path>
                </g>
                <g id="Sunm-Copy-2" transform="translate(364.000000, 29.000000)">
                    <g id="body" transform="translate(0.000000, 66.000000)">
                        <path d="M15.712737,20.4461315 C18.5805489,12.7898222 25.965218,7.33963694 34.6129416,7.33963694 L38.3697458,7.33963694 L38.3697458,0 L48.7754567,0 L48.7754567,7.33963694 L52.5322608,7.33963694 C61.186423,7.33963694 68.5680001,12.788814 71.4337442,20.4461315 L15.712737,20.4461315 Z" fill="#FFE2C8"></path>
                        <path d="M114.24549,28.5343666 C108.48801,33.2028482 101.151398,36 93.1614763,36 C80.4777083,36 69.4403226,28.9509992 63.7530954,18.5567738 L71.7080543,18.0595889 C76.5247928,24.6893933 84.3397365,29 93.1614763,29 C99.7123553,29 105.708056,26.6230006 110.333131,22.6844503 L110.367241,22.7246513 C110.957713,22.2702181 111.6973,22 112.5,22 C114.432997,22 116,23.5670034 116,25.5 C116,26.7973548 115.294129,27.9298446 114.24549,28.5343666 Z" id="hand" fill="#FFE2C8"></path>
                        <path d="M38.2454903,48.5343666 C32.48801,53.2028482 25.151398,56 17.1614763,56 C4.47770827,56 -6.55967739,48.9509992 -12.2469046,38.5567738 L-4.29194574,38.0595889 C0.524792831,44.6893933 8.33973649,49 17.1614763,49 C23.7123553,49 29.7080563,46.6230006 34.3331311,42.6844503 L34.367241,42.7246513 C34.9577126,42.2702181 35.6972999,42 36.5,42 C38.4329966,42 40,43.5670034 40,45.5 C40,46.7973548 39.2941291,47.9298446 38.2454903,48.5343666 Z" id="hand-copy" fill="#FFE2C8" transform="translate(13.876548, 47.029794) scale(-1, -1) rotate(-99.000000) translate(-13.876548, -47.029794) "></path>
                        <path d="M32.509901,135.816244 L23.0249756,135.816244 C21.6525924,135.816244 20.5426686,136.924628 20.5426686,138.291888 L20.5426686,140.767531 L38.9486091,140.767531 L38.9486091,135.816244 L38.8811881,135.816244 L38.8811881,92.734541 C38.8811881,90.9698751 37.4549269,89.5419802 35.6955446,89.5419802 C33.9397422,89.5419802 32.509901,90.9713384 32.509901,92.734541 L32.509901,135.816244 Z" id="leg" fill="#FFE2C8"></path>
                        <path d="M52.3316832,135.816244 L61.9514506,135.816244 C63.3238338,135.816244 64.4337577,136.924628 64.4337577,138.291888 L64.4337577,140.767531 L46.0278171,140.767531 L46.0278171,137.431292 C45.9836272,137.219315 45.960396,136.999585 45.960396,136.77437 L45.960396,92.734541 C45.960396,90.9713384 47.3902372,89.5419802 49.1460396,89.5419802 C50.905422,89.5419802 52.3316832,90.9698751 52.3316832,92.734541 L52.3316832,135.816244 Z" id="leg" fill="#FFE2C8"></path>
                        <path d="M24.8423216,135.524933 L22.2648825,135.524933 C20.8170145,135.524933 19.6394661,136.698529 19.6394661,138.146232 L19.6394661,139.769099 C19.6394661,140.32055 20.0905932,140.767531 20.6470866,140.767531 L38.4026964,140.767531 C38.9602279,140.767531 39.4103169,140.320518 39.4103169,139.769099 L39.4103169,138.423616 C39.1235933,138.58098 38.793815,138.670492 38.4422947,138.670492 L26.8509148,138.670492 C25.7415994,138.670492 24.8423216,137.770509 24.8423216,136.664904 L24.8423216,135.524933 Z" id="shoes_l" fill="#202739"></path>
                        <path d="M50.8565988,135.524933 L48.2791597,135.524933 C46.8312917,135.524933 45.6537434,136.698529 45.6537434,138.146232 L45.6537434,139.769099 C45.6537434,140.32055 46.1048704,140.767531 46.6613638,140.767531 L64.4169737,140.767531 C64.9745052,140.767531 65.4245941,140.320518 65.4245941,139.769099 L65.4245941,138.423616 C65.1378705,138.58098 64.8080923,138.670492 64.456572,138.670492 L52.8651921,138.670492 C51.7558767,138.670492 50.8565988,137.770509 50.8565988,136.664904 L50.8565988,135.524933 Z" id="shoes_r" fill="#202739" transform="translate(55.539169, 138.146232) scale(-1, 1) translate(-55.539169, -138.146232) "></path>
                        <g id="dress" transform="translate(9.148515, 11.350648)">
                            <mask id="mask-2" fill="white">
                                <use xlink:href="#path-1"></use>
                            </mask>
                            <use id="Mask" fill="#FF9899" xlink:href="#path-1"></use>
                            <rect id="Rectangle-16" fill="#FFAEAD" mask="url(#mask-2)" x="-1.14851485" y="77.6493518" width="81" height="1"></rect>
                            <rect id="Rectangle-16-Copy" fill="#FFAEAD" mask="url(#mask-2)" x="-1.14851485" y="73.6493518" width="81" height="1"></rect>
                            <rect id="Rectangle-16-Copy-2" fill="#FFAEAD" mask="url(#mask-2)" x="-1.14851485" y="69.6493518" width="81" height="1"></rect>
                            <rect id="Rectangle-16-Copy-3" fill="#FFAEAD" mask="url(#mask-2)" x="-1.14851485" y="65.6493518" width="81" height="1"></rect>
                            <rect id="Rectangle-16-Copy-4" fill="#FFAEAD" mask="url(#mask-2)" x="-1.14851485" y="61.6493518" width="81" height="1"></rect>
                            <rect id="Rectangle-16-Copy-5" fill="#FFAEAD" mask="url(#mask-2)" x="-1.14851485" y="57.6493518" width="81" height="1"></rect>
                            <rect id="Rectangle-16-Copy-6" fill="#FFAEAD" mask="url(#mask-2)" x="-1.14851485" y="53.6493518" width="81" height="1"></rect>
                            <rect id="Rectangle-16-Copy-7" fill="#FFAEAD" mask="url(#mask-2)" x="-1.14851485" y="49.6493518" width="81" height="1"></rect>
                            <rect id="Rectangle-16-Copy-8" fill="#FFAEAD" mask="url(#mask-2)" x="-1.14851485" y="45.6493518" width="81" height="1"></rect>
                            <rect id="Rectangle-16-Copy-9" fill="#FFAEAD" mask="url(#mask-2)" x="-1.14851485" y="41.6493518" width="81" height="1"></rect>
                            <rect id="Rectangle-16-Copy-10" fill="#FFAEAD" mask="url(#mask-2)" x="-1.14851485" y="37.6493518" width="81" height="1"></rect>
                            <rect id="Rectangle-16-Copy-11" fill="#FFAEAD" mask="url(#mask-2)" x="-1.14851485" y="33.6493518" width="81" height="1"></rect>
                            <rect id="Rectangle-16-Copy-12" fill="#FFAEAD" mask="url(#mask-2)" x="-1.14851485" y="29.6493518" width="81" height="1"></rect>
                            <rect id="Rectangle-16-Copy-13" fill="#FFAEAD" mask="url(#mask-2)" x="-1.14851485" y="25.6493518" width="81" height="1"></rect>
                            <rect id="Rectangle-16-Copy-14" fill="#FFAEAD" mask="url(#mask-2)" x="-1.14851485" y="21.6493518" width="81" height="1"></rect>
                            <rect id="Rectangle-16-Copy-15" fill="#FFAEAD" mask="url(#mask-2)" x="-1.14851485" y="17.6493518" width="81" height="1"></rect>
                            <rect id="Rectangle-16-Copy-16" fill="#FFAEAD" mask="url(#mask-2)" x="-1.14851485" y="13.6493518" width="81" height="1"></rect>
                            <rect id="Rectangle-16-Copy-17" fill="#FFAEAD" mask="url(#mask-2)" x="-1.14851485" y="9.64935176" width="81" height="1"></rect>
                            <rect id="Rectangle-16-Copy-18" fill="#FFAEAD" mask="url(#mask-2)" x="-1.14851485" y="5.64935176" width="81" height="1"></rect>
                        </g>
                        <rect id="sleeve" fill="#EB4E5F" transform="translate(14.002001, 29.702283) rotate(36.000000) translate(-14.002001, -29.702283) " x="7.383304" y="27.6052437" width="13.2373941" height="4.19407825" rx="1"></rect>
                        <rect id="sleeve-copy" fill="#EB4E5F" transform="translate(73.689388, 25.231311) rotate(-50.000000) translate(-73.689388, -25.231311) " x="67.4459616" y="23.1342714" width="12.4868531" height="4.19407825" rx="1"></rect>
                        <path d="M20.9001386,11.3831347 C19.7641092,12.2730602 18.7039009,13.2554861 17.7308694,14.319081 C25.9954666,16.6929845 34.721411,17.9639473 43.7419544,17.9639473 C52.9533475,17.9639473 61.8575441,16.6386355 70.2769865,14.1669258 C69.2945252,13.109677 68.225153,12.1343684 67.0802435,11.2523755 C59.6318875,13.2368769 51.8094522,14.2941288 43.7419544,14.2941288 C35.853505,14.2941288 28.1993611,13.283285 20.9001386,11.3831347 Z" id="deep_shoulder" fill="#EB4E5F"></path>
                        <rect id="stripe_l" fill="#E94C5F" x="30.5654626" y="6.33963694" width="3.64199882" height="9.33963694" rx="1"></rect>
                        <rect id="stripe_r" fill="#E94C5F" x="52.4174555" y="6.33963694" width="3.64199882" height="9.33963694" rx="1"></rect>
                        <path d="M38.3697458,7.33963694 L38.3697458,4.19407825 C38.3697458,4.19407825 48.7884557,3.27276544 48.7884557,4.19407825 C47.2146,6.29111738 38.3697458,7.33963694 38.3697458,7.33963694 Z" id="neck_shadow" fill="#EDC19C"></path>
                    </g>
                    <g id="head" transform="translate(4.000000, 0.000000)">
                        <path d="M63.512931,66.9553601 C61.8942685,68.9552768 59.8977402,70.6483523 57.6290338,71.9310479 C58.1953237,71.9767143 58.7680887,72 59.3464052,72 C70.7530706,72 80,62.9411192 80,51.7664234 C80,47.9865983 78.9420393,44.448848 77.1003905,41.4218675 C77.114291,41.3881377 77.1280288,41.354323 77.1415995,41.3204191 C75.9631447,38.7214817 75.2941176,35.7458817 75.2941176,32.5839416 C75.2941176,31.8483511 75.330326,31.1228455 75.4007332,30.409821 C75.3351198,30.3322368 75.2684193,30.255655 75.2006564,30.1801008 C75.2625533,29.4131325 75.2941176,28.6373497 75.2941176,27.8540146 C75.2941176,12.4706671 63.1209448,0 48.1045752,0 C43.0991648,0 38.4096594,1.38560408 34.3816041,3.80282255 C31.9813653,2.70345157 29.3815471,2.10218978 26.6666667,2.10218978 C14.5380604,2.10218978 4.70588235,14.1022657 4.70588235,28.9051095 C4.70588235,29.7823986 4.74041619,30.6498435 4.80791525,31.5055296 C4.7735492,31.5492871 4.73946211,31.5932852 4.70565675,31.6375209 C4.68978944,35.317962 3.83749028,38.799917 2.32995667,41.9012627 C2.33158585,41.9096318 2.3332231,41.9179979 2.3348684,41.9263611 C0.84335862,44.8692715 0,48.2163496 0,51.7664234 C0,60.3090514 4.88338011,67.6762544 11.9302038,71.0649872 C10.1418221,68.9674529 8.74744452,66.5043881 7.86624897,63.7986121 C11.6387494,68.7825746 17.6024125,72 24.3137255,72 C27.7322503,72 30.9567934,71.165222 33.7965829,69.6874127 C29.4290307,65.9774881 26.6666667,60.5018563 26.6666667,54.3941606 C26.6666667,47.0514976 30.6590599,40.6223449 36.633236,37.0764246 C33.3655446,40.6735452 31.372549,45.4605031 31.372549,50.7153285 C31.372549,61.8900243 40.3853789,70.9489051 51.503268,70.9489051 C56.0042939,70.9489051 60.1603012,69.4641566 63.512931,66.9553601 Z" id="hair" fill="#383D40"></path>
                        <rect id="ear" fill="#EDC19C" x="7.84313725" y="41.5182482" width="62.2222222" height="12.6131387" rx="6.30656934"></rect>
                        <rect id="ear-hole" fill="#E6A973" x="10.4575163" y="45.1970803" width="56.9934641" height="5.25547445" rx="2.62773723"></rect>
                        <path d="M64.8366013,41.5147697 L64.8366013,45.0672362 C64.8366013,59.3612872 53.2518201,70.9489051 38.9542484,70.9489051 C24.6598195,70.9489051 13.0718954,59.3549371 13.0718954,45.0672362 L13.0718954,41.5066477 C21.5530472,38.9884591 28.8207927,33.6277493 33.7831157,26.5221141 C40.8637846,35.6489503 51.9068154,41.5182482 64.3137255,41.5182482 C64.4882898,41.5182482 64.6625842,41.5170863 64.8366013,41.5147697 Z" id="Combined-Shape" fill="#FEDFC3"></path>
                        <ellipse id="eye_l" fill="#383D40" cx="28.2352941" cy="46.7737226" rx="2.09150327" ry="2.10218978"></ellipse>
                        <ellipse id="eye_r" fill="#383D40" cx="49.1503268" cy="46.7737226" rx="2.09150327" ry="2.10218978"></ellipse>
                        <ellipse id="blush_r" fill="#FFB1A4" cx="55.9477124" cy="53.6058394" rx="2.61437908" ry="2.62773723"></ellipse>
                        <ellipse id="blush_l" fill="#FFB1A4" cx="21.9607843" cy="53.6058394" rx="2.61437908" ry="2.62773723"></ellipse>
                        <path d="M40.7843137,52.0291971 C40.7843137,52.0291971 38.6928105,54.1313869 36.0784314,52.0291971" id="nose" fill="#773A25"></path>
                        <path d="M36.6013072,58.3357664 C36.6013072,58.3357664 42.3529412,60.9635036 47.5816993,55.7080292" id="mouse" stroke="#773A25" stroke-linecap="round" stroke-linejoin="round"></path>
                        <path d="M44.9673203,40.4671533 C44.9673203,40.4671533 51.0572857,39.9416058 54.379085,42.0437956" id="eyebrow_r" stroke="#773A25" stroke-linecap="round" stroke-linejoin="round"></path>
                        <path d="M21.4379085,40.4671533 C21.4379085,40.4671533 27.5278739,39.9416058 30.8496732,42.0437956" id="eyebrow_l" stroke="#773A25" stroke-linecap="round" stroke-linejoin="round" transform="translate(26.143791, 41.226277) scale(-1, 1) translate(-26.143791, -41.226277) "></path>
                    </g>
                </g>
                <g id="Tonny-Copy-2" transform="translate(43.000000, 191.000000)">
                    <g id="body" transform="translate(0.470588, 76.000000)">
                        <rect id="leg_l" fill="#F2CA99" x="29.6470588" y="107.647059" width="7.82352941" height="10.6176471"></rect>
                        <rect id="leg_r" fill="#F2CA99" x="49.0588235" y="107.647059" width="7.82352941" height="10.6176471"></rect>
                        <g id="shoes" transform="translate(25.000000, 116.000000)">
                            <path d="M16,9 L16,7.50327939 C16,3.36454679 12.6421356,0 8.5,0 C4.36629279,0 1,3.35933261 1,7.50327939 L1,9 L16,9 Z" id="Combined-Shape" fill="#A86934"></path>
                            <rect id="Rectangle-13" fill="#321503" x="0" y="9" width="17" height="2" rx="1"></rect>
                        </g>
                        <g id="shoes-copy" transform="translate(44.000000, 116.000000)">
                            <path d="M16,9 L16,7.50327939 C16,3.36454679 12.6421356,0 8.5,0 C4.36629279,0 1,3.35933261 1,7.50327939 L1,9 L16,9 Z" id="Combined-Shape" fill="#A86934"></path>
                            <rect id="Rectangle-13" fill="#321503" x="0" y="9" width="17" height="2" rx="1"></rect>
                        </g>
                        <rect id="Rectangle-9" fill="#202737" x="20" y="49" width="48" height="30" rx="12"></rect>
                        <path d="M54.0344706,8.94117647 C52.5083235,12.5534118 48.9324118,15.0882353 44.7647059,15.0882353 C40.597,15.0882353 37.0210882,12.5534118 35.4949412,8.94117647 L31.3529412,8.94117647 C19.0079706,8.94117647 9,18.9491471 9,31.2941176 L10.1176471,46.3823529 C10.1176471,47.6167941 11.1185,48.6176471 12.3529412,48.6176471 L20.7352941,48.6176471 L20.7352941,67.1176471 L68.2352941,67.1176471 L68.2352941,48.6176471 L77.1764706,48.6176471 C78.4109118,48.6176471 79.4117647,47.6167941 79.4117647,46.3823529 L80.5294118,31.2941176 C80.5294118,18.9491471 70.5214412,8.94117647 58.1764706,8.94117647 L54.0344706,8.94117647 Z" id="hoodie" fill="#5EB7F1"></path>
                        <polygon id="dress_shadow_l-copy" fill="#4C9ACC" points="20.7352941 29.6176471 20.7352941 48.6176471 17.3823529 48.6176471"></polygon>
                        <polygon id="dress_shadow_r-copy" fill="#4C9ACC" transform="translate(69.911765, 39.117647) scale(-1, 1) translate(-69.911765, -39.117647) " points="71.5882353 29.6176471 71.5882353 48.6176471 68.2352941 48.6176471"></polygon>
                        <path d="M35.2647618,42.5294118 L53.7059382,42.5294118 C53.7059382,42.5294118 53.1834382,47.2721471 54.9454088,52.1523529 C56.8124382,57.3225882 62.0882912,62.6470588 62.0882912,62.6470588 L26.3235853,62.6470588 C26.3235853,62.6470588 30.9221441,58.4475 33.21835,53.2800588 C35.3888206,48.3965 35.2647618,42.5294118 35.2647618,42.5294118" id="pocket" fill="#4C9ACC"></path>
                        <path d="M53.7058824,42.5294118 C53.7058824,42.5294118 52.5882353,54.2647059 62.0882353,62.6470588" id="pocket_line_r" stroke="#FFFFFF" stroke-width="2"></path>
                        <path d="M26.8823529,42.5294118 C26.8823529,42.5294118 25.7647059,54.2647059 35.2647059,62.6470588" id="pocket_line_l" stroke="#FFFFFF" stroke-width="2" transform="translate(31.053255, 52.588235) scale(-1, 1) translate(-31.053255, -52.588235) "></path>
                        <path d="M44.8822076,0.558823529 C17.7256193,0.558823529 24.205737,11.1764706 24.205737,11.1764706 L44.8822076,22.3529412 L65.730237,11.1764706 C65.730237,11.1764706 72.2645605,0.558823529 44.8822076,0.558823529" id="hat" fill="#4C9ACC"></path>
                        <path d="M45.3235853,0 L44.2059382,0 C41.4280265,0 39.1765265,2.2515 39.1765265,5.02941176 L39.1765265,11.1764706 L44.7647618,18.4411765 L50.3529971,11.1764706 L50.3529971,5.02941176 C50.3529971,2.2515 48.1014971,0 45.3235853,0" id="neck" fill="#FDD9B7"></path>
                        <path d="M48.1176471,19 C48.1176471,19 50.5582763,22.9117647 49.7941176,33.5294118" id="string_r" stroke="#FFFFFF" stroke-width="2" stroke-linecap="round"></path>
                        <circle id="circle" fill="#FFFFFF" cx="49.7941176" cy="33.5294118" r="1.11764706"></circle>
                        <ellipse id="circle-copy" fill="#FFFFFF" cx="39.1764706" cy="31.8529412" rx="1.11764706" ry="1.11764706"></ellipse>
                        <path d="M42.5294118,18.4411765 C42.5294118,18.4411765 39.1764706,21.7941176 39.1764706,31.8529412" id="string_l" stroke="#FFFFFF" stroke-width="2" stroke-linecap="round"></path>
                        <rect id="Rectangle-14-Copy" fill="#C6C6C6" x="2.52941176" y="63" width="84" height="5"></rect>
                        <path d="M0.645545679,49.7475906 L9.38257161,30.1239091 L15.9705275,33.057056 L8.45118262,49.9457812 L29.6708077,58.9529777 C31.501871,59.7302179 32.3594287,61.8479741 31.5813356,63.6810467 C30.8048257,65.5103894 28.6863317,66.3692885 26.8530831,65.5911207 L2.19776064,55.1255572 C0.366697274,54.3483169 -0.490860407,52.2305607 0.28723274,50.3974882 C0.386053751,50.1646804 0.506609378,49.9475899 0.645545679,49.7475906 Z" id="Combined-Shape-Copy-5" fill="#FDD9B7"></path>
                        <path d="M56.6455457,49.7475906 L65.7893083,29.2103636 L72.3772642,32.1435106 L64.4511826,49.9457812 L85.6708077,58.9529777 C87.501871,59.7302179 88.3594287,61.8479741 87.5813356,63.6810467 C86.8048257,65.5103894 84.6863317,66.3692885 82.8530831,65.5911207 L58.1977606,55.1255572 C56.3666973,54.3483169 55.5091396,52.2305607 56.2872327,50.3974882 C56.3860538,50.1646804 56.5066094,49.9475899 56.6455457,49.7475906 Z" id="Combined-Shape-Copy-4" fill="#FDD9B7" transform="translate(71.934284, 47.544288) scale(-1, 1) translate(-71.934284, -47.544288) "></path>
                        <rect id="Rectangle-14" fill="#DFDFDF" x="7" y="23" width="75" height="45" rx="4"></rect>
                        <rect id="Rectangle-8" fill="#202737" x="27" y="63" width="13" height="51" rx="6.5"></rect>
                        <rect id="Rectangle-8-Copy" fill="#202737" x="47" y="63" width="13" height="51" rx="6.5"></rect>
                        <path d="M39.1764706,9.5 L39.1764706,6.14705882 C39.1764706,6.14705882 50.366903,5.16500509 50.366903,6.14705882 C48.6764706,8.38235294 39.1764706,9.5 39.1764706,9.5 Z" id="neck_shadow-copy" fill="#EDC19C"></path>
                    </g>
                    <g id="head" transform="translate(5.000000, 0.000000)">
                        <path d="M73.8613824,43.9643235 C74.3313529,42.1475882 74.5822647,40.2431176 74.5822647,38.2794118 C74.5822647,33.5970294 73.1600588,29.2477059 70.7247059,25.6377059 C72.0776176,26.2155294 73.3556471,26.9341765 74.537,27.7796765 C73.8898824,17.4710588 65.4807059,9.27255882 55.0849118,8.95682353 C49.1423824,3.40323529 41.1657353,0 32.3910882,0 C16.6065588,0 3.401,11.0021176 0,25.7533824 C1.72341176,24.0472941 3.62844118,22.5272941 5.67485294,21.2073529 C2.94723529,25.7975294 1.37638235,31.1555294 1.37638235,36.8823529 C1.37638235,38.7354118 1.54961765,40.5476765 1.86367647,42.3107647 C2.72817647,40.3302941 3.92405882,38.5303235 5.3675,36.9628235 C4.94894118,39.0125882 4.72932353,41.135 4.72932353,43.3088235 C4.72932353,60.7463529 18.8653235,74.8823529 36.3028529,74.8823529 C40.2123824,74.8823529 43.9497941,74.1609118 47.4038824,72.8605294 C43.6938529,70.7710882 40.7209118,67.5360588 38.9466471,63.6399412 C42.4135882,66.4742941 46.8428235,68.1764706 51.6705,68.1764706 C62.7810294,68.1764706 71.7881471,59.1693529 71.7881471,48.0588235 C71.7881471,45.0992941 71.1438235,42.2923235 69.9965588,39.7619706 C71.4735294,40.9729412 72.7789412,42.3850882 73.8613824,43.9643235" id="hair" fill="#383D40"></path>
                        <rect id="ear" fill="#EDC19C" x="4.47058824" y="53.6470588" width="68.7352941" height="13.4117647" rx="6.70588235"></rect>
                        <rect id="ear-hole" fill="#E6A973" x="7.26470588" y="57.5588235" width="63.1470588" height="5.58823529" rx="2.79411765"></rect>
                        <path d="M63.7058824,39.1349706 C58.7005,39.3009412 51.9705882,34.1055588 51.9705882,34.1055588 C52.5495294,36.746 57.5588235,40.8114412 57.5588235,40.8114412 C50.7249706,41.5122059 41.3529412,32.4290882 41.3529412,32.4290882 C41.2663235,34.2368824 43.5882353,40.2526176 43.5882353,40.2526176 C37.2254706,40.2794412 27.9411765,30.1937941 27.9411765,30.1937941 C27.4505294,31.9345294 27.9411765,40.2526176 27.9411765,40.2526176 C25.5857353,38.8337647 22.3529412,34.1055588 22.3529412,34.1055588 C20.7256471,41.4518529 14.5294118,43.6055588 14.5294118,43.6055588 C16.1885588,41.9592647 15.6470588,36.8996765 15.6470588,36.8996765 L10.0755882,46.0168824 C10.0705588,46.2376176 10.0588235,46.4566765 10.0588235,46.6790882 L10.0588235,55.0614412 C10.0588235,70.3385588 22.4434706,82.7232059 37.7205882,82.7232059 L39.9558824,82.7232059 C55.233,82.7232059 67.6176471,70.3385588 67.6176471,55.0614412 L67.6176471,46.9585 L63.7058824,39.1349706 Z" id="face" fill="#FDD9B7"></path>
                        <path d="M65.7914813,58.6256889 C65.0828931,59.3801007 64.054099,60.1317183 58.0651872,60.7838654 C52.0762755,61.4365712 46.6601578,60.7223948 45.8560107,60.0333654 C45.0524225,59.3443359 42.9305696,52.4451007 43.5670696,51.6817477 C44.2873931,50.8183654 49.2765696,48.5892183 56.4440402,48.5858654 C61.622099,48.5836301 65.2086284,48.9111007 66.3637166,49.8996595 C67.5188049,50.8882183 66.5000696,57.8712771 65.7914813,58.6256889 L65.7914813,58.6256889 Z M68.0468931,48.9250712 C66.8990696,47.4503359 62.9638343,46.9429242 56.4691872,46.9792477 C47.2351872,47.0301007 43.106599,49.9656007 39.0042755,50.0930124 L39.0042755,52.6233654 C39.0042755,52.6233654 40.576246,52.4316889 41.2608049,52.9150712 C41.9453637,53.3990124 43.0261284,59.9992771 44.7931284,61.0895418 C46.5595696,62.1798065 52.935746,62.551983 56.6653343,62.1602477 C60.3949225,61.7685124 65.612099,60.8833359 66.8694519,60.0193948 C68.1273637,59.1548948 69.1952755,50.4003654 68.0468931,48.9250712 L68.0468931,48.9250712 Z M32.1810402,60.0333654 C31.3774519,60.7223948 25.9607755,61.4365712 19.9718637,60.7838654 C13.9829519,60.1317183 12.9547166,59.3801007 12.2461284,58.6256889 C11.5375402,57.8712771 10.5188049,50.8882183 11.6733343,49.8996595 C12.8284225,48.9111007 16.4149519,48.5836301 21.5935696,48.5858654 C28.7604813,48.5892183 33.7496578,50.8183654 34.4705402,51.6817477 C35.1070402,52.4451007 32.9851872,59.3443359 32.1810402,60.0333654 L32.1810402,60.0333654 Z M39.0042755,50.0645124 C34.9058637,49.9371007 30.7806284,46.9943359 21.5561284,46.9429242 C15.0676284,46.9071595 11.1363049,47.4156889 9.98904016,48.8943359 C8.84233428,50.3724242 9.9091284,59.1487477 11.1653637,60.015483 C12.421599,60.8816595 17.633746,61.7690712 21.3599813,62.1613654 C25.0862166,62.5542183 31.4556872,62.181483 33.2204519,61.0884242 C34.9857755,59.9953654 36.0654225,53.3788948 36.7494225,52.8938359 C37.4334225,52.4087771 39.0042755,52.6010124 39.0042755,52.6010124 L39.0042755,50.0645124 Z" id="glass" fill="#221F20"></path>
                        <circle id="eye_l" fill="#383D40" cx="27.3823529" cy="54.7647059" r="2.23529412"></circle>
                        <ellipse id="eye_r" fill="#383D40" cx="51.4117647" cy="54.7647059" rx="2.23529412" ry="2.23529412"></ellipse>
                        <ellipse id="blush_r" fill="#FFB1A4" cx="57" cy="65.9411765" rx="2.79411765" ry="2.79411765"></ellipse>
                        <ellipse id="blush_l" fill="#FFB1A4" cx="20.6764706" cy="65.9411765" rx="2.79411765" ry="2.79411765"></ellipse>
                        <path d="M41.3529412,64.8235294 C41.3529412,64.8235294 39.1176471,67.0588235 36.3235294,64.8235294" id="nose" fill="#773A25"></path>
                        <path d="M38,73.7647059 C38,73.7647059 44.1470588,76.5588235 49.7352941,70.9705882" id="mouse" stroke="#773A25" stroke-linecap="round"></path>
                        <path d="M47.5,43.5882353 C47.5,43.5882353 54.2058824,43.0294118 58.1176471,44.1470588" id="eyebrow_r" stroke="#773A25" stroke-width="3" stroke-linecap="round"></path>
                        <path d="M19.5588235,43.5882353 C19.5588235,43.5882353 26.2647059,43.0294118 30.1764706,44.1470588" id="eyebrow_l" stroke="#773A25" stroke-width="3" stroke-linecap="round" transform="translate(24.867647, 43.797794) scale(-1, 1) translate(-24.867647, -43.797794) "></path>
                    </g>
                </g>
                <path d="M518,32.0000083 C520.762277,32.0049898 523,34.2472585 523,37 C523,39.7614237 520.768808,42 517.990776,42 L491.009224,42 C488.242706,42 486,39.7558048 486,37 C486,34.2385763 488.231192,32 491.009224,32 L495.004612,32 L501.00351,32 C502.649502,32 504,30.6568542 504,29 C504,27.3465171 502.658426,26 501.00351,26 L494.996428,26 L490.992856,26 C488.235378,26 486,23.7558048 486,21 C486,18.2385763 488.242047,16 490.992856,16 L500.996428,16 L511.00351,16 C512.649502,16 514,14.6568542 514,13 C514,11.3465171 512.658426,10 511.00351,10 L501.000016,10 L491.000032,10 C488.238591,10 486,7.75580481 486,5 C486,2.23857625 488.245531,0 491.000032,0 L530.999968,0 C533.761409,0 536,2.24419519 536,5 C536,7.76142375 533.754469,10 530.999968,10 L527.999984,10 L523.99649,10 C522.350498,10 521,11.3431458 521,13 C521,14.6534829 522.341574,16 523.99649,16 L535.501755,16 L558.007144,16 C560.764622,16 563,18.2441952 563,21 C563,23.7614237 560.757953,26 558.007144,26 L528.001755,26 L515.99649,26 C514.350498,26 513,27.3431458 513,29 C513,30.6534829 514.341574,32 515.99649,32 L518,32 Z M533,42 C535.761424,42 538,39.7614237 538,37 C538,34.2385763 535.761424,32 533,32 C530.238576,32 528,34.2385763 528,37 C528,39.7614237 530.238576,42 533,42 Z" id="cloud" fill="#C3E8FF"></path>
                <path d="M285.499984,60 L295.999968,60 C298.754469,60 301,57.7614237 301,55 C301,52.2441952 298.761409,50 295.999968,50 L256.000032,50 C253.245531,50 251,52.2385763 251,55 C251,57.7558048 253.238591,60 256.000032,60 L258.500016,60 L261,60 L261.00351,60 C262.658426,60 264,61.3465171 264,63 C264,64.6568542 262.649502,66 261.00351,66 L251.000502,66 L241.001003,66 C238.23479,66 236,68.2385763 236,71 C236,73.7558048 238.239025,76 241.001003,76 L278.998997,76 C281.76521,76 284,73.7614237 284,71 C284,68.2441952 281.760975,66 278.998997,66 L276.999498,66 L275,66 L273.99649,66 C272.341574,66 271,64.6534829 271,63 C271,61.3431458 272.350498,60 273.99649,60 L285.499984,60 Z M241,60 C243.761424,60 246,57.7614237 246,55 C246,52.2385763 243.761424,50 241,50 C238.238576,50 236,52.2385763 236,55 C236,57.7614237 238.238576,60 241,60 Z" id="cloud-copy" fill="#C3E8FF"></path>
                <path d="M127,152 C127,149.238576 129.245531,147 132.000032,147 L171.999968,147 C174.761409,147 177,149.244195 177,152 C177,154.761424 174.754469,157 171.999968,157 L132.000032,157 C129.238591,157 127,154.755805 127,152 Z M117,157 C119.761424,157 122,154.761424 122,152 C122,149.238576 119.761424,147 117,147 C114.238576,147 112,149.238576 112,152 C112,154.761424 114.238576,157 117,157 Z" id="cloud-copy-2" fill="#C3E8FF"></path>
                <path d="M257,192 C257,189.238576 259.236284,187 262.005322,187 L291.994678,187 C294.759041,187 297,189.244195 297,192 C297,194.761424 294.763716,197 291.994678,197 L262.005322,197 C259.240959,197 257,194.755805 257,192 Z M308,197 C310.761424,197 313,194.761424 313,192 C313,189.238576 310.761424,187 308,187 C305.238576,187 303,189.238576 303,192 C303,194.761424 305.238576,197 308,197 Z" id="cloud-copy-3" fill="#C3E8FF"></path>
            </g>
        </g>
    </g>
</svg>