<?xml version="1.0" encoding="UTF-8"?>
<svg width="44px" height="45px" viewBox="0 0 44 45" version="1.1" xmlns="http://www.w3.org/2000/svg" xmlns:xlink="http://www.w3.org/1999/xlink">
    <!-- Generator: Sketch 42 (36781) - http://www.bohemiancoding.com/sketch -->
    <title>facebook logo</title>
    <desc>Created with Sketch.</desc>
    <defs></defs>
    <g id="visaul" stroke="none" stroke-width="1" fill="none" fill-rule="evenodd">
        <g id="About" transform="translate(-782.000000, -946.000000)" fill="#3B5998">
            <g id="location" transform="translate(194.000000, 550.000000)">
                <g id="Group-3-Copy" transform="translate(588.000000, 396.000000)">
                    <path d="M24.1382535,22.2511914 C25.1911201,22.2511914 26.1754734,22.2433827 27.1595937,22.2552706 C27.5263958,22.2596994 27.7355476,22.163431 27.768406,21.7466563 C27.8626699,20.5504106 27.954254,19.3519504 28.1181963,18.1642126 C28.1983615,17.5829891 27.9845489,17.4286799 27.4729136,17.4335749 C26.5409938,17.4424326 25.608375,17.4197058 24.6768048,17.4419664 C24.2594334,17.4518729 24.0699733,17.3327612 24.0943258,16.8846352 C24.129165,16.2453709 24.1057447,15.603193 24.1293981,14.9629964 C24.1607417,14.1120815 24.6152827,13.6477554 25.4758928,13.6111594 C26.1738421,13.5814398 26.8738889,13.5827218 27.5724209,13.5971737 C28.0313896,13.6066141 28.2356476,13.457433 28.2220148,12.9574433 C28.1910208,11.8317089 28.1930016,10.7041097 28.2210827,9.57825874 C28.2337833,9.06976105 28.0509648,8.87967172 27.5466701,8.89727043 C26.1126696,8.94738595 24.6775039,8.96405227 23.2432703,9.00752457 C20.7836687,9.08211511 18.8535299,10.82462 18.5987026,13.2872733 C18.4772897,14.4598599 18.4891747,15.6488797 18.4897573,16.8304405 C18.4901068,17.3394044 18.3868709,17.5886999 17.8134804,17.5293772 C17.313963,17.4777465 16.8045416,17.530193 16.3001304,17.5150418 C15.9323961,17.5040863 15.7764936,17.6419623 15.7810378,18.024705 C15.7956027,19.2482229 15.7977,20.4720905 15.7801057,21.6956084 C15.7740467,22.1118003 15.962458,22.2487439 16.3403295,22.2428 C16.8256315,22.2349913 17.3153613,22.2791629 17.7955365,22.2278819 C18.3566924,22.1679763 18.4825331,22.3897666 18.4799697,22.9155134 C18.4612101,26.8389758 18.4777558,30.7625547 18.460744,34.6861336 C18.4582971,35.232859 18.6135005,35.4501039 19.1891049,35.4361182 C20.5670597,35.4027855 21.9462963,35.4263282 23.3250667,35.4250462 C24.1239217,35.4243469 24.1376709,35.4109439 24.137904,34.605133 C24.1387196,30.7398279 24.1382535,26.8746394 24.1382535,23.0093343 L24.1382535,22.2511914 M21.9669201,44.0935158 C9.85324526,44.1337247 -0.178699437,34.1441867 0.00237123968,21.7443254 C0.176101213,9.85191278 9.99982629,-0.126086993 22.4429007,0.0974515298 C34.2914946,0.310267663 44.2397786,10.1246344 43.9955546,22.5702991 C43.763099,34.4199386 34.0331718,44.1507407 21.9669201,44.0935158" id="facebook-logo"></path>
                </g>
            </g>
        </g>
    </g>
</svg>