<?xml version="1.0" encoding="UTF-8"?>
<svg width="260px" height="260px" viewBox="0 0 260 260" version="1.1" xmlns="http://www.w3.org/2000/svg" xmlns:xlink="http://www.w3.org/1999/xlink">
    <!-- Generator: Sketch 42 (36781) - http://www.bohemiancoding.com/sketch -->
    <title>icon/more</title>
    <desc>Created with Sketch.</desc>
    <defs>
        <circle id="path-1" cx="150.5" cy="15.5" r="5.5"></circle>
        <mask id="mask-2" maskContentUnits="userSpaceOnUse" maskUnits="objectBoundingBox" x="0" y="0" width="11" height="11" fill="white">
            <use xlink:href="#path-1"></use>
        </mask>
        <circle id="path-3" cx="74" cy="44" r="7"></circle>
        <mask id="mask-4" maskContentUnits="userSpaceOnUse" maskUnits="objectBoundingBox" x="0" y="0" width="14" height="14" fill="white">
            <use xlink:href="#path-3"></use>
        </mask>
    </defs>
    <g id="Symbols" stroke="none" stroke-width="1" fill="none" fill-rule="evenodd">
        <g id="icon/more">
            <g transform="translate(36.000000, 24.000000)">
                <g id="box" transform="translate(0.000000, 51.000000)">
                    <polygon id="Rectangle-3" fill="#0CADE3" points="93.9498999 0.888945677 171.658034 35.9095074 93.9498999 79.9918817 16.2417655 35.9095074"></polygon>
                    <polygon id="Rectangle-3-Copy-5" fill="#37CDFF" points="93.9498999 0.888945677 93.9498999 79.9918817 16.2417655 35.9095074"></polygon>
                    <polygon id="Rectangle-3-Copy-2" fill="#E82D0F" points="171.661999 101.173677 171.658034 35.9095074 93.9498999 79.9918817 93.9538645 155.21012"></polygon>
                    <polygon id="Rectangle-3-Copy-3" fill="#FFCD46" points="187.85556 63.8889457 171.658034 35.9095074 93.9498999 79.9918817 117.279501 108.418941"></polygon>
                    <polygon id="Rectangle-3-Copy" fill="#FF583D" points="15.4528302 102.102239 93.9459353 155.21012 93.9498999 79.9918817 16.2417655 35.9095074"></polygon>
                    <polygon id="Rectangle-3-Copy-4" fill="#FFCD46" transform="translate(46.997070, 72.164224) scale(-1, 1) translate(-46.997070, -72.164224) " points="93.9498999 63.8889457 77.7523738 35.9095074 0.0442394757 79.9918817 23.373841 108.418941"></polygon>
                </g>
                <polygon id="Star" fill="#FFD52B" transform="translate(126.993858, 69.406837) rotate(14.000000) translate(-126.993858, -69.406837) " points="126.993858 76.916633 119.581246 80.8136738 120.996929 72.5596091 115 66.714048 123.287552 65.5097962 126.993858 58 130.700164 65.5097962 138.987716 66.714048 132.990787 72.5596091 134.40647 80.8136738"></polygon>
                <polygon id="Star-Copy" fill="#FFD52B" transform="translate(49.597298, 48.118148) rotate(33.000000) translate(-49.597298, -48.118148) " points="49.5972984 58.7586279 39.0945165 64.2802671 41.1003694 52.5852476 32.6034403 44.3027887 44.3459075 42.5965084 49.5972984 31.9560281 54.8486894 42.5965084 66.5911565 44.3027887 58.0942274 52.5852476 60.1000803 64.2802671"></polygon>
                <polygon id="Star-Copy-2" fill="#FFD52B" transform="translate(123.996548, 19.193954) rotate(-24.000000) translate(-123.996548, -19.193954) " points="123.996548 28.5821608 114.729835 33.4539606 116.499619 23.135323 109.00269 15.8276233 119.363191 14.3221544 123.996548 4.93394773 128.629905 14.3221544 138.990407 15.8276233 131.493477 23.135323 133.263262 33.4539606"></polygon>
                <use id="Oval-8" stroke="#38CDFF" mask="url(#mask-2)" stroke-width="6" xlink:href="#path-1"></use>
                <use id="Oval-8-Copy" stroke="#38CDFF" mask="url(#mask-4)" stroke-width="6" xlink:href="#path-3"></use>
                <polygon id="Star-Copy-3" fill="#FFD52B" transform="translate(80.593548, 11.497180) rotate(-24.000000) translate(-80.593548, -11.497180) " points="80.5935485 15.8762925 76.2711065 18.1487347 77.0966194 13.3356248 73.5996904 9.92696146 78.4323275 9.22473819 80.5935485 4.84562613 82.7547695 9.22473819 87.5874066 9.92696146 84.0904775 13.3356248 84.9159905 18.1487347"></polygon>
                <polygon id="Star-Copy-4" fill="#FFD52B" transform="translate(80.593548, 106.497180) rotate(21.000000) translate(-80.593548, -106.497180) " points="80.5935485 110.876292 76.2711065 113.148735 77.0966194 108.335625 73.5996904 104.926961 78.4323275 104.224738 80.5935485 99.8456261 82.7547695 104.224738 87.5874066 104.926961 84.0904775 108.335625 84.9159905 113.148735"></polygon>
            </g>
        </g>
    </g>
</svg>