<?xml version="1.0" encoding="UTF-8"?>
<svg width="260px" height="260px" viewBox="0 0 260 260" version="1.1" xmlns="http://www.w3.org/2000/svg" xmlns:xlink="http://www.w3.org/1999/xlink">
    <!-- Generator: Sketch 42 (36781) - http://www.bohemiancoding.com/sketch -->
    <title>icon/robot</title>
    <desc>Created with Sketch.</desc>
    <defs>
        <ellipse id="path-1" cx="25.9387755" cy="24.2653061" rx="13.3877551" ry="13.3877551"></ellipse>
        <mask id="mask-2" maskContentUnits="userSpaceOnUse" maskUnits="objectBoundingBox" x="-4" y="-4" width="34.7755102" height="34.7755102">
            <rect x="8.55102041" y="6.87755102" width="34.7755102" height="34.7755102" fill="white"></rect>
            <use xlink:href="#path-1" fill="black"></use>
        </mask>
    </defs>
    <g id="Symbols" stroke="none" stroke-width="1" fill="none" fill-rule="evenodd">
        <g id="icon/robot">
            <g transform="translate(27.000000, 22.000000)">
                <rect id="Rectangle-9" fill="#3A4652" x="101" y="11" width="5" height="17"></rect>
                <ellipse id="Oval-3" fill="#FF583D" cx="103" cy="8" rx="8" ry="8"></ellipse>
                <ellipse id="Oval-4-Copy-3" fill="#00AA9E" cx="103" cy="45" rx="25" ry="25"></ellipse>
                <g id="foot/r" transform="translate(111.469388, 182.857143)">
                    <rect id="Rectangle-10" fill="#00AA9E" x="14.5306122" y="0.142857143" width="16" height="22"></rect>
                    <path d="M44.5306122,36.1428571 C44.5306122,23.9925926 34.6808767,14.1428571 22.5306122,14.1428571 C10.3803477,14.1428571 0.530612245,23.9925926 0.530612245,36.1428571" id="Oval-5" fill="#FF583D"></path>
                </g>
                <g id="foot/l" transform="translate(51.897959, 182.857143)">
                    <rect id="Rectangle-10-Copy" fill="#00AA9E" x="14.1020408" y="0.142857143" width="16" height="22"></rect>
                    <path d="M44.1020408,36.1428571 C44.1020408,23.9925926 34.2523053,14.1428571 22.1020408,14.1428571 C9.95177632,14.1428571 0.102040816,23.9925926 0.102040816,36.1428571" id="Oval-5-Copy" fill="#FF583D"></path>
                </g>
                <path d="M39,95.0056794 C39,59.104034 68.0935982,30 104,30 L104,30 C139.898509,30 169,59.094668 169,95.0056794 L169,172.9933 C169,181.281271 162.284383,188 153.992139,188 L54.0078608,188 C45.7192482,188 39,181.28669 39,172.9933 L39,95.0056794 Z" id="body" fill="#FFCD46"></path>
                <g id="signal" transform="translate(67.000000, 161.000000)" fill="#3A4652">
                    <rect id="Rectangle-11" x="0" y="0" width="3" height="14" rx="1.5"></rect>
                    <rect id="Rectangle-11-Copy" x="8" y="0" width="3" height="14" rx="1.5"></rect>
                    <rect id="Rectangle-11-Copy-2" x="16" y="0" width="3" height="14" rx="1.5"></rect>
                    <rect id="Rectangle-11-Copy-3" x="24" y="0" width="3" height="14" rx="1.5"></rect>
                    <rect id="Rectangle-11-Copy-4" x="32" y="0" width="3" height="14" rx="1.5"></rect>
                    <rect id="Rectangle-11-Copy-5" x="40" y="0" width="3" height="14" rx="1.5"></rect>
                    <rect id="Rectangle-11-Copy-6" x="48" y="0" width="3" height="14" rx="1.5"></rect>
                    <rect id="Rectangle-11-Copy-7" x="56" y="0" width="3" height="14" rx="1.5"></rect>
                    <rect id="Rectangle-11-Copy-8" x="64" y="0" width="3" height="14" rx="1.5"></rect>
                    <rect id="Rectangle-11-Copy-9" x="72" y="0" width="3" height="14" rx="1.5"></rect>
                </g>
                <g id="eye" transform="translate(79.653061, 48.122449)">
                    <ellipse id="Oval-4" fill="#FFFFFF" cx="25.9387755" cy="25.9387755" rx="25.9387755" ry="25.9387755"></ellipse>
                    <g id="Oval-4-Copy-2">
                        <use fill="#000000" fill-rule="evenodd" xlink:href="#path-1"></use>
                        <use stroke="#FFCD46" mask="url(#mask-2)" stroke-width="8" xlink:href="#path-1"></use>
                    </g>
                    <path d="M51.877551,25.9387755 C51.877551,11.6131854 40.2643657,0 25.9387755,0 C11.6131854,0 0,11.6131854 0,25.9387755" id="Oval-4-Copy" fill="#00AA9E"></path>
                </g>
                <g id="arm/l" transform="translate(0.000000, 129.959184)">
                    <polyline id="Path-2" stroke="#3A4652" stroke-width="6" points="33 0.0408163265 13 36.4651922 13 55.0408163"></polyline>
                    <path d="M0,67 C0,59.8202983 5.82029825,54 13,54 C20.1797017,54 26,59.8202983 26,67 L21,67 C21,62.581722 17.418278,59 13,59 C8.581722,59 5,62.581722 5,67 L0,67 Z" id="Combined-Shape" fill="#FF583D"></path>
                    <ellipse id="Oval-2" fill="#00AA9E" cx="14" cy="36.0408163" rx="8" ry="8"></ellipse>
                </g>
                <g id="arm/r" transform="translate(171.530612, 129.959184)">
                    <polyline id="Path-2-Copy" stroke="#3A4652" stroke-width="6" transform="translate(10.469388, 27.540816) scale(-1, 1) translate(-10.469388, -27.540816) " points="20.4693878 0.0408163265 0.469387755 36.4651922 0.469387755 55.0408163"></polyline>
                    <path d="M8,67 C8,59.8202983 13.8202983,54 21,54 C28.1797017,54 34,59.8202983 34,67 L29,67 C29,62.581722 25.418278,59 21,59 C16.581722,59 13,62.581722 13,67 L8,67 Z" id="Combined-Shape" fill="#FF583D"></path>
                    <circle id="Oval-2-Copy" fill="#00AA9E" cx="19.4693878" cy="36.0408163" r="8"></circle>
                </g>
                <rect id="Rectangle-7-Copy" fill="#00AA9E" x="25" y="121" width="158" height="25" rx="12.5"></rect>
                <rect id="Rectangle-7" fill="#FF583D" x="34" y="118" width="140" height="33" rx="4"></rect>
            </g>
        </g>
    </g>
</svg>