<?xml version="1.0" encoding="UTF-8"?>
<svg width="135px" height="133px" viewBox="0 0 135 133" version="1.1" xmlns="http://www.w3.org/2000/svg" xmlns:xlink="http://www.w3.org/1999/xlink">
    <!-- Generator: Sketch 42 (36781) - http://www.bohemiancoding.com/sketch -->
    <title>icon/video</title>
    <desc>Created with Sketch.</desc>
    <defs></defs>
    <g id="visaul" stroke="none" stroke-width="1" fill="none" fill-rule="evenodd">
        <g id="Home" transform="translate(-971.000000, -1802.000000)">
            <g id="feature" transform="translate(253.000000, 1079.000000)">
                <g id="Group-2" transform="translate(0.000000, 211.000000)">
                    <g id="Group" transform="translate(679.000000, 512.000000)">
                        <g id="icon/video" transform="translate(39.000000, 0.000000)">
                            <g transform="translate(0.394167, 0.130762)">
                                <rect id="Rectangle-path" fill="#22364B" x="27.3171364" y="0.169757291" width="79.4944525" height="132.316237"></rect>
                                <path d="M134.075945,0.169757291 L134.075945,132.485994 L106.37664,132.485994 L106.37664,0.169757291 L134.075945,0.169757291 Z M124.305207,121.682971 C126.551044,121.68017 128.369472,119.857218 128.366672,117.611166 L128.352238,106.392535 C128.349437,104.146483 126.526485,102.32827 124.280648,102.331071 L116.147378,102.341411 C113.901541,102.344212 112.083113,104.167379 112.086129,106.413216 L112.100347,117.632062 C112.103148,119.877899 113.9261,121.696112 116.172152,121.693311 L124.305207,121.682971 Z M124.305207,91.2223086 C126.551044,91.219508 128.369472,89.396556 128.366672,87.1507187 L128.352238,75.931873 C128.349437,73.6860357 126.526485,71.8676077 124.280648,71.8704083 L116.147378,71.8807488 C113.901541,71.8837648 112.083113,73.7067168 112.086129,75.9525541 L112.100347,87.1713998 C112.103148,89.4172371 113.9261,91.2356651 116.172152,91.2326491 L124.305207,91.2223086 Z M124.305207,60.7616463 C126.551044,60.7588457 128.369472,58.9358937 128.366672,56.6900564 L128.352238,45.4712107 C128.349437,43.2253735 126.526485,41.4069454 124.280648,41.409746 L116.147378,41.4200865 C113.901541,41.4231025 112.083113,43.2460546 112.086129,45.4918918 L112.100347,56.7107375 C112.103148,58.9565748 113.9261,60.7750028 116.172152,60.7719868 L124.305207,60.7616463 Z M124.305207,30.3011994 C126.551044,30.2981834 128.369472,28.4752314 128.366672,26.2293942 L128.352238,15.0105484 C128.349437,12.7647112 126.526485,10.9462832 124.280648,10.9492992 L116.147378,10.9596397 C113.901541,10.9624403 112.083113,12.7853923 112.086129,15.0312295 L112.100347,26.2500753 C112.103148,28.4959125 113.9261,30.3143405 116.172152,30.31154 L124.305207,30.3011994 Z" id="Shape" fill="#22364B"></path>
                                <path d="M27.7520856,0.169757291 L27.7520856,132.485994 L0.0529952963,132.485994 L0.0529952963,0.169757291 L27.7520856,0.169757291 Z M17.9813471,121.682971 C20.2271844,121.68017 22.0456124,119.857218 22.0428119,117.611166 L22.0283782,106.392535 C22.0255776,104.146483 20.2026256,102.32827 17.9567883,102.331071 L9.82373377,102.341411 C7.57768109,102.344212 5.75946849,104.167379 5.76226905,106.413216 L5.7764873,117.632062 C5.77928786,119.877899 7.60245532,121.696112 9.84829257,121.693311 L17.9813471,121.682971 Z M17.9813471,91.2223086 C20.2271844,91.219508 22.0456124,89.396556 22.0428119,87.1507187 L22.0283782,75.931873 C22.0255776,73.6860357 20.2026256,71.8676077 17.9567883,71.8704083 L9.82373377,71.8807488 C7.57768109,71.8837648 5.75946849,73.7067168 5.76226905,75.9525541 L5.7764873,87.1713998 C5.77928786,89.4172371 7.60245532,91.2356651 9.84829257,91.2326491 L17.9813471,91.2223086 Z M17.9813471,60.7616463 C20.2271844,60.7588457 22.0456124,58.9358937 22.0428119,56.6900564 L22.0283782,45.4712107 C22.0255776,43.2253735 20.2026256,41.4069454 17.9567883,41.409746 L9.82373377,41.4200865 C7.57768109,41.4231025 5.75946849,43.2460546 5.76226905,45.4918918 L5.7764873,56.7107375 C5.77928786,58.9565748 7.60245532,60.7750028 9.84829257,60.7719868 L17.9813471,60.7616463 Z M17.9813471,30.3011994 C20.2271844,30.2981834 22.0456124,28.4752314 22.0428119,26.2293942 L22.0283782,15.0105484 C22.0255776,12.7647112 20.2026256,10.9462832 17.9567883,10.9492992 L9.82373377,10.9596397 C7.57768109,10.9624403 5.75946849,12.7853923 5.76226905,15.0312295 L5.7764873,26.2500753 C5.77928786,28.4959125 7.60245532,30.3143405 9.84829257,30.31154 L17.9813471,30.3011994 Z" id="Shape" fill="#22364B"></path>
                                <path d="M106.37664,32.7768984 C106.37664,28.6719172 103.048923,25.3442004 98.9439417,25.3442004 L35.1847836,25.3442004 C31.0798024,25.3442004 27.7520856,28.6719172 27.7520856,32.7768984 L27.7520856,99.8788532 C27.7520856,103.983834 31.0798024,107.311551 35.1847836,107.311551 L98.9439417,107.311551 C103.048923,107.311551 106.37664,103.983834 106.37664,99.8788532 L106.37664,32.7768984 Z" id="Shape" fill="#D8D8D8"></path>
                                <path d="M106.811589,0.169757291 L106.811589,13.4029442 C106.811589,16.0425169 103.465561,18.1822954 99.3377441,18.1822954 L35.2259304,18.1822954 C31.0983293,18.1822954 27.7520856,16.0425169 27.7520856,13.4029442 L27.7520856,0.169757291 L106.811589,0.169757291 Z" id="Shape" fill="#D8D8D8"></path>
                                <path d="M106.811589,132.485994 L106.811589,119.252807 C106.811589,116.613235 103.465561,114.473456 99.3377441,114.473456 L35.2259304,114.473456 C31.0983293,114.473456 27.7520856,116.613235 27.7520856,119.252807 L27.7520856,132.485994 L106.811589,132.485994 Z" id="Shape" fill="#D8D8D8"></path>
                                <ellipse id="Oval" fill="#FF583D" cx="67.2818373" cy="66.3278758" rx="31.5296162" ry="31.5296162"></ellipse>
                                <polygon id="Shape" fill="#FFF5F5" points="89.1072822 66.3278758 56.2284403 84.3807451 56.2284403 48.2747912"></polygon>
                            </g>
                        </g>
                    </g>
                </g>
            </g>
        </g>
    </g>
</svg>