<?xml version="1.0" encoding="UTF-8"?>
<svg width="260px" height="260px" viewBox="0 0 260 260" version="1.1" xmlns="http://www.w3.org/2000/svg" xmlns:xlink="http://www.w3.org/1999/xlink">
    <!-- Generator: Sketch 42 (36781) - http://www.bohemiancoding.com/sketch -->
    <title>icon/video</title>
    <desc>Created with Sketch.</desc>
    <defs></defs>
    <g id="Symbols" stroke="none" stroke-width="1" fill="none" fill-rule="evenodd">
        <g id="icon/video">
            <g transform="translate(58.000000, 57.000000)">
                <g id="Group-2">
                    <rect id="Rectangle-path" fill="#363F51" x="29.340628" y="0.182331905" width="85.3829305" height="142.11744"></rect>
                    <path d="M144.007497,0.182331905 L144.007497,142.299772 L114.256391,142.299772 L114.256391,0.182331905 L144.007497,0.182331905 Z M133.513,130.696524 C135.925196,130.693516 137.878322,128.735531 137.875314,126.323104 L137.859811,114.273464 C137.856803,111.861037 135.898818,109.908142 133.486622,109.91115 L124.750888,109.922256 C122.338692,109.925264 120.385566,111.883481 120.388805,114.295677 L120.404077,126.345548 C120.407085,128.757744 122.36507,130.710639 124.777497,130.707631 L133.513,130.696524 Z M133.513,97.9795166 C135.925196,97.9765086 137.878322,96.0185231 137.875314,93.6063275 L137.859811,81.5564562 C137.856803,79.1442606 135.898818,77.1911342 133.486622,77.1941422 L124.750888,77.2052487 C122.338692,77.2084881 120.385566,79.1664736 120.388805,81.5786692 L120.404077,93.6285405 C120.407085,96.0407361 122.36507,97.9938625 124.777497,97.9906231 L133.513,97.9795166 Z M133.513,65.262509 C135.925196,65.259501 137.878322,63.3015155 137.875314,60.8893199 L137.859811,48.8394486 C137.856803,46.427253 135.898818,44.4741266 133.486622,44.4771346 L124.750888,44.4882411 C122.338692,44.4914805 120.385566,46.449466 120.388805,48.8616616 L120.404077,60.9115329 C120.407085,63.3237285 122.36507,65.2768549 124.777497,65.2736155 L133.513,65.262509 Z M133.513,32.5457327 C135.925196,32.5424933 137.878322,30.5845078 137.875314,28.1723123 L137.859811,16.1224409 C137.856803,13.7102454 135.898818,11.757119 133.486622,11.7603583 L124.750888,11.7714649 C122.338692,11.7744729 120.385566,13.7324584 120.388805,16.1446539 L120.404077,28.1945253 C120.407085,30.6067208 122.36507,32.5598473 124.777497,32.5568392 L133.513,32.5457327 Z" id="Shape" fill="#363F51"></path>
                    <path d="M29.8077957,0.182331905 L29.8077957,142.299772 L0.0569208738,142.299772 L0.0569208738,0.182331905 L29.8077957,0.182331905 Z M19.3132988,130.696524 C21.7254943,130.693516 23.6786207,128.735531 23.6756127,126.323104 L23.6601099,114.273464 C23.6571019,111.861037 21.6991164,109.908142 19.2869208,109.91115 L10.5514178,109.922256 C8.1389908,109.925264 6.18609578,111.883481 6.18910379,114.295677 L6.20437525,126.345548 C6.20738326,128.757744 8.16560015,130.710639 10.5777957,130.707631 L19.3132988,130.696524 Z M19.3132988,97.9795166 C21.7254943,97.9765086 23.6786207,96.0185231 23.6756127,93.6063275 L23.6601099,81.5564562 C23.6571019,79.1442606 21.6991164,77.1911342 19.2869208,77.1941422 L10.5514178,77.2052487 C8.1389908,77.2084881 6.18609578,79.1664736 6.18910379,81.5786692 L6.20437525,93.6285405 C6.20738326,96.0407361 8.16560015,97.9938625 10.5777957,97.9906231 L19.3132988,97.9795166 Z M19.3132988,65.262509 C21.7254943,65.259501 23.6786207,63.3015155 23.6756127,60.8893199 L23.6601099,48.8394486 C23.6571019,46.427253 21.6991164,44.4741266 19.2869208,44.4771346 L10.5514178,44.4882411 C8.1389908,44.4914805 6.18609578,46.449466 6.18910379,48.8616616 L6.20437525,60.9115329 C6.20738326,63.3237285 8.16560015,65.2768549 10.5777957,65.2736155 L19.3132988,65.262509 Z M19.3132988,32.5457327 C21.7254943,32.5424933 23.6786207,30.5845078 23.6756127,28.1723123 L23.6601099,16.1224409 C23.6571019,13.7102454 21.6991164,11.757119 19.2869208,11.7603583 L10.5514178,11.7714649 C8.1389908,11.7744729 6.18609578,13.7324584 6.18910379,16.1446539 L6.20437525,28.1945253 C6.20738326,30.6067208 8.16560015,32.5598473 10.5777957,32.5568392 L19.3132988,32.5457327 Z" id="Shape" fill="#363F51"></path>
                    <path d="M114.256391,35.2048168 C114.256391,30.7957629 110.682176,27.2215486 106.273123,27.2215486 L37.7910639,27.2215486 C33.38201,27.2215486 29.8077957,30.7957629 29.8077957,35.2048168 L29.8077957,107.277287 C29.8077957,111.686341 33.38201,115.260555 37.7910639,115.260555 L106.273123,115.260555 C110.682176,115.260555 114.256391,111.686341 114.256391,107.277287 L114.256391,35.2048168 Z" id="Shape" fill="#D8D8D8"></path>
                    <path d="M114.723558,0.182331905 L114.723558,14.3957549 C114.723558,17.2308515 111.129676,19.5291321 106.696096,19.5291321 L37.8352586,19.5291321 C33.4019092,19.5291321 29.8077957,17.2308515 29.8077957,14.3957549 L29.8077957,0.182331905 L114.723558,0.182331905 Z" id="Shape" fill="#D8D8D8"></path>
                    <path d="M114.723558,142.299772 L114.723558,128.086349 C114.723558,125.251252 111.129676,122.952972 106.696096,122.952972 L37.8352586,122.952972 C33.4019092,122.952972 29.8077957,125.251252 29.8077957,128.086349 L29.8077957,142.299772 L114.723558,142.299772 Z" id="Shape" fill="#D8D8D8"></path>
                </g>
                <ellipse id="Oval" fill="#FF583D" cx="72" cy="73" rx="32" ry="32"></ellipse>
                <path d="M90.6042478,71.4044329 C92.5389203,72.4667211 92.5435863,74.1864583 90.6042478,75.2512958 L64.7314746,89.4573251 C62.7968022,90.5196006 61.2284403,89.5902452 61.2284403,87.3788227 L61.2284403,59.2767135 C61.2284403,57.0665128 62.7921362,56.1333839 64.7314746,57.1982341 L90.6042478,71.4044329 Z" id="Shape" fill="#FFF5F5"></path>
            </g>
        </g>
    </g>
</svg>