<?xml version="1.0" encoding="UTF-8"?>
<svg width="40px" height="42px" viewBox="0 0 40 42" version="1.1" xmlns="http://www.w3.org/2000/svg" xmlns:xlink="http://www.w3.org/1999/xlink">
    <!-- Generator: Sketch 41.2 (35397) - http://www.bohemiancoding.com/sketch -->
    <title>logo</title>
    <desc>Created with Sketch.</desc>
    <defs></defs>
    <g id="Symbols" stroke="none" stroke-width="1" fill="none" fill-rule="evenodd">
        <g id="logo">
            <g id="slowslab" transform="translate(6.000000, 6.000000)">
                <path d="M3.75,27.75 C3.75,27.75 8.43302885,29.2531731 9,29.25 C9.56697115,29.2467548 9.23077644,19.2639663 9.23077644,19.2639663 C9.23077644,19.2639663 6.17306971,20.6446875 3.75,27.75 Z" id="Fill-1" fill="#C27E15"></path>
                <path d="M15.6490385,21.4274279 C14.7535096,22.3561298 12.589399,27.1649279 12.6923077,30.9466587 C12.6923077,30.9466587 8.80903846,30.3901442 5.12019231,29.5764663 C5.12019231,29.5764663 5.04144231,23.8982452 9.15865385,19.4803125 C9.15865385,19.4803125 14.9027163,20.99625 15.6490385,21.4274279" id="Fill-3" fill="#ECBF37"></path>
                <path d="M28.0240385,13.8553197 C28.0240385,13.8553197 22.3557692,14.7928197 18.6057692,16.2351274 C21.1298077,17.100512 26.0035096,18.1374519 29.25,18" id="Fill-5" fill="#2572AC"></path>
                <path d="M28.4134615,8.08608173 C28.4134615,8.08608173 29.4420433,12.9852404 30,15.7303125 C30,15.7303125 23.8331971,17.0700721 18.4615385,16.1630048 L17.4519231,9.45627404 C17.4519231,9.45627404 22.6996875,9.55882212 28.4134615,8.08608173" id="Fill-7" fill="#5EB7F1"></path>
                <path d="M8.13461538,2.88461538e-05 C8.13461538,2.88461538e-05 11.6169952,7.33394712 10.9615385,10.3216875 L3.75,2.67745673 L8.13461538,2.88461538e-05 Z" id="Fill-9" fill="#8B181A"></path>
                <path d="M0,5.27358173 L5.40865385,0.153389423 C5.40865385,0.153389423 8.76858173,3.09490385 11.0336538,9.09569712 C7.78161058,10.9473317 5.98557692,13.0620433 5.98557692,13.0620433 C5.98557692,13.0620433 4.93903846,9.40867788 0,5.27358173" id="Fill-11" fill="#DF242B"></path>
                <path d="M13.125,15.3697356 C13.3231731,14.6496635 11.6014904,9.15 11.1057692,8.80723558 C10.9661538,8.80997596 10.9071635,8.77197115 10.6730769,8.80723558 C9.52427885,8.98024038 7.63096154,10.1825481 5.76923077,12.9178125 C5.76923077,12.9178125 8.15408654,19.7247115 8.58173077,19.768774 C9.51425481,18.4228846 11.2833173,16.2970673 12.5480769,15.5139663 C12.7716346,15.3755769 12.8936538,15.3251683 13.125,15.3697356" id="Fill-13" fill="#5EB7F1"></path>
                <path d="M11.1057692,8.73512019 C11.4076442,9.10608173 12.8617788,13.1721635 13.125,14.9370433 C13.1577404,15.1566346 13.1418029,15.3483173 13.0528846,15.441851 C13.6757452,15.8859375 15.9917308,16.3171154 19.0384615,16.5235817 C19.1338702,16.4001923 19.2535817,16.2111779 19.3047115,15.9734135 C19.461274,15.2447596 19.1589663,12.5369712 17.6682692,9.23992788 C17.6682692,9.23992788 13.7202404,8.37302885 11.1057692,8.73512019" id="Fill-15" fill="#EDBF36"></path>
                <path d="M19.1826923,16.5235817 C18.3326683,18.1161779 17.0692067,20.0839183 15.5048077,21.8601202 C12.4492067,21.4812981 9.81742788,20.937476 9.01442308,20.2014663 C8.78697115,19.9929808 8.74384615,19.8938221 8.58173077,19.6966587 C8.58173077,19.6966587 8.66682692,18.9009375 10.0961538,17.3889663 C10.6794952,16.771875 11.635601,15.9618029 12.7644231,15.2255048 C13.0279327,15.0536538 12.9266106,15.3765865 13.125,15.5139663 C13.3233894,15.6513462 15.1191346,16.2328125 19.1826923,16.5235817" id="Fill-17" fill="#DE242B"></path>
            </g>
        </g>
    </g>
</svg>