<?xml version="1.0" encoding="UTF-8"?>
<svg width="169px" height="42px" viewBox="0 0 169 42" version="1.1" xmlns="http://www.w3.org/2000/svg" xmlns:xlink="http://www.w3.org/1999/xlink">
    <!-- Generator: Sketch 41.2 (35397) - http://www.bohemiancoding.com/sketch -->
    <title>logo</title>
    <desc>Created with Sketch.</desc>
    <defs></defs>
    <g id="Symbols" stroke="none" stroke-width="1" fill="none" fill-rule="evenodd">
        <g id="logo" fill="#4A4A4A">
            <path d="M9.17773438,15.0395508 L9.17773438,31.2138672 L6.33349609,31.2138672 L6.33349609,15.0395508 L2,15.0395508 L2,12.3662109 L13.4990234,12.3662109 L13.4990234,15.0395508 L9.17773438,15.0395508 Z M15.9119468,25.1835938 C15.9119468,23.4664628 16.5263612,22.0057026 17.7552085,20.8012695 C18.9840558,19.5968364 20.4814366,18.9946289 22.247396,18.9946289 C24.0214934,18.9946289 25.5270122,19.6009054 26.7639976,20.8134766 C27.9847068,22.0260477 28.5950522,23.5152906 28.5950522,25.28125 C28.5950522,27.0634855 27.9806378,28.5567974 26.7517905,29.7612305 C25.5148052,30.9575255 23.9970795,31.5556641 22.1985679,31.5556641 C20.4163324,31.5556641 18.9230205,30.9453186 17.7185874,29.7246094 C16.5141543,28.5201763 15.9119468,27.0065195 15.9119468,25.1835938 Z M18.719564,25.2324219 C18.719564,26.4205789 19.0369436,27.3605109 19.6717124,28.0522461 C20.3227573,28.7521194 21.1813099,29.1020508 22.247396,29.1020508 C23.3216201,29.1020508 24.1801727,28.7561884 24.8230796,28.0644531 C25.4659864,27.3727179 25.7874351,26.4490618 25.7874351,25.293457 C25.7874351,24.1378523 25.4659864,23.2141962 24.8230796,22.5224609 C24.1720347,21.8225876 23.3134821,21.4726562 22.247396,21.4726562 C21.1975861,21.4726562 20.3471714,21.8225876 19.6961265,22.5224609 C19.0450815,23.2223342 18.719564,24.1256455 18.719564,25.2324219 Z M33.5836592,19.3242188 L36.3424482,19.3242188 L36.3424482,20.4228516 C37.3027395,19.4706984 38.3850854,18.9946289 39.5895185,18.9946289 C40.972989,18.9946289 42.051266,19.4300087 42.8243818,20.3007812 C43.4917029,21.0413448 43.8253584,22.2498289 43.8253584,23.9262695 L43.8253584,31.2138672 L41.0665693,31.2138672 L41.0665693,24.5732422 C41.0665693,23.4013613 40.9038105,22.5916364 40.5782881,22.144043 C40.2609037,21.6883115 39.68311,21.4604492 38.8448896,21.4604492 C37.9334268,21.4604492 37.2864606,21.761553 36.9039717,22.3637695 C36.5296208,22.957848 36.3424482,23.9954353 36.3424482,25.4765625 L36.3424482,31.2138672 L33.5836592,31.2138672 L33.5836592,19.3242188 Z M49.3754888,19.3242188 L52.1342778,19.3242188 L52.1342778,20.4228516 C53.0945691,19.4706984 54.176915,18.9946289 55.3813481,18.9946289 C56.7648186,18.9946289 57.8430956,19.4300087 58.6162114,20.3007812 C59.2835325,21.0413448 59.617188,22.2498289 59.617188,23.9262695 L59.617188,31.2138672 L56.8583989,31.2138672 L56.8583989,24.5732422 C56.8583989,23.4013613 56.6956401,22.5916364 56.3701177,22.144043 C56.0527333,21.6883115 55.4749396,21.4604492 54.6367192,21.4604492 C53.7252563,21.4604492 53.0782901,21.761553 52.6958013,22.3637695 C52.3214504,22.957848 52.1342778,23.9954353 52.1342778,25.4765625 L52.1342778,31.2138672 L49.3754888,31.2138672 L49.3754888,19.3242188 Z M68.5120449,29.0043945 L63.1653652,19.3242188 L66.3514004,19.3242188 L69.9890957,26.1601562 L73.3826504,19.3242188 L76.4832363,19.3242188 L67.0105801,37.6835938 L63.873373,37.6835938 L68.5120449,29.0043945 Z M88.3688159,20.7280273 L91.7623706,24.8295898 L91.8722339,24.7075195 C92.2384466,24.3087545 92.5843091,23.9181334 92.9098315,23.5356445 C93.235354,23.1531556 93.5486647,22.7666035 93.8497729,22.3759766 L95.7052417,24.2802734 C95.477376,24.6057959 95.1783067,24.9842101 94.8080249,25.4155273 C94.4377431,25.8468446 93.9962599,26.3432589 93.483562,26.9047852 L96.9747729,31.2138672 L93.4347339,31.2138672 L91.5548511,28.9067383 C89.829582,30.6889738 88.0351664,31.5800781 86.1715503,31.5800781 C84.5032477,31.5800781 83.0872462,31.0470431 81.9235034,29.980957 C80.7841748,28.9067329 80.214519,27.5802488 80.214519,26.0014648 C80.214519,24.1215726 81.1178303,22.5590883 82.92448,21.3139648 L84.1573901,20.4716797 C84.1736662,20.4635416 84.202149,20.4431968 84.2428393,20.4106445 C84.2835296,20.3780923 84.3404952,20.3333336 84.4137378,20.2763672 C83.1686144,18.9498632 82.546062,17.6437239 82.546062,16.3579102 C82.546062,15.0883726 82.9610969,14.0548542 83.7911792,13.2573242 C84.6375376,12.4597942 85.7280215,12.0610352 87.0626636,12.0610352 C88.3566153,12.0610352 89.4267544,12.4475873 90.2731128,13.2207031 C91.1194712,13.993819 91.542644,14.9703717 91.542644,16.1503906 C91.542644,16.9641968 91.3107127,17.7006803 90.8468432,18.3598633 C90.3911118,19.0190463 89.5651109,19.8084264 88.3688159,20.7280273 Z M86.1105151,22.3271484 L85.9518237,22.4370117 C84.7880809,23.2426798 83.9946318,23.889646 83.5714526,24.3779297 C83.1564115,24.8662134 82.948894,25.3829725 82.948894,25.9282227 C82.948894,26.7094766 83.2622047,27.4256152 83.8888354,28.0766602 C84.5398804,28.7032909 85.256019,29.0166016 86.0372729,29.0166016 C87.1359112,29.0166016 88.4013608,28.2963939 89.8336596,26.855957 L86.1105151,22.3271484 Z M86.7208667,18.7260742 L86.9528003,18.5551758 C87.3515653,18.2540675 87.6811518,17.991619 87.9415698,17.7678223 C88.2019878,17.5440256 88.3891604,17.3548185 88.5030932,17.2001953 C88.7472351,16.899087 88.8693042,16.5288108 88.8693042,16.0893555 C88.8693042,15.5929337 88.7024764,15.1901057 88.3688159,14.8808594 C88.0351554,14.571613 87.5875687,14.4169922 87.0260425,14.4169922 C86.5133446,14.4169922 86.0820338,14.575682 85.7320971,14.8930664 C85.3821605,15.1941747 85.2071948,15.5807268 85.2071948,16.0527344 C85.2071948,16.6061226 85.4269192,17.1513645 85.8663745,17.6884766 L86.5743823,18.5429688 C86.5987965,18.5836591 86.6476241,18.6446936 86.7208667,18.7260742 Z M111.973145,15.1738281 L109.666017,16.5410156 C109.234699,15.792314 108.823733,15.3040376 108.433106,15.0761719 C108.026203,14.8157539 107.501306,14.6855469 106.858399,14.6855469 C106.069007,14.6855469 105.413903,14.9093402 104.893067,15.3569336 C104.372231,15.7963889 104.111817,16.3497688 104.111817,17.0170898 C104.111817,17.9366908 104.795404,18.6772433 106.162599,19.2387695 L108.042481,20.0078125 C109.572437,20.6263052 110.691404,21.3810991 111.399415,22.2722168 C112.107426,23.1633345 112.461427,24.2558529 112.461427,25.5498047 C112.461427,27.2832118 111.883633,28.7154891 110.728028,29.8466797 C109.564285,30.9860083 108.119801,31.5556641 106.394532,31.5556641 C104.758782,31.5556641 103.407884,31.0714567 102.341798,30.1030273 C101.291988,29.134598 100.636884,27.7714932 100.376466,26.0136719 L103.257325,25.3789062 C103.387534,26.4856826 103.615396,27.2506489 103.940919,27.6738281 C104.526859,28.4876343 105.381343,28.8945312 106.504395,28.8945312 C107.391444,28.8945312 108.127928,28.5974965 108.713868,28.003418 C109.299809,27.4093395 109.592774,26.6565801 109.592774,25.7451172 C109.592774,25.3789044 109.541912,25.0432144 109.440187,24.7380371 C109.338461,24.4328598 109.179771,24.1521009 108.964112,23.895752 C108.748454,23.639403 108.469729,23.3993338 108.127931,23.1755371 C107.786132,22.9517404 107.379235,22.7381195 106.907228,22.534668 L105.08838,21.777832 C102.508614,20.6873318 101.218751,19.0922957 101.218751,16.9926758 C101.218751,15.5766531 101.759924,14.3925829 102.842286,13.4404297 C103.924648,12.4801384 105.271477,12 106.882813,12 C109.055676,12 110.752436,13.0579321 111.973145,15.1738281 Z M120.196616,19.3242188 L120.196616,26.1479492 C120.196616,28.1173601 120.973789,29.1020508 122.528159,29.1020508 C124.082528,29.1020508 124.859702,28.1173601 124.859702,26.1479492 L124.859702,19.3242188 L127.606284,19.3242188 L127.606284,26.2089844 C127.606284,27.1611376 127.488284,27.9830695 127.25228,28.6748047 C127.024414,29.2932974 126.629724,29.8507462 126.068198,30.347168 C125.140459,31.1528361 123.960457,31.5556641 122.528159,31.5556641 C121.103998,31.5556641 119.928066,31.1528361 119.000327,30.347168 C118.430662,29.8507462 118.027834,29.2932974 117.791831,28.6748047 C117.563965,28.1214165 117.450034,27.2994846 117.450034,26.2089844 L117.450034,19.3242188 L120.196616,19.3242188 Z M133.156414,19.3242188 L135.915203,19.3242188 L135.915203,20.4228516 C136.875494,19.4706984 137.95784,18.9946289 139.162273,18.9946289 C140.545744,18.9946289 141.624021,19.4300087 142.397137,20.3007812 C143.064458,21.0413448 143.398113,22.2498289 143.398113,23.9262695 L143.398113,31.2138672 L140.639324,31.2138672 L140.639324,24.5732422 C140.639324,23.4013613 140.476565,22.5916364 140.151043,22.144043 C139.833659,21.6883115 139.255865,21.4604492 138.417645,21.4604492 C137.506182,21.4604492 136.859215,21.761553 136.476727,22.3637695 C136.102376,22.957848 135.915203,23.9954353 135.915203,25.4765625 L135.915203,31.2138672 L133.156414,31.2138672 L133.156414,19.3242188 Z M148.948244,19.3242188 L151.694826,19.3242188 L151.694826,20.4228516 C152.2238,19.8694634 152.675455,19.4951182 153.049806,19.2998047 C153.448571,19.0963531 153.949054,18.9946289 154.551271,18.9946289 C155.894051,18.9946289 156.956052,19.5805605 157.737306,20.7524414 C158.599941,19.5805605 159.767735,18.9946289 161.240724,18.9946289 C163.918146,18.9946289 165.256837,20.6181478 165.256837,23.8652344 L165.256837,31.2138672 L162.498048,31.2138672 L162.498048,24.6098633 C162.498048,23.4705347 162.359703,22.6648787 162.083009,22.1928711 C161.798177,21.7127255 161.330246,21.4726562 160.679201,21.4726562 C159.922361,21.4726562 159.371016,21.7574841 159.025148,22.3271484 C158.67928,22.8968127 158.506349,23.8123309 158.506349,25.0737305 L158.506349,31.2138672 L155.74756,31.2138672 L155.74756,24.6464844 C155.74756,22.5305884 155.137215,21.4726562 153.916505,21.4726562 C153.143389,21.4726562 152.579837,21.7615531 152.225832,22.3393555 C151.871826,22.9171578 151.694826,23.8286071 151.694826,25.0737305 L151.694826,31.2138672 L148.948244,31.2138672 L148.948244,19.3242188 Z" id="Tonny&amp;Sunm"></path>
        </g>
    </g>
</svg>