<?xml version="1.0" encoding="UTF-8"?>
<svg width="61px" height="22px" viewBox="0 0 61 22" version="1.1" xmlns="http://www.w3.org/2000/svg" xmlns:xlink="http://www.w3.org/1999/xlink">
    <g id="web2" stroke="none" stroke-width="1" fill="none" fill-rule="evenodd">
        <g id="2" transform="translate(-975.000000, -148.000000)" fill="#4A4A4A">
            <g id="head">
                <path d="M978.223633,151.274414 L981.756836,160.344727 L985.448242,150.615234 L988.981445,160.344727 L992.734375,151.274414 L994.958008,151.274414 L988.893555,165.706055 L985.404297,156.09082 L981.765625,165.714844 L976,151.274414 L978.223633,151.274414 Z M996.24707,160.50293 C996.24707,159.266595 996.689449,158.214848 997.574219,157.347656 C998.458989,156.480464 999.537103,156.046875 1000.80859,156.046875 C1002.08594,156.046875 1003.16992,156.483394 1004.06055,157.356445 C1004.93946,158.229497 1005.37891,159.301751 1005.37891,160.573242 C1005.37891,161.856452 1004.93653,162.931636 1004.05176,163.798828 C1003.16113,164.660161 1002.06837,165.09082 1000.77344,165.09082 C999.490228,165.09082 998.415043,164.651372 997.547852,163.772461 C996.68066,162.905269 996.24707,161.815436 996.24707,160.50293 Z M998.268555,160.538086 C998.268555,161.393559 998.497068,162.07031 998.954102,162.568359 C999.422854,163.072268 1000.04101,163.324219 1000.80859,163.324219 C1001.58204,163.324219 1002.20019,163.075198 1002.66309,162.577148 C1003.12598,162.079099 1003.35742,161.414067 1003.35742,160.582031 C1003.35742,159.749996 1003.12598,159.084963 1002.66309,158.586914 C1002.19433,158.083005 1001.57618,157.831055 1000.80859,157.831055 C1000.05273,157.831055 999.440432,158.083005 998.97168,158.586914 C998.502927,159.090823 998.268555,159.741207 998.268555,160.538086 Z M1008.9707,156.28418 L1010.94824,156.28418 L1010.94824,157.048828 C1011.31153,156.667967 1011.63379,156.407227 1011.91504,156.266602 C1012.20215,156.120116 1012.54199,156.046875 1012.93457,156.046875 C1013.45606,156.046875 1014.00097,156.216795 1014.56934,156.556641 L1013.66406,158.367188 C1013.28906,158.097655 1012.92285,157.962891 1012.56543,157.962891 C1011.4873,157.962891 1010.94824,158.777336 1010.94824,160.40625 L1010.94824,164.844727 L1008.9707,164.844727 L1008.9707,156.28418 Z M1019.45312,150 L1019.45312,159.052734 L1022.23926,156.28418 L1024.89355,156.28418 L1021.17578,159.878906 L1025.16602,164.844727 L1022.59961,164.844727 L1019.76953,161.232422 L1019.45312,161.548828 L1019.45312,164.844727 L1017.47559,164.844727 L1017.47559,150 L1019.45312,150 Z M1032.91504,157.743164 L1031.28027,158.613281 C1031.02246,158.085935 1030.70313,157.822266 1030.32227,157.822266 C1030.14062,157.822266 1029.98535,157.882324 1029.85645,158.002441 C1029.72754,158.122559 1029.66309,158.276366 1029.66309,158.463867 C1029.66309,158.791994 1030.04394,159.117186 1030.80566,159.439453 C1031.8545,159.890627 1032.56055,160.306639 1032.92383,160.6875 C1033.28711,161.068361 1033.46875,161.581051 1033.46875,162.225586 C1033.46875,163.051762 1033.16407,163.743161 1032.55469,164.299805 C1031.96289,164.827151 1031.24805,165.09082 1030.41016,165.09082 C1028.9746,165.09082 1027.95801,164.390632 1027.36035,162.990234 L1029.04785,162.208008 C1029.28223,162.618166 1029.46094,162.878906 1029.58398,162.990234 C1029.82422,163.212892 1030.11133,163.324219 1030.44531,163.324219 C1031.11328,163.324219 1031.44727,163.019534 1031.44727,162.410156 C1031.44727,162.058592 1031.18946,161.73047 1030.67383,161.425781 C1030.47461,161.326171 1030.27539,161.229493 1030.07617,161.135742 C1029.87695,161.041992 1029.67481,160.945313 1029.46973,160.845703 C1028.8955,160.564452 1028.49121,160.283205 1028.25684,160.001953 C1027.95801,159.644529 1027.80859,159.184573 1027.80859,158.62207 C1027.80859,157.877926 1028.06347,157.262698 1028.57324,156.776367 C1029.09473,156.290037 1029.72754,156.046875 1030.47168,156.046875 C1031.56739,156.046875 1032.38183,156.612299 1032.91504,157.743164 Z" id="Works"></path>
            </g>
        </g>
    </g>
</svg>