<?xml version="1.0" encoding="UTF-8"?>
<svg width="20px" height="100%" viewBox="0 0 23 23" version="1.1" xmlns="http://www.w3.org/2000/svg" xmlns:xlink="http://www.w3.org/1999/xlink">
    <g id="web" stroke="none" stroke-width="1" fill="none" fill-rule="evenodd">
        <g id="works" transform="translate(-546.000000, -608.000000)" fill-rule="nonzero" fill="#9B9B9B">
            <path d="M568.361505,608.239173 L546.652684,608.239173 L546.652684,610.864096 L568.361505,610.864096 L568.361505,608.239173 L568.361505,608.239173 Z M563.097471,627.961567 L564.431215,623.350216 L567.013572,623.350216 L567.013572,612.864713 L547.986428,612.864713 L547.986428,623.350216 L550.526218,623.350216 L551.916718,627.961567 L546,627.961567 L546,630.58649 L569,630.58649 L569,627.961567 L563.097471,627.961567 Z M551.264035,620.711104 L551.264035,615.489636 L563.750154,615.489636 L563.750154,620.711104 L551.264035,620.711104 Z M560.415793,627.919001 L554.598396,627.919001 L553.207896,623.350216 L561.763726,623.350216 L560.415793,627.919001 Z" id="douban"></path>
        </g>
    </g>
</svg>