<svg width="20px" height="100%" viewBox="0 0 26 26" version="1.1" xmlns="http://www.w3.org/2000/svg">
	<g id="web2" stroke="none" stroke-width="1" fill="none" fill-rule="evenodd">
	    <g id="works" transform="translate(-804.000000, -446.000000)" stroke="#9B9B9B" fill="#9B9B9B">
	        <g id="Group-Copy-2" transform="translate(345.000000, 257.000000)">
	            <path d="M475.864835,203.238659 C476.517479,205.615741 477.155693,207.94004 477.815897,210.344631 C480.127898,208.682771 481.50328,206.498937 482.02141,203.679655 C479.946656,203.079453 477.928766,202.945521 475.864835,203.238659 M474.364731,199.837228 C474.468323,200.076036 474.673616,200.455482 474.798682,200.859686 C474.976661,201.434443 475.332961,201.530722 475.894899,201.511982 C477.204139,201.468656 478.517675,201.484646 479.826744,201.540178 C480.580403,201.572157 481.328909,201.728096 482.178258,201.841225 C482.049584,199.498873 481.391442,197.479746 480.071894,195.887001 C478.129764,197.231309 476.271127,198.517849 474.364731,199.837228 M473.49408,197.999485 C475.498227,197.178699 477.302577,196.151083 478.63879,194.434379 C476.621586,192.295418 472.096365,191.172381 469.812367,192.210313 C471.01939,194.10823 472.225211,196.004429 473.49408,197.999485 M462.022719,199.88554 C465.232172,199.846684 468.259179,199.472568 471.423105,198.629947 C470.132247,196.622855 468.910449,194.722874 467.671644,192.796589 C464.680713,194.338958 462.857637,196.60463 462.022719,199.88554 M461.836667,201.778643 C461.763139,204.488406 462.646846,206.730696 464.372344,208.764437 C466.554469,205.525134 469.297672,203.1594 473.01718,201.951603 C472.815151,201.504589 472.68579,201.090586 472.450433,200.749996 C472.329661,200.575144 471.983153,200.398058 471.800537,200.448089 C468.584556,201.330598 465.298312,201.678409 461.836667,201.778643 M473.890237,203.73897 C470.437009,204.780513 467.030681,207.489244 465.81524,210.079861 C466.051285,210.252993 466.288532,210.452774 466.549315,210.614902 C469.006825,212.141282 471.653481,212.573854 474.454923,211.878404 C476.328163,211.413338 475.992134,211.452709 475.628618,209.953838 C475.126293,207.882272 474.486189,205.844062 473.890237,203.73897 M471.970269,214 C465.369435,213.99914 460.011529,208.643228 460.000019,202.034129 C459.988337,195.388925 465.364625,189.996391 471.997756,190.000002 C478.568526,190.003612 483.982952,195.40629 483.999959,201.976189 C484.017139,208.582021 478.595669,214.000688 471.970269,214" id="dribbble"></path>
	        </g>
	    </g>
	</g>
</svg>