<?xml version="1.0" encoding="UTF-8"?>
<svg width="553px" height="472px" viewBox="0 0 553 472" version="1.1" xmlns="http://www.w3.org/2000/svg" xmlns:xlink="http://www.w3.org/1999/xlink">
    <!-- Generator: Sketch 41.2 (35397) - http://www.bohemiancoding.com/sketch -->
    <title>introduction</title>
    <desc>Created with Sketch.</desc>
    <defs>
        <path d="M28,16 L36,16 L36,0 L20,0 L20,2 L7.99865244,2 C4.13681838,2 1,5.13400675 1,9 L1,16 L28,16 Z" id="path-1"></path>
        <path d="M28,16 L36,16 L36,0 L20,0 L20,2 L7.99865244,2 C4.13681838,2 1,5.13400675 1,9 L1,16 L28,16 Z" id="path-3"></path>
        <path d="M103.30989,0.989638645 C111.031937,7.89976898 115.807921,18.0142011 115.622021,29.2856801 L115,67 L98.2080259,67 L98.2080259,174 L18.0479573,174 L18.0479573,67 L2,67 L1.00560691,29.2718687 C0.720419584,18.4516156 5.02335839,8.69601172 12.146322,1.82060339 C25.3192288,6.62371783 40.4850721,9.35944607 56.6249903,9.35944607 C73.6737773,9.35944607 89.6356966,6.30693489 103.30989,0.989638645 Z" id="path-5"></path>
    </defs>
    <g id="Symbols" stroke="none" stroke-width="1" fill="none" fill-rule="evenodd">
        <g id="introduction">
            <g id="1">
                <g id="avatar/Tonny2" transform="translate(141.000000, 0.000000)">
                    <g id="Tonny">
                        <g id="body" transform="translate(0.000000, 135.000000)">
                            <rect id="leg_l" fill="#F2CA99" x="38" y="301" width="14" height="19"></rect>
                            <rect id="leg_r" fill="#F2CA99" x="96" y="301" width="14" height="19"></rect>
                            <g id="shoes_l" transform="translate(17.000000, 316.000000)">
                                <rect id="sole" fill="#321503" x="0" y="16" width="37" height="3" rx="1.5"></rect>
                                <mask id="mask-2" fill="white">
                                    <use xlink:href="#path-1"></use>
                                </mask>
                                <use id="Mask" fill="#A86934" xlink:href="#path-1"></use>
                                <path d="M40,29 C46.0751322,29 51,24.0751322 51,18 C51,11.9248678 46.0751322,7 40,7 C33.9248678,7 29,11.9248678 29,18 C29,24.0751322 33.9248678,29 40,29 Z M40,27 C44.9705627,27 49,22.9705627 49,18 C49,13.0294373 44.9705627,9 40,9 C35.0294373,9 31,13.0294373 31,18 C31,22.9705627 35.0294373,27 40,27 Z" id="Combined-Shape" fill="#331604" mask="url(#mask-2)"></path>
                                <path d="M-1,39 C8.38884075,39 16,31.3888407 16,22 C16,12.6111593 8.38884075,5 -1,5 C-10.3888407,5 -18,12.6111593 -18,22 C-18,31.3888407 -10.3888407,39 -1,39 Z M-1,37 C7.28427125,37 14,30.2842712 14,22 C14,13.7157288 7.28427125,7 -1,7 C-9.28427125,7 -16,13.7157288 -16,22 C-16,30.2842712 -9.28427125,37 -1,37 Z" id="Combined-Shape-Copy" fill="#331604" mask="url(#mask-2)"></path>
                                <path d="M11.6823751,11.986555 C20.7548671,11.6284106 28,4.16030105 28,-5 C28,-14.3888407 20.3888407,-22 11,-22 C1.61115925,-22 -6,-14.3888407 -6,-5 C-6,-1.22078054 -4.76680689,2.27041124 -2.68087101,5.09312501 C-2.12906748,5.03159533 -1.56822348,5 -1,5 C-0.718042945,5 -0.437902884,5.00777948 -0.159782752,5.0231355 C-2.54731808,2.36660138 -4,-1.14705329 -4,-5 C-4,-13.2842712 2.71572875,-20 11,-20 C19.2842712,-20 26,-13.2842712 26,-5 C26,3.28427125 19.2842712,10 11,10 C10.7180429,10 10.4379029,9.99222052 10.1597828,9.9768645 C10.7212607,10.6016031 11.2310365,11.2737449 11.6823751,11.986555 Z" id="Combined-Shape-Copy-2" fill="#331604" mask="url(#mask-2)"></path>
                            </g>
                            <g id="shoes_r" transform="translate(112.500000, 325.500000) scale(-1, 1) translate(-112.500000, -325.500000) translate(94.000000, 316.000000)">
                                <rect id="sole-copy" fill="#321503" x="0" y="16" width="37" height="3" rx="1.5"></rect>
                                <mask id="mask-4" fill="white">
                                    <use xlink:href="#path-3"></use>
                                </mask>
                                <use id="Mask" fill="#A86934" xlink:href="#path-3"></use>
                                <path d="M40,29 C46.0751322,29 51,24.0751322 51,18 C51,11.9248678 46.0751322,7 40,7 C33.9248678,7 29,11.9248678 29,18 C29,24.0751322 33.9248678,29 40,29 Z M40,27 C44.9705627,27 49,22.9705627 49,18 C49,13.0294373 44.9705627,9 40,9 C35.0294373,9 31,13.0294373 31,18 C31,22.9705627 35.0294373,27 40,27 Z" id="Combined-Shape" fill="#331604" mask="url(#mask-4)"></path>
                                <path d="M-1,39 C8.38884075,39 16,31.3888407 16,22 C16,12.6111593 8.38884075,5 -1,5 C-10.3888407,5 -18,12.6111593 -18,22 C-18,31.3888407 -10.3888407,39 -1,39 Z M-1,37 C7.28427125,37 14,30.2842712 14,22 C14,13.7157288 7.28427125,7 -1,7 C-9.28427125,7 -16,13.7157288 -16,22 C-16,30.2842712 -9.28427125,37 -1,37 Z" id="Combined-Shape-Copy" fill="#331604" mask="url(#mask-4)"></path>
                                <path d="M11.6823751,11.986555 C20.7548671,11.6284106 28,4.16030105 28,-5 C28,-14.3888407 20.3888407,-22 11,-22 C1.61115925,-22 -6,-14.3888407 -6,-5 C-6,-1.22078054 -4.76680689,2.27041124 -2.68087101,5.09312501 C-2.12906748,5.03159533 -1.56822348,5 -1,5 C-0.718042945,5 -0.437902884,5.00777948 -0.159782752,5.0231355 C-2.54731808,2.36660138 -4,-1.14705329 -4,-5 C-4,-13.2842712 2.71572875,-20 11,-20 C19.2842712,-20 26,-13.2842712 26,-5 C26,3.28427125 19.2842712,10 11,10 C10.7180429,10 10.4379029,9.99222052 10.1597828,9.9768645 C10.7212607,10.6016031 11.2310365,11.2737449 11.6823751,11.986555 Z" id="Combined-Shape-Copy-2" fill="#331604" mask="url(#mask-4)"></path>
                            </g>
                            <polygon id="pants" fill="#202737" points="31 139 31 160 31.301 160 34 312 55 312 52.302 160 94.698 160 92 312 113 312 115.698 160 116.001 160 116.001 139"></polygon>
                            <path d="M134.58179,40.7212353 L134.638949,40.7212353 C128.406574,26.7431904 114.394494,17 98.1083561,17 L90.6999766,17 C87.9703105,23.464 81.5744362,28 74.1200791,28 C66.665722,28 60.2698476,23.464 57.5401816,17 L50.131802,17 C36.0134544,17 23.6040719,24.3220502 16.4904408,35.3776114 C15.3904198,36.5597215 14.4640258,37.941019 13.7704858,39.4987355 L1.17126729,67.7970435 C0.721462176,68.8073223 1.17223089,69.9871511 2.17707582,70.4345369 L25.9445742,81.016509 C26.9437888,81.461388 28.1282788,81.0084044 28.577631,79.9991428 L30.9843694,74.5935199 L30.9843694,88 L31.1410827,88 L31.1410827,139 L116.099564,139 L116.099564,95.7212353 L115.994627,95.7212353 L115.994627,72.7315826 L119.230353,79.9991428 C119.679705,81.0084044 120.864195,81.461388 121.86341,81.016509 L145.630908,70.4345369 C146.635753,69.9871511 147.086522,68.8073223 146.636717,67.7970435 L134.58179,40.7212353 Z" id="Combined-Shape" fill="#5EB7F1"></path>
                            <path d="M1.45167115,88.150249 L8.1483167,73.1093368 L20.9379531,78.8036498 L16.6052726,88.5350096 L57.8003401,106.021278 C61.355105,107.530186 63.0199387,111.641527 61.5093748,115.200193 C60.0018846,118.751617 55.8891115,120.419055 52.3301043,118.908346 L4.46508914,98.5908528 C0.910324218,97.0819446 -0.754509464,92.9706038 0.75605444,89.4119383 C0.947902233,88.9599732 1.18194488,88.538521 1.45167115,88.150249 Z" id="Combined-Shape" fill="#FDD9B7"></path>
                            <path d="M86.4516711,88.150249 L93.1483167,73.1093368 L105.937953,78.8036498 L101.605273,88.5350096 L142.80034,106.021278 C146.355105,107.530186 148.019939,111.641527 146.509375,115.200193 C145.001885,118.751617 140.889111,120.419055 137.330104,118.908346 L89.4650891,98.5908528 C85.9103242,97.0819446 84.2454905,92.9706038 85.7560544,89.4119383 C85.9479022,88.9599732 86.1819449,88.538521 86.4516711,88.150249 Z" id="Combined-Shape-Copy-3" fill="#FDD9B7" transform="translate(116.132715, 96.287518) scale(-1, 1) translate(-116.132715, -96.287518) "></path>
                            <path d="M74,96 C83,96 90.0001,95 90.0001,95 C90.0001,95 89.0651,103.487 92.2181,112.22 C95.5591,121.472 105.0001,131 105.0001,131 C105.0001,131 92,133 73,133 C54,133 41.0001,131 41.0001,131 C41.0001,131 49.2291,123.485 53.3381,114.238 C57.2221,105.499 57.0001,95 57.0001,95 C57.0001,95 65,96 74,96 Z" id="pocket" fill="#4C9ACC"></path>
                            <path d="M90,95 C90,95 88,116 105,131" id="pocket_line_r" stroke="#FFFFFF" stroke-width="2"></path>
                            <path d="M42,95 C42,95 40,116 57,131" id="pocket_line_l" stroke="#FFFFFF" stroke-width="2" transform="translate(49.463719, 113.000000) scale(-1, 1) translate(-49.463719, -113.000000) "></path>
                            <path d="M74.2102662,0 C25.6142662,0 37.2102662,19 37.2102662,19 L74.2102662,39 L111.517266,19 C111.517266,19 123.210266,0 74.2102662,0" id="hat" fill="#4C9ACC"></path>
                            <path d="M75.0001,1 L73.0001,1 C68.0291,1 64.0001,5.029 64.0001,10 L64.0001,21 L74.0001,34 L84.0001,21 L84.0001,10 C84.0001,5.029 79.9711,1 75.0001,1" id="neck" fill="#FDD9B7"></path>
                            <path d="M79,33 C79,33 83.3674418,40 82,59" id="string_r" stroke="#FFFFFF" stroke-width="2"></path>
                            <circle id="circle" fill="#FFFFFF" cx="82" cy="59" r="2"></circle>
                            <circle id="circle-copy" fill="#FFFFFF" cx="63" cy="56" r="2"></circle>
                            <path d="M69,32 C69,32 63,38 63,56" id="string_l" stroke="#FFFFFF" stroke-width="2"></path>
                            <path d="M64,18 L64,12 C64,12 84.0249844,10.2426407 84.0249844,12 C81,16 64,18 64,18 Z" id="neck_shadow-copy" fill="#EDC19C"></path>
                        </g>
                        <g id="head" transform="translate(2.000000, 0.000000)">
                            <path d="M132.173,78.673 C133.014,75.422 133.463,72.014 133.463,68.5 C133.463,60.121 130.918,52.338 126.56,45.878 C128.981,46.912 131.268,48.198 133.382,49.711 C132.224,31.264 117.176,16.593 98.573,16.028 C87.939,6.09 73.665,0 57.963,0 C29.717,0 6.086,19.688 0,46.085 C3.084,43.032 6.493,40.312 10.155,37.95 C5.274,46.164 2.463,55.752 2.463,66 C2.463,69.316 2.773,72.559 3.335,75.714 C4.882,72.17 7.022,68.949 9.605,66.144 C8.856,69.812 8.463,73.61 8.463,77.5 C8.463,108.704 33.759,134 64.963,134 C71.959,134 78.647,132.709 84.828,130.382 C78.189,126.643 72.869,120.854 69.694,113.882 C75.898,118.954 83.824,122 92.463,122 C112.345,122 128.463,105.882 128.463,86 C128.463,80.704 127.31,75.681 125.257,71.153 C127.9,73.32 130.236,75.847 132.173,78.673" id="hair" fill="#383D40"></path>
                            <rect id="ear" fill="#EDC19C" x="8" y="96" width="123" height="24" rx="12"></rect>
                            <rect id="ear-hole" fill="#E6A973" x="13" y="103" width="113" height="10" rx="5"></rect>
                            <path d="M114,70.031 C105.043,70.328 93,61.031 93,61.031 C94.036,65.756 103,73.031 103,73.031 C90.771,74.285 74,58.031 74,58.031 C73.845,61.266 78,72.031 78,72.031 C66.614,72.079 50,54.031 50,54.031 C49.122,57.146 50,72.031 50,72.031 C45.785,69.492 40,61.031 40,61.031 C37.088,74.177 26,78.031 26,78.031 C28.969,75.085 28,66.031 28,66.031 L18.03,82.346 C18.021,82.741 18,83.133 18,83.531 L18,98.531 C18,125.869 40.162,148.031 67.5,148.031 L71.5,148.031 C98.838,148.031 121,125.869 121,98.531 L121,84.031 L114,70.031 Z" id="face" fill="#FDD9B7"></path>
                            <path d="M117.732124,104.909127 C116.464124,106.259127 114.623124,107.604127 103.906124,108.771127 C93.1891245,109.939127 83.4971245,108.661127 82.0581245,107.428127 C80.6201245,106.195127 76.8231245,93.8491275 77.9621245,92.4831275 C79.2511245,90.9381275 88.1791245,86.9491275 101.005124,86.9431275 C110.271124,86.9391275 116.689124,87.5251275 118.756124,89.2941275 C120.823124,91.0631275 119.000124,103.559127 117.732124,104.909127 L117.732124,104.909127 Z M121.768124,87.5501275 C119.714124,84.9111275 112.672124,84.0031275 101.050124,84.0681275 C84.5261245,84.1591275 77.1381245,89.4121275 69.7971245,89.6401275 L69.7971245,94.1681275 C69.7971245,94.1681275 72.6101245,93.8251275 73.8351245,94.6901275 C75.0601245,95.5561275 76.9941245,107.367127 80.1561245,109.318127 C83.3171245,111.269127 94.7271245,111.935127 101.401124,111.234127 C108.075124,110.533127 117.411124,108.949127 119.661124,107.403127 C121.912124,105.856127 123.823124,90.1901275 121.768124,87.5501275 L121.768124,87.5501275 Z M57.5871245,107.428127 C56.1491245,108.661127 46.4561245,109.939127 35.7391245,108.771127 C25.0221245,107.604127 23.1821245,106.259127 21.9141245,104.909127 C20.6461245,103.559127 18.8231245,91.0631275 20.8891245,89.2941275 C22.9561245,87.5251275 29.3741245,86.9391275 38.6411245,86.9431275 C51.4661245,86.9491275 60.3941245,90.9381275 61.6841245,92.4831275 C62.8231245,93.8491275 59.0261245,106.195127 57.5871245,107.428127 L57.5871245,107.428127 Z M69.7971245,89.5891275 C62.4631245,89.3611275 55.0811245,84.0951275 38.5741245,84.0031275 C26.9631245,83.9391275 19.9281245,84.8491275 17.8751245,87.4951275 C15.8231245,90.1401275 17.7321245,105.845127 19.9801245,107.396127 C22.2281245,108.946127 31.5551245,110.534127 38.2231245,111.236127 C44.8911245,111.939127 56.2891245,111.272127 59.4471245,109.316127 C62.6061245,107.360127 64.5381245,95.5201275 65.7621245,94.6521275 C66.9861245,93.7841275 69.7971245,94.1281275 69.7971245,94.1281275 L69.7971245,89.5891275 Z" id="glass" fill="#221F20"></path>
                            <circle id="eye_l" fill="#383D40" cx="49" cy="98" r="4"></circle>
                            <circle id="eye_r" fill="#383D40" cx="92" cy="98" r="4"></circle>
                            <circle id="blush_r" fill="#FFB1A4" cx="102" cy="118" r="5"></circle>
                            <circle id="blush_l" fill="#FFB1A4" cx="37" cy="118" r="5"></circle>
                            <path d="M74,116 C74,116 70,120 65,116" id="nose" fill="#773A25"></path>
                            <path d="M68,132 C68,132 79,137 89,127" id="mouse" stroke="#773A25" stroke-width="2" stroke-linecap="round"></path>
                            <path d="M85,78 C85,78 97,77 104,79" id="eyebrow_r" stroke="#773A25" stroke-width="3" stroke-linecap="round"></path>
                            <path d="M35,78 C35,78 47,77 54,79" id="eyebrow_l" stroke="#773A25" stroke-width="3" stroke-linecap="round" transform="translate(44.500000, 78.375000) scale(-1, 1) translate(-44.500000, -78.375000) "></path>
                            <path d="M25,26 C25,26 39,11 59,12" id="Path-2" stroke="#FFFFFF" stroke-width="2" stroke-linecap="round"></path>
                            <path d="M63,12 C63,12 66,12 68,13" id="Path-3" stroke="#FFFFFF" stroke-width="2" stroke-linecap="round"></path>
                        </g>
                    </g>
                </g>
                <g id="avatar/Sunm2" transform="translate(276.000000, 48.000000)">
                    <g id="Sunm-Copy">
                        <g id="body" transform="translate(20.000000, 125.000000)">
                            <path d="M48.7731092,287 L46,177 L34,177 L34.9243697,287 L18.0056458,287 C15.2383594,287 13,289.238576 13,292 L13,297 L49,297 L49,287 L48.7731092,287 Z" id="leg_l" fill="#FFE2C8"></path>
                            <path d="M98.7731092,287 L96,177 L84,177 L84.9243697,287 L68.0056458,287 C65.2383594,287 63,289.238576 63,292 L63,297 L99,297 L99,287 L98.7731092,287 Z" id="leg_r" fill="#FFE2C8" transform="translate(81.000000, 237.000000) scale(-1, 1) translate(-81.000000, -237.000000) "></path>
                            <path d="M22,287 L17.0069123,287 C14.2352052,287 12,289.238576 12,292 L12,296.004602 C12,296.544336 12.4463163,297 12.9968754,297 L49.0031246,297 C49.5467697,297 50,296.554345 50,296.004602 L50,293 L23.991617,293 C22.8916773,293 22,292.10294 22,290.994141 L22,287 Z" id="shoes_l" fill="#202739"></path>
                            <path d="M72,287 L67.0069123,287 C64.2352052,287 62,289.238576 62,292 L62,296.004602 C62,296.544336 62.4463163,297 62.9968754,297 L99.0031246,297 C99.5467697,297 100,296.554345 100,296.004602 L100,293 L73.991617,293 C72.8916773,293 72,292.10294 72,290.994141 L72,287 Z" id="shoes_r" fill="#202739" transform="translate(81.000000, 292.000000) scale(-1, 1) translate(-81.000000, -292.000000) "></path>
                            <path d="M4.4336531,39 C9.90320506,24.395963 23.9898485,14 40.50486,14 L48,14 L48,0 L68,0 L68,14 L75.49514,14 C92.0108932,14 106.098023,24.3940398 111.567059,39 L4.4336531,39 Z" fill="#FFE2C8"></path>
                            <rect id="hand_l" fill="#FFE2C6" transform="translate(17.000000, 118.500000) rotate(-10.000000) translate(-17.000000, -118.500000) " x="10" y="76" width="14" height="85" rx="7"></rect>
                            <rect id="hand_l-copy" fill="#FFE2C6" transform="translate(99.000000, 118.500000) scale(-1, 1) rotate(-10.000000) translate(-99.000000, -118.500000) " x="92" y="76" width="14" height="85" rx="7"></rect>
                            <rect id="sleeve" fill="#EB4E5F" x="0" y="90" width="20" height="8" rx="2"></rect>
                            <rect id="sleeve-copy" fill="#EB4E5F" x="93" y="90" width="24" height="8" rx="2"></rect>
                            <g id="dress" transform="translate(0.000000, 23.000000)">
                                <mask id="mask-6" fill="white">
                                    <use xlink:href="#path-5"></use>
                                </mask>
                                <use id="Mask" fill="#FF9899" xlink:href="#path-5"></use>
                                <path d="M-4,161 L118,161 L118,164 L-4,164 L-4,161 Z M-4,151 L118,151 L118,154 L-4,154 L-4,151 Z M-4,141 L118,141 L118,144 L-4,144 L-4,141 Z M-4,131 L118,131 L118,134 L-4,134 L-4,131 Z M-4,121 L118,121 L118,124 L-4,124 L-4,121 Z M-4,111 L118,111 L118,114 L-4,114 L-4,111 Z M-4,101 L118,101 L118,104 L-4,104 L-4,101 Z M-4,91 L118,91 L118,94 L-4,94 L-4,91 Z M-4,81 L118,81 L118,84 L-4,84 L-4,81 Z M-4,71 L118,71 L118,74 L-4,74 L-4,71 Z M-4,61 L118,61 L118,64 L-4,64 L-4,61 Z M-4,51 L118,51 L118,54 L-4,54 L-4,51 Z M-4,41 L57,42 L118,41 L118,44 L57,45 L-4,44 L-4,41 Z M-4,31 C-4,31 26.5,34 57,34 C87.5,34 118,31 118,31 L118,34 C118,34 87.5,37 57,37 C26.5,37 -4,34 -4,34 L-4,31 Z M-4,21 C-4,21 26.5,25 57,25 C87.5,25 118,21 118,21 L118,24 C118,24 87.5,28 57,28 C26.5,28 -4,24 -4,24 L-4,21 Z M-4,11 C-4,11 26.5,17 57,17 C87.5,17 118,11 118,11 L118,14 C118,14 87.5,20 57,20 C26.5,20 -4,14 -4,14 L-4,11 Z" id="stripe" fill="#FFAEAD" mask="url(#mask-6)"></path>
                            </g>
                            <polygon id="dress_shadow_l" fill="#F9898D" points="18 58 18 90 12 90"></polygon>
                            <polygon id="dress_shadow_r" fill="#F9898D" transform="translate(101.000000, 74.000000) scale(-1, 1) translate(-101.000000, -74.000000) " points="104 58 104 90 98 90"></polygon>
                            <path d="M15.1382963,21.8959403 C12.9288511,23.5390791 10.9197166,25.4366626 9.15425747,27.5453425 C24.7950101,31.9239517 41.2868233,34.2653545 58.3255004,34.2653545 C75.1726841,34.2653545 91.4852269,31.9762848 106.969074,27.6922004 C105.217882,25.5771661 103.222775,23.6715569 101.026878,22.0185073 C87.3598342,25.4455501 73.0551863,27.2653545 58.3255004,27.2653545 C43.4211842,27.2653545 28.952044,25.4021443 15.1382963,21.8959403 Z" id="deep_shoulder" fill="#EB4E5F"></path>
                            <rect id="stripe_l" fill="#E94C5F" x="33" y="14" width="7" height="14" rx="2"></rect>
                            <rect id="stripe_r" fill="#E94C5F" x="75" y="14" width="7" height="14" rx="2"></rect>
                            <path d="M48,14 L48,8 C48,8 68.0249844,6.24264069 68.0249844,8 C65,12 48,14 48,14 Z" id="neck_shadow" fill="#EDC19C"></path>
                        </g>
                        <g id="head">
                            <path d="M121.468481,127.401171 C118.372789,131.206568 114.554428,134.428115 110.215527,136.868799 C111.298558,136.955693 112.39397,137 113.5,137 C135.315248,137 153,119.762963 153,98.5 C153,91.3078328 150.97665,84.5762803 147.454497,78.8166089 C147.481082,78.7524287 147.507355,78.6880868 147.533309,78.6235751 C145.279514,73.6783749 144,68.0164693 144,62 C144,60.6003347 144.069248,59.2198587 144.203902,57.8631316 C144.078417,57.7155061 143.950852,57.5697879 143.821255,57.4260251 C143.939633,55.9666548 144,54.4905127 144,53 C144,23.7289083 120.718807,0 92,0 C82.4271528,0 73.4584737,2.63649666 65.7548178,7.23592623 C61.1643612,5.14406756 56.1922088,4 51,4 C27.8040405,4 9,26.8334778 9,55 C9,56.6692862 9.06604597,58.319841 9.19513792,59.9480216 C9.12941285,60.0312825 9.06422129,60.115001 8.99956854,60.1991718 C8.9692223,67.2022332 7.33920017,73.8276198 4.45604214,79.7287916 C4.45915794,79.7447161 4.46228918,79.760635 4.46543582,79.7765481 C1.61292336,85.3762526 0,91.7449985 0,98.5 C0,114.754723 9.33946446,128.772873 22.8165149,135.220879 C19.3962347,131.229737 16.7294876,126.543072 15.0442012,121.394581 C22.2591082,130.877954 33.6646139,137 46.5,137 C53.0379287,137 59.2048674,135.411603 64.6359649,132.59966 C56.2830212,125.540498 51,115.121588 51,103.5 C51,89.528544 58.6354521,77.2952951 70.0610639,70.5481967 C63.811604,77.392718 60,86.5012351 60,96.5 C60,117.762963 77.2370371,135 98.5,135 C107.108212,135 115.056576,132.174853 121.468481,127.401171 Z" id="hair" fill="#383D40"></path>
                            <rect id="ear" fill="#EDC19C" x="15" y="79" width="119" height="24" rx="12"></rect>
                            <rect id="ear-hole" fill="#E6A973" x="20" y="86" width="109" height="10" rx="5"></rect>
                            <path d="M124,78.9933813 L124,85.5083817 C124,112.841848 101.844106,135 74.5,135 C47.1619049,135 25,112.838953 25,85.5083817 L25,78.9779268 C41.2202027,74.1863736 55.1197661,63.986134 64.6102087,50.4656894 C78.151988,67.8320304 99.2717845,79 123,79 C123.333854,79 123.667192,78.9977892 124,78.9933813 Z" id="Combined-Shape" fill="#FEDFC3"></path>
                            <circle id="eye_l" fill="#383D40" cx="54" cy="89" r="4"></circle>
                            <circle id="eye_r" fill="#383D40" cx="94" cy="89" r="4"></circle>
                            <circle id="blush_r" fill="#FFB1A4" cx="107" cy="102" r="5"></circle>
                            <circle id="blush_l" fill="#FFB1A4" cx="42" cy="102" r="5"></circle>
                            <path d="M78,99 C78,99 74,103 69,99" id="nose" fill="#773A25"></path>
                            <path d="M70,111 C70,111 81,116 91,106" id="mouse" stroke="#773A25" stroke-width="2" stroke-linecap="round" stroke-linejoin="round"></path>
                            <path d="M86,77 C86,77 97.6470588,76 104,80" id="eyebrow_r" stroke="#773A25" stroke-width="2" stroke-linecap="round" stroke-linejoin="round"></path>
                            <path d="M41,77 C41,77 52.6470588,76 59,80" id="eyebrow_l" stroke="#773A25" stroke-width="2" stroke-linecap="round" stroke-linejoin="round" transform="translate(50.000000, 78.444444) scale(-1, 1) translate(-50.000000, -78.444444) "></path>
                            <path d="M47,15 C47,15 31,17 22,40" id="Path-2" stroke="#FFFFFF" stroke-width="2" stroke-linecap="round"></path>
                            <path d="M51,14 L55,14" id="Path-3" stroke="#FFFFFF" stroke-width="2" stroke-linecap="round"></path>
                        </g>
                    </g>
                </g>
                <g id="arrow_tonny" transform="translate(0.000000, 93.000000)" font-weight="normal" font-family="Augie, augie">
                    <text id="Tonny" font-size="24" letter-spacing="2" fill="#4A4A4A">
                        <tspan x="36" y="26">Tonny</tspan>
                    </text>
                    <text id=")" transform="translate(133.000000, 42.428571) rotate(-402.000000) translate(-133.000000, -42.428571) " font-size="24" letter-spacing="2" fill="#4A4A4A">
                        <tspan x="126" y="50.4285714">)</tspan>
                    </text>
                    <text id="&gt;" transform="translate(140.000000, 53.757143) rotate(58.000000) translate(-140.000000, -53.757143) " font-size="24" letter-spacing="2" fill="#4A4A4A">
                        <tspan x="130" y="61.7571429">&gt;</tspan>
                    </text>
                    <text id="Developer" font-size="20" letter-spacing="1.66666663" fill="#5EB7F1">
                        <tspan x="0" y="48.8857143">Developer</tspan>
                    </text>
                </g>
                <g id="arrow_Sunm" transform="translate(401.000000, 158.000000)" font-weight="normal" font-family="Augie, augie">
                    <text id="Sunm" font-size="24" letter-spacing="2" fill="#4A4A4A">
                        <tspan x="46" y="26">Sunm</tspan>
                    </text>
                    <text id="(" transform="translate(31.000000, 36.639344) rotate(56.000000) translate(-31.000000, -36.639344) " font-size="24" letter-spacing="2" fill="#4A4A4A">
                        <tspan x="26" y="44.6393443">(</tspan>
                    </text>
                    <text id="&gt;" transform="translate(20.000000, 40.114754) rotate(137.000000) translate(-20.000000, -40.114754) " font-size="24" letter-spacing="2" fill="#4A4A4A">
                        <tspan x="10" y="48.1147541">&gt;</tspan>
                    </text>
                    <text id="Designer" font-size="20" letter-spacing="1.66666663" fill="#EB4E5F">
                        <tspan x="46" y="48.8032787">Designer</tspan>
                    </text>
                </g>
                <path d="M143,470.5 L284.002058,470.5" id="Path" stroke="#363F51" stroke-width="3" stroke-linecap="round" stroke-linejoin="round"></path>
                <path d="M115,470.5 L133.002058,470.5" id="Path-Copy-2" stroke="#363F51" stroke-width="3" stroke-linecap="round" stroke-linejoin="round"></path>
                <path d="M100,470.5 L105.002058,470.5" id="Path-Copy-4" stroke="#363F51" stroke-width="3" stroke-linecap="round" stroke-linejoin="round"></path>
                <path d="M294,470.5 L417.002058,470.5" id="Path-Copy" stroke="#363F51" stroke-width="3" stroke-linecap="round" stroke-linejoin="round"></path>
                <path d="M427,470.5 L438.002058,470.5" id="Path-Copy-3" stroke="#363F51" stroke-width="3" stroke-linecap="round" stroke-linejoin="round"></path>
            </g>
        </g>
    </g>
</svg>