<?xml version="1.0" encoding="UTF-8"?>
<svg width="215px" height="42px" viewBox="0 0 215 42" version="1.1" xmlns="http://www.w3.org/2000/svg" xmlns:xlink="http://www.w3.org/1999/xlink">
    <!-- Generator: Sketch 41.2 (35397) - http://www.bohemiancoding.com/sketch -->
    <title>logo</title>
    <desc>Created with Sketch.</desc>
    <defs></defs>
    <g id="Symbols" stroke="none" stroke-width="1" fill="none" fill-rule="evenodd">
        <g id="logo">
            <text id="Tonny&amp;Sunm" font-family="BanglaMN-Bold, Bangla MN" font-size="20" font-weight="bold" letter-spacing="1.66666663" fill="#4A4A4A">
                <tspan x="43" y="29">Tonny&amp;Sunm</tspan>
            </text>
            <g id="slowslab" transform="translate(2.000000, 1.000000)">
                <g>
                    <path d="M5,37 C5,37 11.2440385,39.0042308 12,39 C12.7559615,38.9956731 12.3077019,25.6852885 12.3077019,25.6852885 C12.3077019,25.6852885 8.23075962,27.52625 5,37 Z" id="Fill-1" fill="#C27E15"></path>
                    <path d="M20.8653846,28.5699038 C19.6713462,29.8081731 16.7858654,36.2199038 16.9230769,41.2622115 C16.9230769,41.2622115 11.7453846,40.5201923 6.82692308,39.4352885 C6.82692308,39.4352885 6.72192308,31.8643269 12.2115385,25.97375 C12.2115385,25.97375 19.8702885,27.995 20.8653846,28.5699038" id="Fill-3" fill="#ECBF37"></path>
                    <path d="M37.3653846,18.4737596 C37.3653846,18.4737596 29.8076923,19.7237596 24.8076923,21.6468365 C28.1730769,22.8006827 34.6713462,24.1832692 39,24" id="Fill-5" fill="#2572AC"></path>
                    <path d="M37.8846154,10.7814423 C37.8846154,10.7814423 39.2560577,17.3136538 40,20.97375 C40,20.97375 31.7775962,22.7600962 24.6153846,21.5506731 L23.2692308,12.6083654 C23.2692308,12.6083654 30.26625,12.7450962 37.8846154,10.7814423" id="Fill-7" fill="#5EB7F1"></path>
                    <path d="M10.8461538,3.84615385e-05 C10.8461538,3.84615385e-05 15.4893269,9.77859615 14.6153846,13.76225 L5,3.56994231 L10.8461538,3.84615385e-05 Z" id="Fill-9" fill="#8B181A"></path>
                    <path d="M0,7.03144231 L7.21153846,0.204519231 C7.21153846,0.204519231 11.6914423,4.12653846 14.7115385,12.1275962 C10.3754808,14.5964423 7.98076923,17.4160577 7.98076923,17.4160577 C7.98076923,17.4160577 6.58538462,12.5449038 0,7.03144231" id="Fill-11" fill="#DF242B"></path>
                    <path d="M17.5,20.4929808 C17.7642308,19.5328846 15.4686538,12.2 14.8076923,11.7429808 C14.6215385,11.7466346 14.5428846,11.6959615 14.2307692,11.7429808 C12.6990385,11.9736538 10.1746154,13.5767308 7.69230769,17.22375 C7.69230769,17.22375 10.8721154,26.2996154 11.4423077,26.3583654 C12.6856731,24.5638462 15.0444231,21.7294231 16.7307692,20.6852885 C17.0288462,20.5007692 17.1915385,20.4335577 17.5,20.4929808" id="Fill-13" fill="#5EB7F1"></path>
                    <path d="M14.8076923,11.6468269 C15.2101923,12.1414423 17.1490385,17.5628846 17.5,19.9160577 C17.5436538,20.2088462 17.5224038,20.4644231 17.4038462,20.5891346 C18.2343269,21.18125 21.3223077,21.7561538 25.3846154,22.0314423 C25.5118269,21.8669231 25.6714423,21.6149038 25.7396154,21.2978846 C25.9483654,20.3263462 25.5452885,16.7159615 23.5576923,12.3199038 C23.5576923,12.3199038 18.2936538,11.1640385 14.8076923,11.6468269" id="Fill-15" fill="#EDBF36"></path>
                    <path d="M25.5769231,22.0314423 C24.4435577,24.1549038 22.7589423,26.7785577 20.6730769,29.1468269 C16.5989423,28.6417308 13.0899038,27.9166346 12.0192308,26.9352885 C11.7159615,26.6573077 11.6584615,26.5250962 11.4423077,26.2622115 C11.4423077,26.2622115 11.5557692,25.20125 13.4615385,23.1852885 C14.2393269,22.3625 15.5141346,21.2824038 17.0192308,20.3006731 C17.3705769,20.0715385 17.2354808,20.5021154 17.5,20.6852885 C17.7645192,20.8684615 20.1588462,21.64375 25.5769231,22.0314423" id="Fill-17" fill="#DE242B"></path>
                </g>
            </g>
        </g>
    </g>
</svg>